{"glyphs":{"0":{"ha":865,"x_min":59,"x_max":805,"o":"m 706 119 q 657 50 706 119 q 433 -18 608 -18 q 158 118 258 -18 q 59 490 59 255 q 159 860 59 724 q 433 997 258 997 q 706 861 607 997 q 805 491 805 725 q 706 119 805 256 m 271 211 q 299 160 271 211 q 433 109 328 109 q 594 211 537 109 q 652 490 652 312 q 594 768 652 667 q 433 869 536 869 q 271 768 330 869 q 213 490 213 666 q 271 211 213 312 z "},"1":{"ha":634,"x_min":64,"x_max":472,"o":"m 323 0 l 323 828 l 320 828 l 64 646 l 64 795 l 322 979 l 472 979 l 472 0 l 323 0 z "},"2":{"ha":804,"x_min":68,"x_max":745,"o":"m 68 692 q 163 910 68 824 q 404 997 258 997 q 637 918 544 997 q 730 723 730 840 q 684 567 730 641 q 526 378 639 494 l 281 132 l 281 128 l 745 128 l 745 0 l 76 0 l 76 103 l 429 463 q 549 607 519 557 q 580 715 580 658 q 528 826 580 781 q 399 871 475 871 q 266 820 319 871 q 212 692 212 769 l 212 690 l 68 690 l 68 692 z "},"3":{"ha":841,"x_min":59,"x_max":774,"o":"m 289 443 l 289 562 l 407 562 q 535 607 486 562 q 585 721 585 652 q 539 831 585 791 q 407 872 492 872 q 278 830 328 872 q 222 715 229 787 l 79 715 q 178 920 87 844 q 414 997 269 997 q 644 925 553 997 q 734 741 734 854 q 679 588 734 650 q 532 510 624 526 l 532 507 q 709 436 644 500 q 774 270 774 372 q 672 62 774 143 q 415 -18 570 -18 q 162 60 258 -18 q 59 267 66 138 l 205 267 q 268 152 212 195 q 415 109 324 109 q 562 154 505 109 q 620 272 620 200 q 564 397 620 351 q 411 443 508 443 l 289 443 z "},"4":{"ha":862,"x_min":52,"x_max":821,"o":"m 541 0 l 541 193 l 52 193 l 52 326 q 467 979 170 549 l 687 979 l 687 321 l 821 321 l 821 193 l 687 193 l 687 0 l 541 0 m 193 322 l 193 319 l 543 319 l 543 861 l 540 861 q 193 322 297 511 z "},"5":{"ha":833,"x_min":79,"x_max":785,"o":"m 427 -18 q 183 63 280 -18 q 79 272 86 144 l 224 272 q 289 154 233 199 q 428 109 346 109 q 578 167 520 109 q 637 317 637 225 q 579 469 637 410 q 429 528 521 528 q 314 501 366 528 q 233 425 262 473 l 94 425 l 146 979 l 728 979 l 728 850 l 268 850 l 241 550 l 244 550 q 334 623 277 597 q 463 649 391 649 q 694 556 604 649 q 785 321 785 464 q 685 76 785 171 q 427 -18 585 -18 z "},"6":{"ha":854,"x_min":60,"x_max":802,"o":"m 444 -19 q 252 35 336 -19 q 120 187 168 88 q 60 476 60 304 q 163 860 60 722 q 451 998 267 998 q 673 926 581 998 q 788 738 766 855 l 636 738 q 568 834 618 798 q 450 870 517 870 q 270 769 334 870 q 205 484 206 669 l 208 484 q 313 600 241 556 q 477 643 386 643 q 709 551 616 643 q 802 319 802 458 q 701 77 802 172 q 444 -19 600 -19 m 443 109 q 590 169 530 109 q 650 315 650 229 q 592 461 650 404 q 444 519 534 519 q 295 461 355 519 q 236 317 236 404 q 296 170 236 230 q 443 109 355 109 z "},"7":{"ha":772,"x_min":49,"x_max":715,"o":"m 130 0 l 565 847 l 565 850 l 49 850 l 49 979 l 715 979 l 715 847 l 290 0 l 130 0 z "},"8":{"ha":859,"x_min":59,"x_max":800,"o":"m 429 -18 q 162 61 266 -18 q 59 264 59 140 q 119 427 59 357 q 277 516 179 496 l 277 519 q 147 601 195 542 q 98 739 98 661 q 192 924 98 850 q 429 997 286 997 q 667 924 574 997 q 760 739 760 851 q 711 602 760 661 q 582 519 663 543 l 582 516 q 740 427 680 496 q 800 264 800 357 q 696 61 800 140 q 429 -18 592 -18 m 276 152 q 306 128 276 152 q 429 104 336 104 q 583 152 523 104 q 642 275 642 201 q 583 400 642 351 q 429 448 523 448 q 276 399 336 448 q 216 275 216 351 q 276 152 216 201 m 429 570 q 559 613 508 570 q 610 723 610 656 q 559 833 610 790 q 429 876 509 876 q 299 833 350 876 q 249 723 249 790 q 299 613 249 656 q 429 570 350 570 z "},"9":{"ha":854,"x_min":52,"x_max":795,"o":"m 404 -18 q 181 53 274 -18 q 66 241 87 125 l 218 241 q 287 144 236 181 q 406 108 338 108 q 585 210 521 108 q 648 496 648 311 l 647 496 l 646 496 l 646 496 q 543 379 616 423 q 377 336 471 336 q 145 428 237 336 q 52 659 52 520 q 153 902 52 806 q 410 998 254 998 q 603 944 518 998 q 734 792 687 891 q 795 503 795 675 q 691 120 795 258 q 404 -18 588 -18 m 410 460 q 559 517 500 460 q 619 661 619 574 q 559 808 619 748 q 412 868 499 868 q 264 809 324 868 q 203 664 203 749 q 262 518 203 576 q 410 460 321 460 z "}," ":{"ha":281,"x_min":0,"x_max":0,"o":""},"!":{"ha":395,"x_min":109,"x_max":287,"o":"m 122 979 l 273 979 l 262 324 l 133 324 l 122 979 m 197 -10 q 134 15 160 -10 q 109 77 109 40 q 134 140 109 115 q 197 165 160 165 q 261 140 235 165 q 287 77 287 115 q 261 15 287 40 q 197 -10 235 -10 z "},"\"":{"ha":577,"x_min":85,"x_max":492,"o":"m 216 621 l 85 621 l 85 979 l 216 979 l 216 621 m 492 621 l 361 621 l 361 979 l 492 979 l 492 621 z "},"#":{"ha":852,"x_min":0,"x_max":852,"o":"m 424 0 l 478 268 l 273 268 l 218 0 l 103 0 l 157 268 l 0 268 l 22 382 l 180 382 l 225 607 l 62 607 l 85 721 l 248 721 l 302 979 l 417 979 l 366 721 l 570 721 l 623 979 l 739 979 l 687 721 l 852 721 l 831 607 l 663 607 l 617 382 l 789 382 l 768 268 l 595 268 l 541 0 l 424 0 m 291 377 l 504 377 l 552 612 l 338 612 l 291 377 z "},"$":{"ha":861,"x_min":68,"x_max":793,"o":"m 479 -93 l 387 -93 l 387 -3 q 155 80 241 6 q 68 272 69 155 l 212 272 q 264 169 218 210 q 387 119 310 128 l 387 440 l 326 456 q 152 551 212 484 q 91 716 91 618 q 170 905 91 832 q 387 991 248 978 l 387 1085 l 479 1085 l 479 991 q 692 906 612 980 q 776 719 772 831 l 634 719 q 589 818 632 777 q 479 867 547 859 l 479 564 l 543 550 q 731 453 669 518 q 793 282 793 387 q 711 84 793 159 q 479 -3 629 9 l 479 -93 m 649 269 q 608 367 649 329 q 479 422 567 404 l 479 117 q 605 162 560 122 q 649 269 649 201 m 236 726 q 275 635 236 671 q 387 584 313 600 l 387 867 q 279 824 321 864 q 236 726 236 785 z "},"%":{"ha":1058,"x_min":33,"x_max":1025,"o":"m 399 926 q 428 892 399 926 q 456 746 456 859 q 399 566 456 633 q 245 499 341 499 q 90 566 148 499 q 33 746 33 633 q 90 926 33 859 q 245 993 148 993 q 399 926 341 993 m 245 595 q 309 635 285 595 q 332 747 332 676 q 309 857 332 817 q 245 898 285 898 q 180 857 204 898 q 157 747 157 817 q 180 635 157 676 q 245 595 204 595 m 239 0 l 104 0 l 483 517 l 820 979 l 954 979 l 585 474 l 239 0 m 1025 235 q 968 56 1025 123 q 814 -12 911 -12 q 660 56 717 -12 q 602 235 602 123 q 660 416 602 349 q 814 483 717 483 q 968 416 911 483 q 1025 235 1025 349 m 750 125 q 761 105 750 125 q 814 85 773 85 q 878 125 854 85 q 901 236 901 165 q 878 347 901 307 q 814 387 854 387 q 750 347 773 387 q 726 236 726 307 q 750 125 726 165 z "},"&":{"ha":945,"x_min":52,"x_max":958,"o":"m 779 0 l 694 92 q 554 12 635 40 q 385 -17 473 -17 q 144 59 236 -17 q 52 259 52 136 q 98 409 52 344 q 240 526 144 475 q 256 535 246 530 q 272 543 266 540 q 280 547 278 546 q 186 668 214 616 q 159 773 159 720 q 232 931 159 868 q 416 994 306 994 q 601 932 529 994 q 673 773 673 870 q 624 639 673 699 q 467 522 576 579 l 690 282 q 732 515 732 360 l 732 552 l 863 552 l 863 511 q 782 185 863 307 l 958 0 l 779 0 m 323 447 q 226 363 256 405 q 196 270 196 322 q 252 147 196 194 q 399 100 309 100 q 518 123 460 100 q 611 182 576 145 l 354 463 q 323 447 342 457 m 393 598 q 507 678 473 640 q 541 766 541 716 q 506 852 541 819 q 417 885 472 885 q 329 851 363 885 q 294 765 294 817 q 316 690 294 727 q 393 598 338 652 z "},"'":{"ha":300,"x_min":85,"x_max":216,"o":"m 216 621 l 85 621 l 85 979 l 216 979 l 216 621 z "},"(":{"ha":477,"x_min":127,"x_max":452,"o":"m 127 385 q 175 709 127 563 q 323 979 223 854 l 452 979 q 328 722 378 892 q 277 385 277 552 q 328 48 277 218 q 452 -209 378 -123 l 323 -209 q 127 385 127 35 z "},")":{"ha":477,"x_min":26,"x_max":351,"o":"m 351 385 q 335 186 351 278 q 289 21 319 94 q 228 -104 260 -51 q 155 -209 196 -157 l 26 -209 q 82 -123 54 -177 q 138 6 111 -68 q 183 181 165 81 q 200 385 200 281 q 183 589 200 489 q 138 764 165 689 q 82 893 111 839 q 26 979 53 947 l 155 979 q 228 874 196 928 q 289 749 260 821 q 335 584 319 677 q 351 385 351 492 z "},"*":{"ha":671,"x_min":85,"x_max":589,"o":"m 539 589 l 377 694 l 387 501 l 286 501 l 297 694 l 134 588 l 85 680 l 256 763 l 85 847 l 134 937 l 296 833 l 287 1024 l 388 1024 l 378 833 l 539 937 l 589 847 l 417 762 l 589 679 l 539 589 z "},"+":{"ha":861,"x_min":79,"x_max":783,"o":"m 498 322 l 498 16 l 363 16 l 363 322 l 79 322 l 79 454 l 363 454 l 363 754 l 498 754 l 498 454 l 783 454 l 783 322 l 498 322 z "},",":{"ha":365,"x_min":60,"x_max":269,"o":"m 176 -201 l 60 -201 l 121 157 l 269 157 l 176 -201 z "},"-":{"ha":602,"x_min":79,"x_max":524,"o":"m 524 331 l 79 331 l 79 463 l 524 463 l 524 331 z "},".":{"ha":365,"x_min":94,"x_max":271,"o":"m 245 18 q 233 5 245 18 q 182 -7 220 -7 q 119 18 145 -7 q 94 81 94 44 q 119 144 94 119 q 182 170 145 170 q 245 144 220 170 q 271 81 271 119 q 245 18 271 44 z "},"/":{"ha":477,"x_min":0,"x_max":477,"o":"m 130 -209 l 0 -209 l 347 979 l 477 979 l 130 -209 z "},":":{"ha":365,"x_min":94,"x_max":271,"o":"m 245 18 q 233 5 245 18 q 182 -7 220 -7 q 119 18 145 -7 q 94 81 94 44 q 119 144 94 119 q 182 170 145 170 q 245 144 220 170 q 271 81 271 119 q 245 18 271 44 m 245 513 q 233 500 245 513 q 182 487 220 487 q 119 513 145 487 q 94 576 94 538 q 119 639 94 613 q 182 665 145 665 q 245 639 220 665 q 271 576 271 613 q 245 513 271 538 z "},";":{"ha":365,"x_min":58,"x_max":271,"o":"m 245 513 q 233 500 245 513 q 182 487 220 487 q 119 513 145 487 q 94 576 94 538 q 119 639 94 613 q 182 665 145 665 q 245 639 220 665 q 271 576 271 613 q 245 513 271 538 m 175 -201 l 58 -201 l 119 157 l 267 157 l 175 -201 z "},"<":{"ha":861,"x_min":123,"x_max":738,"o":"m 738 646 l 271 395 l 271 389 l 738 149 l 738 -3 l 123 330 l 123 446 l 738 798 l 738 646 z "},"=":{"ha":861,"x_min":91,"x_max":770,"o":"m 770 184 l 91 184 l 91 313 l 770 313 l 770 184 m 770 465 l 91 465 l 91 593 l 770 593 l 770 465 z "},">":{"ha":861,"x_min":123,"x_max":738,"o":"m 123 647 l 123 799 l 738 447 l 738 330 l 123 -2 l 123 150 l 591 389 l 591 395 l 123 647 z "},"?":{"ha":702,"x_min":37,"x_max":645,"o":"m 37 716 q 122 911 42 836 q 345 987 203 987 q 562 916 478 987 q 645 735 645 845 q 503 503 645 588 q 414 431 437 464 q 390 345 390 398 l 390 304 l 250 304 l 249 358 q 278 478 246 429 q 380 570 309 528 q 467 642 442 608 q 491 729 491 677 q 449 825 491 787 q 338 862 407 862 q 225 823 268 862 q 178 716 182 783 l 37 716 m 321 -10 q 258 15 283 -10 q 232 77 232 40 q 258 140 232 115 q 321 165 283 165 q 385 140 359 165 q 410 77 410 115 q 385 15 410 40 q 321 -10 359 -10 z "},"@":{"ha":1219,"x_min":62,"x_max":1172,"o":"m 604 585 q 506 538 541 585 q 470 407 470 491 q 506 276 470 324 q 603 229 541 229 q 705 277 667 229 q 743 407 743 325 q 706 537 743 489 q 604 585 668 585 m 627 977 q 908 915 785 977 q 1102 738 1032 852 q 1172 476 1172 624 q 1102 215 1172 313 q 913 118 1033 118 q 809 149 852 118 q 757 229 765 180 l 750 229 q 685 150 729 178 q 581 123 641 123 q 410 202 475 123 q 345 410 345 281 q 410 611 345 534 q 578 689 475 689 q 677 663 633 689 q 741 593 722 637 l 749 593 l 749 675 l 863 675 l 863 290 q 882 235 863 256 q 936 215 900 215 q 1030 283 994 215 q 1066 473 1066 352 q 943 770 1066 657 q 620 883 819 883 q 387 823 490 883 q 226 653 283 762 q 168 407 168 545 q 230 154 168 260 q 398 -7 292 47 q 643 -60 505 -60 q 855 -31 785 -60 l 855 -125 q 638 -155 764 -155 q 407 -116 513 -155 q 224 -7 301 -78 q 105 172 148 64 q 62 411 62 279 q 134 707 62 578 q 334 906 205 836 q 627 977 463 977 z "},"A":{"ha":906,"x_min":18,"x_max":888,"o":"m 728 0 l 638 264 l 265 264 l 176 0 l 18 0 l 371 979 l 535 979 l 888 0 l 728 0 m 450 816 l 304 387 l 600 387 l 454 816 l 450 816 z "},"B":{"ha":857,"x_min":90,"x_max":817,"o":"m 483 0 l 90 0 l 90 979 l 481 979 q 690 912 611 979 q 768 734 768 845 q 718 595 768 656 q 594 522 667 534 l 594 516 q 755 439 694 505 q 817 277 817 374 q 728 74 817 147 q 483 0 639 0 m 242 854 l 242 562 l 412 562 q 564 602 511 562 q 616 713 616 641 q 572 818 616 781 q 444 854 527 854 l 242 854 m 242 124 l 452 124 q 608 165 554 124 q 661 286 661 207 q 443 446 661 446 l 242 446 l 242 124 z "},"C":{"ha":966,"x_min":55,"x_max":919,"o":"m 503 -16 q 176 120 297 -16 q 55 490 55 256 q 176 858 55 722 q 503 995 298 995 q 785 901 670 995 q 918 654 899 807 l 768 654 q 675 805 747 749 q 503 862 603 862 q 290 761 370 862 q 210 490 210 659 q 290 217 210 318 q 504 117 369 117 q 675 166 606 117 q 768 304 745 216 l 919 304 q 782 68 891 153 q 503 -16 672 -16 z "},"D":{"ha":953,"x_min":90,"x_max":899,"o":"m 90 979 l 435 979 q 776 850 654 979 q 899 491 899 722 q 777 130 899 259 q 435 0 654 0 l 90 0 l 90 979 m 242 848 l 242 132 l 421 132 q 660 224 577 132 q 743 490 743 316 q 660 755 743 663 q 421 848 576 848 l 242 848 z "},"E":{"ha":777,"x_min":90,"x_max":711,"o":"m 711 132 l 711 0 l 90 0 l 90 979 l 711 979 l 711 848 l 242 848 l 242 562 l 686 562 l 686 435 l 242 435 l 242 132 l 711 132 z "},"F":{"ha":743,"x_min":90,"x_max":701,"o":"m 242 0 l 90 0 l 90 979 l 701 979 l 701 848 l 242 848 l 242 538 l 663 538 l 663 410 l 242 410 l 242 0 z "},"G":{"ha":991,"x_min":55,"x_max":933,"o":"m 933 407 q 822 96 933 208 q 511 -16 710 -16 q 178 121 301 -16 q 55 494 55 258 q 177 860 55 725 q 509 995 300 995 q 786 906 673 995 q 926 671 900 817 l 770 671 q 674 812 743 762 q 510 862 606 862 q 290 765 370 862 q 210 495 210 667 q 292 218 210 319 q 513 117 373 117 q 707 186 631 117 q 783 367 782 256 l 783 384 l 530 384 l 530 507 l 933 507 l 933 407 z "},"H":{"ha":986,"x_min":90,"x_max":897,"o":"m 897 0 l 745 0 l 745 433 l 242 433 l 242 0 l 90 0 l 90 979 l 242 979 l 242 565 l 745 565 l 745 979 l 897 979 l 897 0 z "},"I":{"ha":332,"x_min":90,"x_max":242,"o":"m 242 0 l 90 0 l 90 979 l 242 979 l 242 0 z "},"J":{"ha":719,"x_min":26,"x_max":627,"o":"m 26 251 l 175 251 q 217 152 176 190 q 321 114 257 114 q 435 158 395 114 q 475 286 475 201 l 475 979 l 627 979 l 627 285 q 546 59 627 140 q 322 -22 465 -22 q 108 54 190 -22 q 26 251 26 129 z "},"K":{"ha":877,"x_min":90,"x_max":870,"o":"m 242 0 l 90 0 l 90 979 l 242 979 l 242 513 l 248 513 l 657 979 l 838 979 l 450 545 l 870 0 l 682 0 l 342 441 l 242 326 l 242 0 z "},"L":{"ha":738,"x_min":90,"x_max":698,"o":"m 698 132 l 698 0 l 90 0 l 90 979 l 242 979 l 242 132 l 698 132 z "},"M":{"ha":1171,"x_min":90,"x_max":1080,"o":"m 1080 0 l 941 0 l 941 720 l 937 720 l 642 7 l 529 7 l 233 720 l 229 720 l 229 0 l 90 0 l 90 979 l 266 979 l 583 206 l 588 206 l 904 979 l 1080 979 l 1080 0 z "},"N":{"ha":979,"x_min":90,"x_max":888,"o":"m 238 0 l 90 0 l 90 979 l 228 979 l 735 257 l 741 257 l 741 979 l 888 979 l 888 0 l 751 0 l 244 721 l 238 721 l 238 0 z "},"O":{"ha":1026,"x_min":55,"x_max":972,"o":"m 513 995 q 848 859 724 995 q 972 489 972 722 q 848 120 972 256 q 513 -16 725 -16 q 178 120 302 -16 q 55 489 55 256 q 178 859 55 722 q 513 995 302 995 m 513 861 q 292 761 374 861 q 210 489 210 661 q 292 218 210 318 q 513 117 374 117 q 734 218 652 117 q 816 489 816 318 q 734 761 816 661 q 513 861 652 861 z "},"P":{"ha":822,"x_min":90,"x_max":779,"o":"m 90 979 l 457 979 q 689 889 600 979 q 779 657 779 800 q 688 424 779 514 q 452 334 597 334 l 242 334 l 242 0 l 90 0 l 90 979 m 242 850 l 242 462 l 416 462 q 570 513 515 462 q 624 656 624 564 q 570 800 624 749 q 417 850 516 850 l 242 850 z "},"Q":{"ha":1026,"x_min":55,"x_max":972,"o":"m 513 -16 q 178 119 302 -16 q 55 489 55 255 q 178 859 55 722 q 513 995 302 995 q 848 858 724 995 q 972 489 972 722 q 928 247 972 353 q 802 77 884 141 l 929 -104 l 770 -104 l 687 13 q 513 -16 610 -16 m 513 117 q 605 130 561 117 l 488 295 l 642 295 l 711 201 q 816 489 816 298 q 734 761 816 661 q 513 862 652 862 q 292 761 374 862 q 210 489 210 661 q 292 217 210 318 q 513 117 374 117 z "},"R":{"ha":852,"x_min":90,"x_max":825,"o":"m 242 851 l 242 499 l 455 499 q 591 545 543 499 q 640 675 640 591 q 589 804 640 758 q 451 851 539 851 l 242 851 m 242 376 l 242 0 l 90 0 l 90 979 l 469 979 q 708 898 620 979 q 796 680 796 817 q 746 505 796 580 q 606 400 695 430 l 825 0 l 650 0 l 451 376 l 242 376 z "},"S":{"ha":844,"x_min":47,"x_max":798,"o":"m 47 273 l 197 273 q 269 156 205 200 q 431 112 334 112 q 583 155 523 112 q 643 263 643 197 q 600 356 643 320 q 463 416 557 393 l 336 446 q 137 543 201 479 q 73 710 73 608 q 172 916 73 836 q 429 995 271 995 q 681 916 583 995 q 782 710 779 837 l 634 710 q 571 825 627 783 q 427 867 515 867 q 283 826 338 867 q 228 720 228 785 q 269 636 228 669 q 406 579 311 603 l 513 553 q 731 453 664 517 q 798 281 798 389 q 696 64 798 144 q 420 -16 594 -16 q 155 62 256 -16 q 47 273 54 140 z "},"T":{"ha":817,"x_min":33,"x_max":784,"o":"m 485 0 l 333 0 l 333 848 l 33 848 l 33 979 l 784 979 l 784 848 l 485 848 l 485 0 z "},"U":{"ha":972,"x_min":90,"x_max":882,"o":"m 242 979 l 242 357 q 307 184 242 250 q 486 119 372 119 q 666 184 601 119 q 731 357 731 250 l 731 979 l 882 979 l 882 344 q 775 83 882 183 q 486 -16 668 -16 q 197 83 304 -16 q 90 344 90 183 l 90 979 l 242 979 z "},"V":{"ha":900,"x_min":18,"x_max":882,"o":"m 533 0 l 367 0 l 18 979 l 182 979 l 449 171 l 453 171 l 720 979 l 882 979 l 533 0 z "},"W":{"ha":1304,"x_min":30,"x_max":1274,"o":"m 648 738 l 437 0 l 294 0 l 30 979 l 188 979 l 369 212 l 374 212 l 581 979 l 722 979 l 930 212 l 935 212 l 1116 979 l 1274 979 l 1010 0 l 867 0 l 655 738 l 648 738 z "},"X":{"ha":907,"x_min":30,"x_max":877,"o":"m 30 0 l 355 490 l 355 495 l 33 979 l 214 979 l 456 600 l 461 600 l 705 979 l 877 979 l 545 490 l 545 486 l 871 0 l 693 0 l 450 373 l 445 373 l 198 0 l 30 0 z "},"Y":{"ha":877,"x_min":18,"x_max":859,"o":"m 514 0 l 362 0 l 362 401 l 18 979 l 187 979 l 437 547 l 441 547 l 691 979 l 859 979 l 514 401 l 514 0 z "},"Z":{"ha":863,"x_min":64,"x_max":800,"o":"m 64 0 l 64 104 l 600 842 l 600 848 l 81 848 l 81 979 l 787 979 l 787 875 l 253 136 l 253 132 l 800 132 l 800 0 l 64 0 z "},"[":{"ha":477,"x_min":139,"x_max":463,"o":"m 139 979 l 463 979 l 463 867 l 280 867 l 280 -98 l 463 -98 l 463 -209 l 139 -209 l 139 979 z "},"\\":{"ha":477,"x_min":0,"x_max":477,"o":"m 346 -209 l 0 979 l 132 979 l 477 -209 l 346 -209 z "},"]":{"ha":477,"x_min":15,"x_max":338,"o":"m 338 979 l 338 -209 l 15 -209 l 15 -98 l 197 -98 l 197 867 l 15 867 l 15 979 l 338 979 z "},"^":{"ha":628,"x_min":35,"x_max":593,"o":"m 308 852 l 168 552 l 35 552 l 241 974 l 387 974 l 593 552 l 458 552 l 319 852 l 308 852 z "},"_":{"ha":568,"x_min":-35,"x_max":604,"o":"m 604 -181 l -35 -181 l -35 -73 l 604 -73 l 604 -181 z "},"`":{"ha":683,"x_min":197,"x_max":489,"o":"m 489 872 l 366 872 l 197 1078 l 344 1078 l 489 872 z "},"a":{"ha":720,"x_min":44,"x_max":650,"o":"m 322 104 q 452 151 399 104 q 505 267 505 198 l 505 323 l 329 313 q 228 280 263 308 q 192 207 192 253 q 228 132 192 160 q 322 104 263 104 m 281 -12 q 110 47 176 -12 q 44 203 44 107 q 113 352 44 296 q 309 414 182 407 l 505 425 l 505 480 q 467 573 505 540 q 361 607 429 607 q 260 579 299 607 q 211 503 221 551 l 73 503 q 158 664 79 602 q 367 726 237 726 q 573 663 496 726 q 650 492 650 599 l 650 0 l 510 0 l 510 117 l 507 117 q 414 23 476 58 q 281 -12 352 -12 z "},"b":{"ha":791,"x_min":78,"x_max":750,"o":"m 452 -12 q 316 23 375 -12 q 223 121 257 58 l 220 121 l 220 0 l 78 0 l 78 979 l 224 979 l 224 592 l 228 592 q 319 690 260 654 q 453 725 378 725 q 669 625 588 725 q 750 357 750 526 q 669 87 750 187 q 452 -12 589 -12 m 413 602 q 276 534 329 602 q 224 357 224 467 q 276 179 224 246 q 413 112 329 112 q 549 178 499 112 q 600 357 600 243 q 549 535 600 469 q 413 602 499 602 z "},"c":{"ha":718,"x_min":41,"x_max":686,"o":"m 685 468 l 545 468 q 490 566 534 528 q 378 604 446 604 q 241 537 292 604 q 190 357 190 471 q 241 175 190 241 q 379 109 292 109 q 489 144 446 109 q 545 241 532 179 l 686 241 q 590 57 675 127 q 378 -14 506 -14 q 132 86 224 -14 q 41 357 41 185 q 132 626 41 526 q 376 726 224 726 q 592 652 509 726 q 685 468 675 578 z "},"d":{"ha":790,"x_min":41,"x_max":713,"o":"m 340 -12 q 123 88 205 -12 q 41 357 41 189 q 122 625 41 525 q 339 725 204 725 q 473 690 414 725 q 563 595 532 655 l 566 595 l 566 979 l 713 979 l 713 0 l 570 0 l 570 121 l 568 121 q 476 23 536 59 q 340 -12 417 -12 m 379 602 q 241 535 292 602 q 191 357 191 469 q 241 178 191 243 q 379 112 292 112 q 515 179 464 112 q 567 357 567 245 q 515 534 567 467 q 379 602 464 602 z "},"e":{"ha":733,"x_min":41,"x_max":692,"o":"m 495 557 q 471 583 495 557 q 371 608 447 608 q 245 556 295 608 q 189 422 195 505 l 546 422 q 495 557 543 505 m 545 210 l 684 210 q 584 49 669 111 q 377 -14 499 -14 q 131 85 220 -14 q 41 353 41 184 q 131 624 41 522 q 371 726 220 726 q 606 630 519 726 q 692 370 692 533 l 692 320 l 189 320 l 189 311 q 241 161 189 218 q 380 105 293 105 q 486 134 442 105 q 545 210 530 162 z "},"f":{"ha":448,"x_min":17,"x_max":408,"o":"m 115 0 l 115 597 l 17 597 l 17 712 l 115 712 l 115 782 q 166 936 115 886 q 326 985 217 985 q 408 979 370 985 l 408 870 q 354 874 386 874 q 260 779 260 874 l 260 712 l 405 712 l 405 597 l 262 597 l 262 0 l 115 0 z "},"g":{"ha":785,"x_min":41,"x_max":713,"o":"m 376 119 q 514 184 463 119 q 566 359 566 249 q 514 535 566 469 q 376 602 463 602 q 241 536 292 602 q 191 359 191 470 q 241 183 191 248 q 376 119 292 119 m 378 -269 q 166 -209 253 -269 q 66 -56 80 -149 l 214 -56 q 275 -127 229 -100 q 383 -155 321 -155 q 517 -110 468 -155 q 566 8 566 -66 l 566 125 l 563 125 q 472 32 532 66 q 337 -3 412 -3 q 121 95 202 -3 q 41 359 41 193 q 122 626 41 528 q 340 725 203 725 q 475 689 416 725 q 568 591 535 654 l 570 591 l 570 713 l 713 713 l 713 13 q 622 -192 713 -115 q 378 -269 530 -269 z "},"h":{"ha":771,"x_min":78,"x_max":703,"o":"m 78 0 l 78 979 l 223 979 l 223 594 l 227 594 q 314 691 256 657 q 452 726 372 726 q 636 654 569 726 q 703 460 703 582 l 703 0 l 555 0 l 555 431 q 516 555 555 511 q 399 600 476 600 q 272 548 319 600 q 224 412 224 497 l 224 0 l 78 0 z "},"i":{"ha":301,"x_min":66,"x_max":236,"o":"m 77 0 l 77 713 l 224 713 l 224 0 l 77 0 m 211 842 q 198 830 211 842 q 151 818 186 818 q 91 842 115 818 q 66 901 66 867 q 91 961 66 937 q 151 985 115 985 q 211 961 186 985 q 236 901 236 937 q 211 842 236 867 z "},"j":{"ha":301,"x_min":-43,"x_max":236,"o":"m 224 713 l 224 -34 q 166 -196 224 -143 q -9 -248 109 -248 q -43 -247 -39 -248 l -43 -132 q -33 -132 -42 -132 q -22 -132 -24 -132 q 55 -110 32 -132 q 77 -33 77 -87 l 77 713 l 224 713 m 211 842 q 198 830 211 842 q 151 818 186 818 q 91 842 115 818 q 66 901 66 867 q 91 961 66 937 q 151 985 115 985 q 211 961 186 985 q 236 901 236 937 q 211 842 236 867 z "},"k":{"ha":701,"x_min":78,"x_max":698,"o":"m 226 408 l 514 713 l 686 713 l 391 406 l 698 0 l 528 0 l 286 317 l 224 256 l 224 0 l 78 0 l 78 979 l 224 979 l 224 408 l 226 408 z "},"l":{"ha":302,"x_min":78,"x_max":224,"o":"m 78 0 l 78 979 l 224 979 l 224 0 l 78 0 z "},"m":{"ha":1145,"x_min":73,"x_max":1077,"o":"m 73 0 l 73 713 l 212 713 l 212 593 l 216 593 q 294 690 240 654 q 418 726 347 726 q 544 689 492 726 q 618 586 596 652 l 621 586 q 708 688 649 651 q 844 726 768 726 q 1013 661 949 726 q 1077 490 1077 597 l 1077 0 l 930 0 l 930 455 q 894 562 930 524 q 793 600 859 600 q 687 557 728 600 q 646 446 646 513 l 646 0 l 503 0 l 503 466 q 466 564 503 528 q 368 600 429 600 q 261 555 302 600 q 219 441 219 510 l 219 0 l 73 0 z "},"n":{"ha":756,"x_min":73,"x_max":688,"o":"m 73 0 l 73 713 l 212 713 l 212 594 l 216 594 q 302 691 245 656 q 440 726 359 726 q 623 655 557 726 q 688 462 688 585 l 688 0 l 541 0 l 541 433 q 502 557 541 515 q 389 600 464 600 q 265 549 311 600 q 219 416 219 499 l 219 0 l 73 0 z "},"o":{"ha":758,"x_min":41,"x_max":718,"o":"m 625 86 q 579 36 625 86 q 379 -14 533 -14 q 133 86 225 -14 q 41 357 41 185 q 133 627 41 528 q 379 726 225 726 q 625 627 533 726 q 718 357 718 528 q 625 86 718 185 m 379 107 q 517 173 467 107 q 568 357 568 239 q 517 540 568 474 q 379 606 466 606 q 241 540 292 606 q 190 357 190 474 q 241 173 190 239 q 379 107 292 107 z "},"p":{"ha":785,"x_min":73,"x_max":745,"o":"m 444 725 q 663 625 581 725 q 745 357 745 526 q 663 88 745 188 q 447 -12 582 -12 q 312 22 371 -12 q 222 117 254 57 l 219 117 l 219 -236 l 73 -236 l 73 713 l 214 713 l 214 591 l 217 591 q 309 689 249 653 q 444 725 368 725 m 406 112 q 543 178 492 112 q 594 357 594 244 q 543 535 594 469 q 406 602 492 602 q 270 534 321 602 q 218 357 218 467 q 270 179 218 245 q 406 112 321 112 z "},"q":{"ha":785,"x_min":41,"x_max":713,"o":"m 340 725 q 476 689 416 725 q 567 591 535 653 l 570 591 l 570 713 l 713 713 l 713 -236 l 566 -236 l 566 120 l 563 120 q 472 23 532 59 q 337 -12 412 -12 q 122 88 203 -12 q 41 357 41 189 q 122 625 41 526 q 340 725 203 725 m 376 112 q 514 179 461 112 q 566 357 566 246 q 514 534 566 467 q 376 602 461 602 q 240 536 290 602 q 191 357 191 470 q 240 178 191 243 q 376 112 290 112 z "},"r":{"ha":456,"x_min":73,"x_max":437,"o":"m 73 0 l 73 713 l 212 713 l 212 592 l 216 592 q 279 690 233 654 q 387 725 324 725 q 437 720 408 725 l 437 583 q 372 591 418 591 q 260 547 301 591 q 219 427 219 503 l 219 0 l 73 0 z "},"s":{"ha":671,"x_min":41,"x_max":630,"o":"m 60 511 q 137 667 60 607 q 339 726 214 726 q 534 666 458 726 q 614 511 610 606 l 476 511 q 433 587 471 559 q 335 615 396 615 q 239 589 275 615 q 203 520 203 562 q 312 428 203 455 l 432 400 q 585 330 540 374 q 630 206 630 286 q 548 47 630 109 q 334 -14 465 -14 q 129 46 208 -14 q 41 205 50 106 l 186 205 q 235 126 195 153 q 340 98 274 98 q 445 124 406 98 q 483 193 483 149 q 460 248 483 227 q 381 282 437 268 l 254 313 q 60 511 60 360 z "},"t":{"ha":446,"x_min":12,"x_max":398,"o":"m 115 882 l 262 882 l 262 713 l 398 713 l 398 597 l 262 597 l 262 204 q 283 136 262 158 q 349 115 304 115 q 397 118 382 115 l 397 2 q 316 -5 370 -5 q 162 40 208 -5 q 115 188 115 84 l 115 597 l 12 597 l 12 713 l 115 713 l 115 882 z "},"u":{"ha":756,"x_min":69,"x_max":684,"o":"m 684 713 l 684 0 l 544 0 l 544 121 l 541 121 q 319 -13 479 -13 q 136 58 203 -13 q 69 252 69 129 l 69 713 l 216 713 l 216 280 q 254 156 216 198 q 368 113 293 113 q 492 163 447 113 q 538 298 538 214 l 538 713 l 684 713 z "},"v":{"ha":693,"x_min":12,"x_max":682,"o":"m 682 713 l 426 0 l 269 0 l 12 713 l 168 713 l 347 143 l 349 143 l 528 713 l 682 713 z "},"w":{"ha":1031,"x_min":17,"x_max":1014,"o":"m 1014 713 l 819 0 l 666 0 l 516 534 l 513 534 l 364 0 l 213 0 l 17 713 l 163 713 l 294 152 l 296 152 l 445 713 l 586 713 l 735 152 l 739 152 l 869 713 l 1014 713 z "},"x":{"ha":681,"x_min":20,"x_max":661,"o":"m 340 262 l 336 262 l 178 0 l 20 0 l 255 356 l 23 713 l 187 713 l 343 455 l 346 455 l 500 713 l 661 713 l 427 361 l 659 0 l 497 0 l 340 262 z "},"y":{"ha":703,"x_min":13,"x_max":690,"o":"m 143 -266 q 83 -262 102 -266 l 83 -144 q 131 -146 94 -146 q 212 -123 182 -146 q 258 -45 241 -100 q 264 -22 258 -44 l 271 -1 l 13 713 l 172 713 l 353 133 l 355 133 l 536 713 l 690 713 l 422 -37 q 316 -216 377 -167 q 143 -266 255 -266 z "},"z":{"ha":669,"x_min":58,"x_max":610,"o":"m 58 0 l 58 94 l 438 594 l 438 597 l 60 597 l 60 713 l 606 713 l 606 613 l 235 119 l 235 117 l 610 117 l 610 0 l 58 0 z "},"{":{"ha":477,"x_min":15,"x_max":463,"o":"m 147 376 q 306 214 306 359 l 306 50 q 336 -62 306 -28 q 435 -96 366 -96 l 463 -96 l 463 -209 l 420 -209 q 228 -150 290 -209 q 167 33 167 -92 l 167 168 q 133 278 167 246 q 15 310 100 309 l 15 460 q 133 492 99 460 q 167 602 167 524 l 167 739 q 228 920 167 862 q 420 979 290 979 l 463 979 l 463 865 l 435 865 q 336 832 366 865 q 306 720 306 798 l 306 556 q 147 394 306 410 l 147 376 z "},"|":{"ha":477,"x_min":174,"x_max":304,"o":"m 304 -209 l 174 -209 l 174 979 l 304 979 l 304 -209 z "},"}":{"ha":477,"x_min":15,"x_max":463,"o":"m 330 376 l 330 394 q 172 556 172 410 l 172 720 q 142 832 172 798 q 43 865 112 865 l 15 865 l 15 979 l 57 979 q 249 920 188 979 q 311 739 311 862 l 311 602 q 345 492 311 524 q 463 460 378 460 l 463 310 q 344 278 378 309 q 311 169 311 247 l 311 37 q 249 -149 311 -90 q 57 -209 188 -209 l 15 -209 l 15 -96 l 43 -96 q 141 -62 111 -96 q 172 49 172 -28 l 172 212 q 330 376 172 360 z "},"~":{"ha":861,"x_min":79,"x_max":783,"o":"m 400 429 q 342 478 365 464 q 296 492 319 492 q 207 371 213 492 l 81 371 q 136 556 79 488 q 292 624 192 624 q 463 538 376 624 q 519 489 496 503 q 565 475 543 475 q 655 596 649 475 l 780 596 q 726 411 783 479 q 570 343 670 343 q 485 363 525 343 q 400 429 445 384 z "}," ":{"ha":281,"x_min":0,"x_max":0,"o":""},"¡":{"ha":395,"x_min":109,"x_max":287,"o":"m 122 -227 l 133 427 l 262 427 l 273 -227 l 122 -227 m 197 587 q 134 613 160 587 q 109 675 109 638 q 134 738 109 712 q 197 763 160 763 q 261 738 235 763 q 287 675 287 712 q 261 613 287 638 q 197 587 235 587 z "},"¢":{"ha":861,"x_min":77,"x_max":784,"o":"m 784 366 q 697 191 773 262 q 507 106 621 120 l 507 -12 l 372 -12 l 372 109 q 157 233 237 131 q 77 486 77 334 q 157 737 77 636 q 372 860 237 838 l 372 980 l 507 980 l 507 862 q 699 773 621 848 q 784 599 777 699 l 642 599 q 576 704 629 665 q 444 743 522 743 q 287 671 348 743 q 227 486 227 600 q 288 298 227 371 q 444 226 349 226 q 642 366 616 226 l 784 366 z "},"£":{"ha":861,"x_min":68,"x_max":804,"o":"m 288 127 l 804 127 l 804 0 l 68 0 l 68 123 q 217 206 159 140 q 276 354 276 271 q 264 438 276 391 l 69 438 l 69 551 l 226 551 q 184 725 184 660 q 280 929 184 856 q 545 1002 375 1002 q 664 992 606 1002 q 756 967 722 983 l 756 840 q 671 866 727 855 q 559 876 614 876 q 397 834 455 876 q 338 716 338 791 q 376 551 338 654 l 681 551 l 681 438 l 412 438 q 422 361 422 394 q 384 225 422 285 q 288 131 346 165 l 288 127 z "},"¤":{"ha":861,"x_min":85,"x_max":777,"o":"m 260 443 q 310 322 260 373 q 431 271 361 271 q 552 322 502 271 q 603 443 603 372 q 552 564 603 513 q 431 615 502 615 q 310 564 361 615 q 260 443 260 513 m 777 703 l 667 593 q 711 443 711 524 q 667 293 711 361 l 777 183 l 690 97 l 580 207 q 431 163 513 163 q 282 208 351 163 l 172 97 l 85 183 l 195 294 q 152 443 152 363 q 195 593 152 524 l 85 703 l 172 789 l 282 679 q 431 723 350 723 q 581 680 512 723 l 690 789 l 777 703 z "},"¥":{"ha":861,"x_min":10,"x_max":851,"o":"m 693 168 l 507 168 l 507 0 l 355 0 l 355 168 l 169 168 l 169 268 l 355 268 l 355 373 l 169 373 l 169 473 l 313 473 l 10 979 l 179 979 l 429 548 l 433 548 l 682 979 l 851 979 l 549 473 l 693 473 l 693 373 l 507 373 l 507 268 l 693 268 l 693 168 z "},"¦":{"ha":477,"x_min":174,"x_max":304,"o":"m 304 504 l 174 504 l 174 979 l 304 979 l 304 504 m 304 -209 l 174 -209 l 174 266 l 304 266 l 304 -209 z "},"§":{"ha":671,"x_min":47,"x_max":625,"o":"m 295 283 l 357 267 q 449 302 412 269 q 486 385 486 336 q 458 451 486 424 q 378 492 430 479 l 315 508 q 224 471 262 506 q 186 390 186 437 q 215 324 186 352 q 295 283 243 296 m 338 -181 q 139 -122 218 -181 q 54 30 60 -64 l 192 30 q 240 -40 198 -14 q 342 -67 281 -67 q 445 -40 406 -67 q 484 33 484 -12 q 455 92 484 68 q 362 133 427 115 l 258 164 q 97 243 148 195 q 47 362 47 290 q 86 474 47 427 q 197 541 126 521 l 197 553 q 51 738 51 613 q 129 896 51 836 q 332 956 206 956 q 525 900 450 956 q 610 751 600 845 l 473 751 q 428 817 467 792 q 330 842 389 842 q 230 815 268 842 q 191 743 191 787 q 219 684 191 707 q 311 642 248 660 l 414 611 q 574 533 524 579 q 625 417 625 486 q 578 296 625 349 q 458 227 532 243 l 458 215 q 623 39 623 170 q 543 -120 623 -58 q 338 -181 464 -181 z "},"¨":{"ha":682,"x_min":130,"x_max":552,"o":"m 211 877 q 154 900 177 877 q 130 956 130 923 q 154 1013 130 989 q 211 1036 177 1036 q 268 1013 244 1036 q 291 956 291 989 q 268 900 291 923 q 211 877 244 877 m 472 877 q 415 900 438 877 q 391 956 391 923 q 415 1013 391 989 q 472 1036 438 1036 q 529 1013 505 1036 q 552 956 552 989 q 529 900 552 923 q 472 877 505 877 z "},"©":{"ha":1155,"x_min":41,"x_max":1114,"o":"m 577 -107 q 306 -37 429 -107 q 112 157 183 34 q 41 431 41 281 q 112 704 41 581 q 306 898 183 827 q 577 968 429 968 q 849 898 726 968 q 1043 704 972 827 q 1114 431 1114 581 q 1043 157 1114 281 q 849 -37 972 34 q 577 -107 726 -107 m 577 -6 q 748 27 667 -6 q 887 119 829 61 q 979 258 945 177 q 1013 431 1013 339 q 979 604 1013 522 q 887 742 945 685 q 748 833 829 800 q 577 867 667 867 q 357 810 457 867 q 200 653 258 753 q 142 431 142 553 q 200 208 142 309 q 357 51 258 108 q 577 -6 457 -6 m 831 519 l 725 519 q 679 590 714 563 q 589 618 643 618 q 476 568 518 618 q 435 431 435 518 q 476 293 435 344 q 589 243 518 243 q 678 268 642 243 q 725 338 714 292 l 831 338 q 755 202 819 254 q 589 150 691 150 q 396 225 467 150 q 324 431 324 301 q 396 635 324 559 q 588 711 467 711 q 754 657 690 711 q 831 519 819 603 z "},"ª":{"ha":511,"x_min":27,"x_max":465,"o":"m 231 569 q 314 597 281 569 q 347 667 347 625 l 347 704 l 237 697 q 147 631 147 691 q 170 586 147 603 q 231 569 193 569 m 193 479 q 74 520 120 479 q 27 627 27 561 q 77 730 27 692 q 220 773 126 768 l 347 781 l 347 815 q 322 873 347 852 q 254 893 298 893 q 192 876 217 893 q 162 829 168 859 l 52 829 q 112 942 54 899 q 258 986 170 986 q 408 942 352 986 q 465 823 465 897 l 465 484 l 349 484 l 349 562 l 347 562 q 285 501 327 524 q 193 479 243 479 z "},"«":{"ha":896,"x_min":86,"x_max":810,"o":"m 241 388 l 241 379 l 477 100 l 322 100 l 86 380 l 86 386 l 323 667 l 477 667 l 241 388 m 573 388 l 573 379 l 810 100 l 654 100 l 418 380 l 418 386 l 655 667 l 810 667 l 573 388 z "},"¬":{"ha":861,"x_min":98,"x_max":764,"o":"m 764 456 l 764 71 l 637 71 l 637 332 l 98 332 l 98 456 l 764 456 z "},"®":{"ha":791,"x_min":63,"x_max":728,"o":"m 632 490 q 583 442 632 490 q 395 395 535 395 q 159 490 256 395 q 63 722 63 585 q 159 954 63 859 q 395 1049 256 1049 q 564 1006 488 1049 q 684 888 640 963 q 728 722 728 812 q 632 490 728 585 m 395 469 q 574 543 501 469 q 646 722 646 616 q 574 901 646 829 q 395 974 502 974 q 217 901 290 974 q 144 722 144 828 q 217 543 144 616 q 395 469 290 469 m 340 573 l 269 573 l 269 882 l 423 882 q 503 855 472 882 q 534 786 534 828 q 515 725 534 750 q 464 694 496 701 l 550 573 l 462 573 l 390 684 l 340 684 l 340 573 m 340 823 l 340 738 l 408 738 q 445 749 432 738 q 458 782 458 761 q 410 823 458 823 l 340 823 z "},"¯":{"ha":678,"x_min":136,"x_max":542,"o":"m 542 994 l 542 907 l 136 907 l 136 994 l 542 994 z "},"°":{"ha":502,"x_min":50,"x_max":452,"o":"m 250 585 q 108 644 166 585 q 50 787 50 702 q 108 930 50 871 q 250 988 166 988 q 393 929 335 988 q 452 787 452 871 q 393 644 452 703 q 250 585 335 585 m 251 683 q 324 713 294 683 q 355 787 355 744 q 325 860 355 830 q 251 890 294 890 q 178 860 210 890 q 147 787 147 829 q 178 714 147 745 q 251 683 209 683 z "},"±":{"ha":861,"x_min":88,"x_max":773,"o":"m 773 67 l 88 67 l 88 184 l 773 184 l 773 67 m 493 446 l 493 262 l 368 262 l 368 446 l 88 446 l 88 558 l 368 558 l 368 743 l 493 743 l 493 558 l 773 558 l 773 446 l 493 446 z "},"²":{"ha":431,"x_min":27,"x_max":398,"o":"m 27 1079 q 78 1193 27 1149 q 213 1236 130 1236 q 343 1198 293 1236 q 393 1097 393 1160 q 373 1028 393 1061 q 306 952 354 996 l 199 854 l 199 852 l 398 852 l 398 755 l 35 755 l 35 840 l 220 1007 q 259 1053 248 1035 q 270 1088 270 1070 q 253 1127 270 1112 q 208 1142 235 1142 q 161 1124 180 1142 q 143 1079 143 1106 l 143 1076 l 27 1076 l 27 1079 z "},"³":{"ha":449,"x_min":28,"x_max":417,"o":"m 162 952 l 162 1038 l 220 1038 q 265 1053 248 1038 q 282 1091 282 1067 q 265 1129 282 1115 q 218 1143 248 1143 q 171 1127 189 1143 q 151 1084 153 1111 l 37 1084 q 89 1195 38 1153 q 222 1236 139 1236 q 351 1201 302 1236 q 400 1109 400 1166 q 374 1038 400 1067 q 302 1000 347 1008 l 302 998 q 387 963 356 993 q 417 886 417 932 q 363 782 417 821 q 220 743 309 743 q 83 785 136 743 q 28 897 31 827 l 149 897 q 170 857 151 871 q 220 842 189 842 q 270 858 251 842 q 289 897 289 873 q 270 937 289 922 q 219 952 252 952 l 162 952 z "},"´":{"ha":683,"x_min":193,"x_max":486,"o":"m 316 872 l 193 872 l 338 1078 l 486 1078 l 316 872 z "},"µ":{"ha":824,"x_min":73,"x_max":785,"o":"m 73 -236 l 73 713 l 218 713 l 218 283 q 257 158 218 201 q 370 115 295 115 q 496 164 451 115 q 542 298 542 213 l 542 713 l 688 713 l 688 197 q 702 131 688 151 q 747 112 715 112 q 785 118 770 112 l 785 4 q 713 -5 758 -5 q 609 19 648 -5 q 554 97 571 43 q 549 120 551 109 l 547 120 q 469 22 517 58 q 362 -13 422 -13 q 277 8 315 -13 q 221 62 239 28 l 219 62 l 219 -236 l 73 -236 z "},"¶":{"ha":881,"x_min":65,"x_max":810,"o":"m 559 -158 l 412 -158 l 412 361 l 399 361 q 161 448 256 361 q 65 665 65 535 q 160 890 65 801 q 399 979 256 979 l 559 979 l 559 -158 m 664 -158 l 664 979 l 810 979 l 810 -158 l 664 -158 z "},"·":{"ha":380,"x_min":100,"x_max":280,"o":"m 254 352 q 241 339 254 352 q 190 326 228 326 q 126 352 152 326 q 100 416 100 378 q 126 480 100 454 q 190 507 152 507 q 254 480 228 507 q 280 416 280 454 q 254 352 280 378 z "},"¸":{"ha":683,"x_min":214,"x_max":476,"o":"m 239 -154 l 239 -100 l 283 6 l 374 6 l 374 0 l 337 -83 q 438 -113 401 -84 q 476 -193 476 -142 q 431 -282 476 -250 q 314 -315 387 -314 q 214 -306 249 -317 l 214 -232 q 296 -240 250 -240 q 378 -195 378 -240 q 356 -163 378 -173 q 284 -154 334 -154 l 239 -154 z "},"¹":{"ha":350,"x_min":43,"x_max":287,"o":"m 165 755 l 165 1117 l 163 1117 l 43 1036 l 43 1144 l 163 1224 l 287 1224 l 287 755 l 165 755 z "},"º":{"ha":536,"x_min":28,"x_max":509,"o":"m 268 477 q 93 545 157 477 q 28 732 28 613 q 93 918 28 849 q 268 986 157 986 q 444 918 378 986 q 509 732 509 850 q 444 545 509 613 q 268 477 379 477 m 268 571 q 355 613 324 571 q 387 732 387 656 q 355 849 387 807 q 268 892 323 892 q 181 849 212 892 q 150 732 150 807 q 181 613 150 656 q 268 571 213 571 z "},"»":{"ha":896,"x_min":86,"x_max":810,"o":"m 323 388 l 86 667 l 241 667 l 477 386 l 477 380 l 242 100 l 86 100 l 323 379 l 323 388 m 655 388 l 418 667 l 573 667 l 810 386 l 810 380 l 574 100 l 418 100 l 655 379 l 655 388 z "},"¼":{"ha":1031,"x_min":50,"x_max":1008,"o":"m 172 511 l 172 872 l 170 872 l 50 791 l 50 899 l 170 979 l 294 979 l 294 511 l 172 511 m 203 0 l 69 0 l 448 517 l 785 979 l 918 979 l 550 474 l 203 0 m 831 0 l 831 73 l 600 73 l 600 179 q 775 469 654 285 l 951 469 l 951 172 l 1008 172 l 1008 73 l 951 73 l 951 0 l 831 0 m 706 169 l 706 167 l 834 167 l 834 384 l 832 384 q 706 169 747 249 z "},"½":{"ha":1031,"x_min":50,"x_max":1008,"o":"m 172 511 l 172 872 l 170 872 l 50 791 l 50 899 l 170 979 l 294 979 l 294 511 l 172 511 m 203 0 l 69 0 l 448 517 l 785 979 l 918 979 l 550 474 l 203 0 m 637 323 q 688 437 637 394 q 823 481 739 481 q 952 443 903 481 q 1002 342 1002 404 q 983 273 1002 305 q 916 197 964 240 l 808 99 l 808 97 l 1008 97 l 1008 0 l 644 0 l 644 84 l 829 252 q 869 297 858 279 q 880 333 880 315 q 862 372 880 357 q 817 387 845 387 q 771 369 789 387 q 753 323 753 351 l 753 321 l 637 321 l 637 323 z "},"¾":{"ha":1101,"x_min":28,"x_max":1078,"o":"m 162 707 l 162 793 l 220 793 q 265 808 248 793 q 282 846 282 823 q 265 884 282 870 q 218 898 248 898 q 171 882 189 898 q 151 840 153 866 l 37 840 q 89 950 38 908 q 222 991 139 991 q 351 957 302 991 q 400 864 400 922 q 374 793 400 823 q 302 755 347 764 l 302 753 q 387 718 356 748 q 417 641 417 688 q 363 537 417 576 q 220 498 309 498 q 83 541 136 498 q 28 652 31 583 l 149 652 q 170 612 151 627 q 220 597 189 597 q 270 613 251 597 q 289 652 289 628 q 270 692 289 677 q 219 707 252 707 l 162 707 m 277 0 l 142 0 l 521 517 l 858 979 l 991 979 l 623 474 l 277 0 m 901 0 l 901 73 l 669 73 l 669 179 q 845 469 724 285 l 1021 469 l 1021 172 l 1078 172 l 1078 73 l 1021 73 l 1021 0 l 901 0 m 776 169 l 776 167 l 904 167 l 904 384 l 902 384 q 776 169 817 249 z "},"¿":{"ha":702,"x_min":56,"x_max":665,"o":"m 665 33 q 579 -162 660 -87 q 357 -237 499 -237 q 140 -166 223 -237 q 56 15 56 -96 q 199 247 56 161 q 288 318 264 286 q 311 404 311 351 l 311 445 l 452 445 l 452 391 q 424 271 455 320 q 322 178 393 221 q 236 106 260 141 q 211 21 211 72 q 253 -76 211 -38 q 364 -113 295 -113 q 476 -74 434 -113 q 524 33 519 -35 l 665 33 m 437 613 q 424 600 437 613 q 374 587 411 587 q 310 613 336 587 q 284 675 284 638 q 310 738 284 712 q 374 763 336 763 q 437 738 412 763 q 463 675 463 712 q 437 613 463 638 z "},"À":{"ha":906,"x_min":18,"x_max":888,"o":"m 728 0 l 638 264 l 265 264 l 176 0 l 18 0 l 371 979 l 535 979 l 888 0 l 728 0 m 450 816 l 304 387 l 600 387 l 454 816 l 450 816 m 385 1059 l 207 1259 l 357 1259 l 508 1059 l 385 1059 z "},"Á":{"ha":906,"x_min":18,"x_max":888,"o":"m 728 0 l 638 264 l 265 264 l 176 0 l 18 0 l 371 979 l 535 979 l 888 0 l 728 0 m 450 816 l 304 387 l 600 387 l 454 816 l 450 816 m 520 1057 l 397 1057 l 548 1257 l 699 1257 l 520 1057 z "},"Â":{"ha":906,"x_min":18,"x_max":888,"o":"m 728 0 l 638 264 l 265 264 l 176 0 l 18 0 l 371 979 l 535 979 l 888 0 l 728 0 m 450 816 l 304 387 l 600 387 l 454 816 l 450 816 m 397 1251 l 509 1251 l 698 1044 l 572 1044 l 455 1174 l 451 1174 l 334 1044 l 208 1044 l 397 1251 z "},"Ã":{"ha":906,"x_min":18,"x_max":888,"o":"m 728 0 l 638 264 l 265 264 l 176 0 l 18 0 l 371 979 l 535 979 l 888 0 l 728 0 m 450 816 l 304 387 l 600 387 l 454 816 l 450 816 m 545 1067 q 497 1078 519 1067 q 457 1102 474 1088 q 426 1132 441 1117 q 396 1156 412 1146 q 367 1166 381 1166 q 330 1142 343 1166 q 319 1076 317 1118 l 229 1076 q 266 1206 229 1159 q 365 1253 304 1253 q 415 1242 391 1253 q 455 1218 439 1232 q 486 1188 471 1203 q 515 1164 500 1174 q 543 1154 529 1154 q 577 1177 565 1154 q 589 1246 589 1201 l 680 1246 q 642 1116 680 1164 q 545 1067 604 1067 z "},"Ä":{"ha":906,"x_min":18,"x_max":888,"o":"m 728 0 l 638 264 l 265 264 l 176 0 l 18 0 l 371 979 l 535 979 l 888 0 l 728 0 m 450 816 l 304 387 l 600 387 l 454 816 l 450 816 m 323 1080 q 266 1103 289 1080 q 242 1159 242 1126 q 266 1215 242 1192 q 323 1238 289 1238 q 379 1215 356 1238 q 403 1159 403 1192 q 379 1103 403 1126 q 323 1080 356 1080 m 584 1080 q 527 1103 550 1080 q 503 1159 503 1126 q 527 1215 503 1192 q 584 1238 550 1238 q 641 1215 617 1238 q 664 1159 664 1192 q 641 1103 664 1126 q 584 1080 617 1080 z "},"Å":{"ha":906,"x_min":18,"x_max":888,"o":"m 728 0 l 638 264 l 265 264 l 176 0 l 18 0 l 371 979 l 535 979 l 888 0 l 728 0 m 450 816 l 304 387 l 600 387 l 454 816 l 450 816 m 547 1067 q 527 1048 547 1067 q 453 1029 508 1029 q 359 1067 398 1029 q 320 1161 320 1106 q 359 1254 320 1215 q 453 1293 398 1293 q 547 1254 508 1293 q 586 1161 586 1215 q 547 1067 586 1106 m 406 1114 q 415 1104 406 1114 q 453 1094 425 1094 q 500 1114 481 1094 q 520 1161 520 1133 q 500 1208 520 1188 q 453 1227 481 1227 q 406 1208 425 1227 q 386 1161 386 1188 q 406 1114 386 1133 z "},"Æ":{"ha":1354,"x_min":9,"x_max":1263,"o":"m 551 857 l 349 412 l 653 412 l 653 857 l 551 857 m 653 0 l 653 290 l 296 290 l 163 0 l 9 0 l 457 979 l 1263 979 l 1263 848 l 799 848 l 799 556 l 1238 556 l 1238 430 l 799 430 l 799 131 l 1263 131 l 1263 0 l 653 0 z "},"Ç":{"ha":966,"x_min":55,"x_max":919,"o":"m 768 304 l 919 304 q 797 81 893 164 q 553 -14 701 -2 l 522 -83 q 624 -113 586 -84 q 661 -193 661 -142 q 616 -282 661 -250 q 499 -315 572 -314 q 399 -306 434 -317 l 399 -232 q 481 -240 435 -240 q 563 -195 563 -240 q 541 -163 563 -173 q 469 -154 519 -154 l 424 -154 l 424 -100 l 459 -14 q 163 135 272 1 q 55 490 55 269 q 176 858 55 722 q 503 995 298 995 q 785 901 670 995 q 918 654 899 807 l 768 654 q 675 805 747 749 q 503 862 603 862 q 290 761 370 862 q 210 490 210 659 q 290 217 210 318 q 504 117 369 117 q 675 166 606 117 q 768 304 745 216 z "},"È":{"ha":777,"x_min":90,"x_max":711,"o":"m 711 132 l 711 0 l 90 0 l 90 979 l 711 979 l 711 848 l 242 848 l 242 562 l 686 562 l 686 435 l 242 435 l 242 132 l 711 132 m 333 1059 l 155 1259 l 305 1259 l 456 1059 l 333 1059 z "},"É":{"ha":777,"x_min":90,"x_max":711,"o":"m 711 132 l 711 0 l 90 0 l 90 979 l 711 979 l 711 848 l 242 848 l 242 562 l 686 562 l 686 435 l 242 435 l 242 132 l 711 132 m 468 1057 l 345 1057 l 496 1257 l 646 1257 l 468 1057 z "},"Ê":{"ha":777,"x_min":90,"x_max":711,"o":"m 711 132 l 711 0 l 90 0 l 90 979 l 711 979 l 711 848 l 242 848 l 242 562 l 686 562 l 686 435 l 242 435 l 242 132 l 711 132 m 345 1251 l 457 1251 l 646 1044 l 519 1044 l 403 1174 l 399 1174 l 282 1044 l 156 1044 l 345 1251 z "},"Ë":{"ha":777,"x_min":90,"x_max":711,"o":"m 711 132 l 711 0 l 90 0 l 90 979 l 711 979 l 711 848 l 242 848 l 242 562 l 686 562 l 686 435 l 242 435 l 242 132 l 711 132 m 271 1080 q 213 1103 237 1080 q 190 1159 190 1126 q 213 1215 190 1192 q 271 1238 237 1238 q 327 1215 304 1238 q 351 1159 351 1192 q 327 1103 351 1126 q 271 1080 304 1080 m 532 1080 q 474 1103 498 1080 q 451 1159 451 1126 q 474 1215 451 1192 q 532 1238 498 1238 q 588 1215 565 1238 q 612 1159 612 1192 q 588 1103 612 1126 q 532 1080 565 1080 z "},"Ì":{"ha":332,"x_min":-80,"x_max":242,"o":"m 242 0 l 90 0 l 90 979 l 242 979 l 242 0 m 98 1059 l -80 1259 l 71 1259 l 221 1059 l 98 1059 z "},"Í":{"ha":332,"x_min":90,"x_max":412,"o":"m 242 0 l 90 0 l 90 979 l 242 979 l 242 0 m 233 1057 l 111 1057 l 261 1257 l 412 1257 l 233 1057 z "},"Î":{"ha":332,"x_min":-79,"x_max":411,"o":"m 242 0 l 90 0 l 90 979 l 242 979 l 242 0 m 110 1251 l 222 1251 l 411 1044 l 285 1044 l 168 1174 l 164 1174 l 47 1044 l -79 1044 l 110 1251 z "},"Ï":{"ha":332,"x_min":-45,"x_max":377,"o":"m 242 0 l 90 0 l 90 979 l 242 979 l 242 0 m 36 1080 q -21 1103 2 1080 q -45 1159 -45 1126 q -21 1215 -45 1192 q 36 1238 2 1238 q 93 1215 69 1238 q 116 1159 116 1192 q 93 1103 116 1126 q 36 1080 69 1080 m 297 1080 q 240 1103 263 1080 q 216 1159 216 1126 q 240 1215 216 1192 q 297 1238 263 1238 q 354 1215 330 1238 q 377 1159 377 1192 q 354 1103 377 1126 q 297 1080 330 1080 z "},"Ð":{"ha":968,"x_min":20,"x_max":909,"o":"m 252 132 l 431 132 q 670 224 587 132 q 753 490 753 316 q 670 755 753 663 q 431 848 587 848 l 252 848 l 252 564 l 435 564 l 435 439 l 252 439 l 252 132 m 100 979 l 446 979 q 786 850 664 979 q 909 491 909 722 q 787 130 909 259 q 446 0 665 0 l 100 0 l 100 439 l 20 439 l 20 564 l 100 564 l 100 979 z "},"Ñ":{"ha":979,"x_min":90,"x_max":888,"o":"m 238 0 l 90 0 l 90 979 l 228 979 l 735 257 l 741 257 l 741 979 l 888 979 l 888 0 l 751 0 l 244 721 l 238 721 l 238 0 m 581 1067 q 533 1078 556 1067 q 494 1102 511 1088 q 463 1132 477 1117 q 433 1156 448 1146 q 404 1166 418 1166 q 367 1142 380 1166 q 355 1076 354 1118 l 265 1076 q 303 1206 265 1159 q 401 1253 340 1253 q 452 1242 428 1253 q 492 1218 475 1232 q 523 1188 508 1203 q 551 1164 537 1174 q 579 1154 566 1154 q 614 1177 602 1154 q 626 1246 626 1201 l 716 1246 q 678 1116 716 1164 q 581 1067 640 1067 z "},"Ò":{"ha":1026,"x_min":55,"x_max":972,"o":"m 513 995 q 848 859 724 995 q 972 489 972 722 q 848 120 972 256 q 513 -16 725 -16 q 178 120 302 -16 q 55 489 55 256 q 178 859 55 722 q 513 995 302 995 m 513 861 q 292 761 374 861 q 210 489 210 661 q 292 218 210 318 q 513 117 374 117 q 734 218 652 117 q 816 489 816 318 q 734 761 816 661 q 513 861 652 861 m 446 1059 l 267 1259 l 418 1259 l 568 1059 l 446 1059 z "},"Ó":{"ha":1026,"x_min":55,"x_max":972,"o":"m 513 995 q 848 859 724 995 q 972 489 972 722 q 848 120 972 256 q 513 -16 725 -16 q 178 120 302 -16 q 55 489 55 256 q 178 859 55 722 q 513 995 302 995 m 513 861 q 292 761 374 861 q 210 489 210 661 q 292 218 210 318 q 513 117 374 117 q 734 218 652 117 q 816 489 816 318 q 734 761 816 661 q 513 861 652 861 m 581 1057 l 458 1057 l 608 1257 l 759 1257 l 581 1057 z "},"Ô":{"ha":1026,"x_min":55,"x_max":972,"o":"m 513 995 q 848 859 724 995 q 972 489 972 722 q 848 120 972 256 q 513 -16 725 -16 q 178 120 302 -16 q 55 489 55 256 q 178 859 55 722 q 513 995 302 995 m 513 861 q 292 761 374 861 q 210 489 210 661 q 292 218 210 318 q 513 117 374 117 q 734 218 652 117 q 816 489 816 318 q 734 761 816 661 q 513 861 652 861 m 457 1251 l 570 1251 l 758 1044 l 632 1044 l 515 1174 l 511 1174 l 395 1044 l 269 1044 l 457 1251 z "},"Õ":{"ha":1026,"x_min":55,"x_max":972,"o":"m 513 995 q 848 859 724 995 q 972 489 972 722 q 848 120 972 256 q 513 -16 725 -16 q 178 120 302 -16 q 55 489 55 256 q 178 859 55 722 q 513 995 302 995 m 513 861 q 292 761 374 861 q 210 489 210 661 q 292 218 210 318 q 513 117 374 117 q 734 218 652 117 q 816 489 816 318 q 734 761 816 661 q 513 861 652 861 m 605 1067 q 557 1078 580 1067 q 518 1102 534 1088 q 487 1132 501 1117 q 457 1156 472 1146 q 427 1166 441 1166 q 391 1142 404 1166 q 379 1076 378 1118 l 289 1076 q 327 1206 289 1159 q 425 1253 364 1253 q 475 1242 452 1253 q 515 1218 499 1232 q 546 1188 532 1203 q 575 1164 561 1174 q 603 1154 589 1154 q 637 1177 625 1154 q 650 1246 650 1201 l 740 1246 q 702 1116 740 1164 q 605 1067 664 1067 z "},"Ö":{"ha":1026,"x_min":55,"x_max":972,"o":"m 513 995 q 848 859 724 995 q 972 489 972 722 q 848 120 972 256 q 513 -16 725 -16 q 178 120 302 -16 q 55 489 55 256 q 178 859 55 722 q 513 995 302 995 m 513 861 q 292 761 374 861 q 210 489 210 661 q 292 218 210 318 q 513 117 374 117 q 734 218 652 117 q 816 489 816 318 q 734 761 816 661 q 513 861 652 861 m 383 1080 q 326 1103 349 1080 q 302 1159 302 1126 q 326 1215 302 1192 q 383 1238 349 1238 q 440 1215 416 1238 q 463 1159 463 1192 q 440 1103 463 1126 q 383 1080 416 1080 m 644 1080 q 587 1103 610 1080 q 564 1159 564 1126 q 587 1215 564 1192 q 644 1238 610 1238 q 701 1215 677 1238 q 724 1159 724 1192 q 701 1103 724 1126 q 644 1080 677 1080 z "},"×":{"ha":861,"x_min":135,"x_max":726,"o":"m 431 306 l 223 98 l 135 186 l 342 394 l 135 602 l 223 690 l 431 483 l 639 690 l 726 602 l 519 394 l 726 186 l 639 98 l 431 306 z "},"Ø":{"ha":1026,"x_min":55,"x_max":972,"o":"m 755 731 l 345 168 q 513 117 416 117 q 734 218 652 117 q 816 489 816 318 q 755 731 816 635 m 285 227 l 701 795 q 513 861 625 861 q 292 761 374 861 q 210 489 210 661 q 285 227 210 326 m 929 969 l 848 859 q 972 489 972 722 q 848 120 972 256 q 513 -16 725 -16 q 260 51 368 -16 l 196 -37 l 127 13 l 194 104 q 55 489 55 241 q 178 859 55 722 q 513 995 302 995 q 787 913 675 995 l 861 1013 l 929 969 z "},"Ù":{"ha":972,"x_min":90,"x_max":882,"o":"m 242 979 l 242 357 q 307 184 242 250 q 486 119 372 119 q 666 184 601 119 q 731 357 731 250 l 731 979 l 882 979 l 882 344 q 775 83 882 183 q 486 -16 668 -16 q 197 83 304 -16 q 90 344 90 183 l 90 979 l 242 979 m 418 1059 l 240 1259 l 391 1259 l 541 1059 l 418 1059 z "},"Ú":{"ha":972,"x_min":90,"x_max":882,"o":"m 242 979 l 242 357 q 307 184 242 250 q 486 119 372 119 q 666 184 601 119 q 731 357 731 250 l 731 979 l 882 979 l 882 344 q 775 83 882 183 q 486 -16 668 -16 q 197 83 304 -16 q 90 344 90 183 l 90 979 l 242 979 m 553 1057 l 431 1057 l 581 1257 l 732 1257 l 553 1057 z "},"Û":{"ha":972,"x_min":90,"x_max":882,"o":"m 242 979 l 242 357 q 307 184 242 250 q 486 119 372 119 q 666 184 601 119 q 731 357 731 250 l 731 979 l 882 979 l 882 344 q 775 83 882 183 q 486 -16 668 -16 q 197 83 304 -16 q 90 344 90 183 l 90 979 l 242 979 m 430 1251 l 543 1251 l 731 1044 l 605 1044 l 488 1174 l 484 1174 l 368 1044 l 241 1044 l 430 1251 z "},"Ü":{"ha":972,"x_min":90,"x_max":882,"o":"m 242 979 l 242 357 q 307 184 242 250 q 486 119 372 119 q 666 184 601 119 q 731 357 731 250 l 731 979 l 882 979 l 882 344 q 775 83 882 183 q 486 -16 668 -16 q 197 83 304 -16 q 90 344 90 183 l 90 979 l 242 979 m 356 1080 q 299 1103 322 1080 q 275 1159 275 1126 q 299 1215 275 1192 q 356 1238 322 1238 q 413 1215 389 1238 q 436 1159 436 1192 q 413 1103 436 1126 q 356 1080 389 1080 m 617 1080 q 560 1103 583 1080 q 536 1159 536 1126 q 560 1215 536 1192 q 617 1238 583 1238 q 674 1215 650 1238 q 697 1159 697 1192 q 674 1103 697 1126 q 617 1080 650 1080 z "},"Ý":{"ha":877,"x_min":18,"x_max":859,"o":"m 514 0 l 362 0 l 362 401 l 18 979 l 187 979 l 437 547 l 441 547 l 691 979 l 859 979 l 514 401 l 514 0 m 505 1057 l 382 1057 l 533 1257 l 684 1257 l 505 1057 z "},"Þ":{"ha":859,"x_min":106,"x_max":795,"o":"m 106 979 l 258 979 l 258 806 l 496 806 q 645 772 578 806 q 753 671 712 738 q 795 514 795 604 q 753 357 795 425 q 642 255 711 290 q 491 221 574 221 l 258 221 l 258 0 l 106 0 l 106 979 m 258 677 l 258 349 l 453 349 q 589 391 538 349 q 640 514 640 433 q 589 636 640 594 q 453 677 538 677 l 258 677 z "},"ß":{"ha":845,"x_min":110,"x_max":774,"o":"m 256 0 l 110 0 l 110 724 q 191 914 110 843 q 408 985 271 985 q 619 916 537 985 q 701 738 701 846 q 661 595 701 656 q 554 513 621 534 l 554 509 q 715 429 656 496 q 774 262 774 363 q 691 64 774 138 q 467 -9 608 -9 q 363 0 401 -9 l 363 122 q 448 112 397 112 q 579 155 530 112 q 627 269 627 197 q 573 389 627 345 q 422 433 519 433 l 379 433 l 379 564 l 413 564 q 520 606 481 564 q 559 722 559 648 q 517 823 559 784 q 410 862 476 862 q 296 820 336 862 q 256 701 256 778 l 256 0 z "},"à":{"ha":720,"x_min":44,"x_max":650,"o":"m 322 104 q 452 151 399 104 q 505 267 505 198 l 505 323 l 329 313 q 228 280 263 308 q 192 207 192 253 q 228 132 192 160 q 322 104 263 104 m 281 -12 q 110 47 176 -12 q 44 203 44 107 q 113 352 44 296 q 309 414 182 407 l 505 425 l 505 480 q 467 573 505 540 q 361 607 429 607 q 260 579 299 607 q 211 503 221 551 l 73 503 q 158 664 79 602 q 367 726 237 726 q 573 663 496 726 q 650 492 650 599 l 650 0 l 510 0 l 510 117 l 507 117 q 414 23 476 58 q 281 -12 352 -12 m 416 815 l 294 815 l 124 1021 l 271 1021 l 416 815 z "},"á":{"ha":720,"x_min":44,"x_max":650,"o":"m 322 104 q 452 151 399 104 q 505 267 505 198 l 505 323 l 329 313 q 228 280 263 308 q 192 207 192 253 q 228 132 192 160 q 322 104 263 104 m 281 -12 q 110 47 176 -12 q 44 203 44 107 q 113 352 44 296 q 309 414 182 407 l 505 425 l 505 480 q 467 573 505 540 q 361 607 429 607 q 260 579 299 607 q 211 503 221 551 l 73 503 q 158 664 79 602 q 367 726 237 726 q 573 663 496 726 q 650 492 650 599 l 650 0 l 510 0 l 510 117 l 507 117 q 414 23 476 58 q 281 -12 352 -12 m 421 815 l 298 815 l 444 1021 l 591 1021 l 421 815 z "},"â":{"ha":720,"x_min":44,"x_max":650,"o":"m 322 104 q 452 151 399 104 q 505 267 505 198 l 505 323 l 329 313 q 228 280 263 308 q 192 207 192 253 q 228 132 192 160 q 322 104 263 104 m 281 -12 q 110 47 176 -12 q 44 203 44 107 q 113 352 44 296 q 309 414 182 407 l 505 425 l 505 480 q 467 573 505 540 q 361 607 429 607 q 260 579 299 607 q 211 503 221 551 l 73 503 q 158 664 79 602 q 367 726 237 726 q 573 663 496 726 q 650 492 650 599 l 650 0 l 510 0 l 510 117 l 507 117 q 414 23 476 58 q 281 -12 352 -12 m 416 1021 l 598 812 l 473 812 l 361 941 l 357 941 l 246 812 l 121 812 l 303 1021 l 416 1021 z "},"ã":{"ha":720,"x_min":44,"x_max":650,"o":"m 322 104 q 452 151 399 104 q 505 267 505 198 l 505 323 l 329 313 q 228 280 263 308 q 192 207 192 253 q 228 132 192 160 q 322 104 263 104 m 281 -12 q 110 47 176 -12 q 44 203 44 107 q 113 352 44 296 q 309 414 182 407 l 505 425 l 505 480 q 467 573 505 540 q 361 607 429 607 q 260 579 299 607 q 211 503 221 551 l 73 503 q 158 664 79 602 q 367 726 237 726 q 573 663 496 726 q 650 492 650 599 l 650 0 l 510 0 l 510 117 l 507 117 q 414 23 476 58 q 281 -12 352 -12 m 453 817 q 405 827 428 817 q 366 852 382 838 q 335 881 349 867 q 305 906 320 896 q 275 916 290 916 q 239 892 252 916 q 227 825 226 868 l 137 825 q 175 956 137 909 q 273 1002 212 1002 q 323 992 300 1002 q 363 967 347 982 q 394 938 380 953 q 423 913 409 924 q 451 903 437 903 q 486 927 473 903 q 498 996 498 951 l 588 996 q 550 866 588 914 q 453 817 512 817 z "},"ä":{"ha":720,"x_min":44,"x_max":650,"o":"m 322 104 q 452 151 399 104 q 505 267 505 198 l 505 323 l 329 313 q 228 280 263 308 q 192 207 192 253 q 228 132 192 160 q 322 104 263 104 m 281 -12 q 110 47 176 -12 q 44 203 44 107 q 113 352 44 296 q 309 414 182 407 l 505 425 l 505 480 q 467 573 505 540 q 361 607 429 607 q 260 579 299 607 q 211 503 221 551 l 73 503 q 158 664 79 602 q 367 726 237 726 q 573 663 496 726 q 650 492 650 599 l 650 0 l 510 0 l 510 117 l 507 117 q 414 23 476 58 q 281 -12 352 -12 m 229 820 q 172 843 195 820 q 149 899 149 866 q 172 956 149 932 q 229 979 195 979 q 286 956 262 979 q 309 899 309 932 q 286 843 309 866 q 229 820 262 820 m 490 820 q 433 843 456 820 q 410 899 410 866 q 433 956 410 932 q 490 979 456 979 q 547 956 524 979 q 570 899 570 932 q 547 843 570 866 q 490 820 524 820 z "},"å":{"ha":720,"x_min":44,"x_max":650,"o":"m 322 104 q 452 151 399 104 q 505 267 505 198 l 505 323 l 329 313 q 228 280 263 308 q 192 207 192 253 q 228 132 192 160 q 322 104 263 104 m 281 -12 q 110 47 176 -12 q 44 203 44 107 q 113 352 44 296 q 309 414 182 407 l 505 425 l 505 480 q 467 573 505 540 q 361 607 429 607 q 260 579 299 607 q 211 503 221 551 l 73 503 q 158 664 79 602 q 367 726 237 726 q 573 663 496 726 q 650 492 650 599 l 650 0 l 510 0 l 510 117 l 507 117 q 414 23 476 58 q 281 -12 352 -12 m 455 817 q 436 798 455 817 q 359 778 416 778 q 263 817 303 778 q 224 912 224 857 q 264 1008 224 968 q 359 1048 304 1048 q 455 1008 415 1048 q 495 912 495 968 q 455 817 495 857 m 312 865 q 322 855 312 865 q 359 845 332 845 q 407 865 387 845 q 427 912 427 884 q 407 960 427 941 q 359 980 387 980 q 312 960 332 980 q 292 912 292 941 q 312 865 292 884 z "},"æ":{"ha":1181,"x_min":41,"x_max":1140,"o":"m 833 -14 q 678 25 746 -14 q 575 133 610 64 l 568 133 q 459 26 527 64 q 304 -12 392 -12 q 112 46 183 -12 q 41 202 41 105 q 112 350 41 296 q 313 411 182 404 l 504 421 l 504 467 q 461 567 504 528 q 353 607 419 607 q 252 578 292 607 q 207 502 212 549 l 69 502 q 151 664 75 601 q 349 726 227 726 q 500 692 436 726 q 591 598 564 659 l 597 598 q 836 726 671 726 q 1057 630 975 726 q 1140 370 1140 533 l 1140 320 l 646 320 l 646 311 q 697 162 646 219 q 836 105 749 105 q 936 133 895 105 q 993 210 977 161 l 1133 210 q 1034 49 1117 111 q 833 -14 951 -14 m 826 608 q 701 557 751 608 q 646 422 652 505 l 994 422 q 945 557 991 507 q 826 608 900 608 m 316 103 q 449 151 395 103 q 504 267 504 199 l 504 319 l 330 309 q 223 279 260 305 q 186 208 186 252 q 222 132 186 161 q 316 103 258 103 z "},"ç":{"ha":718,"x_min":41,"x_max":686,"o":"m 545 241 l 686 241 q 606 70 675 138 q 427 -11 536 2 l 395 -83 q 496 -113 458 -84 q 534 -193 534 -142 q 489 -282 534 -250 q 372 -315 444 -314 q 272 -306 307 -317 l 272 -232 q 353 -240 308 -240 q 435 -195 435 -240 q 413 -163 435 -173 q 342 -154 391 -154 l 296 -154 l 296 -100 l 333 -12 q 119 100 198 3 q 41 357 41 198 q 132 626 41 526 q 376 726 224 726 q 592 652 509 726 q 685 468 675 578 l 545 468 q 490 566 534 528 q 378 604 446 604 q 241 537 292 604 q 190 357 190 471 q 241 175 190 241 q 379 109 292 109 q 489 144 446 109 q 545 241 532 179 z "},"è":{"ha":733,"x_min":41,"x_max":692,"o":"m 495 557 q 471 583 495 557 q 371 608 447 608 q 245 556 295 608 q 189 422 195 505 l 546 422 q 495 557 543 505 m 545 210 l 684 210 q 584 49 669 111 q 377 -14 499 -14 q 131 85 220 -14 q 41 353 41 184 q 131 624 41 522 q 371 726 220 726 q 606 630 519 726 q 692 370 692 533 l 692 320 l 189 320 l 189 311 q 241 161 189 218 q 380 105 293 105 q 486 134 442 105 q 545 210 530 162 m 428 815 l 305 815 l 136 1021 l 283 1021 l 428 815 z "},"é":{"ha":733,"x_min":41,"x_max":692,"o":"m 495 557 q 471 583 495 557 q 371 608 447 608 q 245 556 295 608 q 189 422 195 505 l 546 422 q 495 557 543 505 m 545 210 l 684 210 q 584 49 669 111 q 377 -14 499 -14 q 131 85 220 -14 q 41 353 41 184 q 131 624 41 522 q 371 726 220 726 q 606 630 519 726 q 692 370 692 533 l 692 320 l 189 320 l 189 311 q 241 161 189 218 q 380 105 293 105 q 486 134 442 105 q 545 210 530 162 m 433 815 l 310 815 l 455 1021 l 602 1021 l 433 815 z "},"ê":{"ha":733,"x_min":41,"x_max":692,"o":"m 495 557 q 471 583 495 557 q 371 608 447 608 q 245 556 295 608 q 189 422 195 505 l 546 422 q 495 557 543 505 m 545 210 l 684 210 q 584 49 669 111 q 377 -14 499 -14 q 131 85 220 -14 q 41 353 41 184 q 131 624 41 522 q 371 726 220 726 q 606 630 519 726 q 692 370 692 533 l 692 320 l 189 320 l 189 311 q 241 161 189 218 q 380 105 293 105 q 486 134 442 105 q 545 210 530 162 m 427 1021 l 610 812 l 484 812 l 373 941 l 369 941 l 258 812 l 132 812 l 315 1021 l 427 1021 z "},"ë":{"ha":733,"x_min":41,"x_max":692,"o":"m 495 557 q 471 583 495 557 q 371 608 447 608 q 245 556 295 608 q 189 422 195 505 l 546 422 q 495 557 543 505 m 545 210 l 684 210 q 584 49 669 111 q 377 -14 499 -14 q 131 85 220 -14 q 41 353 41 184 q 131 624 41 522 q 371 726 220 726 q 606 630 519 726 q 692 370 692 533 l 692 320 l 189 320 l 189 311 q 241 161 189 218 q 380 105 293 105 q 486 134 442 105 q 545 210 530 162 m 241 820 q 183 843 207 820 q 160 899 160 866 q 183 956 160 932 q 241 979 207 979 q 297 956 274 979 q 321 899 321 932 q 297 843 321 866 q 241 820 274 820 m 502 820 q 445 843 468 820 q 421 899 421 866 q 445 956 421 932 q 502 979 468 979 q 558 956 535 979 q 582 899 582 932 q 558 843 582 866 q 502 820 535 820 z "},"ì":{"ha":301,"x_min":-85,"x_max":224,"o":"m 77 0 l 77 713 l 224 713 l 224 0 l 77 0 m 208 815 l 85 815 l -85 1021 l 62 1021 l 208 815 z "},"í":{"ha":301,"x_min":77,"x_max":382,"o":"m 77 0 l 77 713 l 224 713 l 224 0 l 77 0 m 212 815 l 90 815 l 235 1021 l 382 1021 l 212 815 z "},"î":{"ha":301,"x_min":-88,"x_max":389,"o":"m 77 0 l 77 713 l 224 713 l 224 0 l 77 0 m 207 1021 l 389 812 l 264 812 l 153 941 l 149 941 l 37 812 l -88 812 l 94 1021 l 207 1021 z "},"ï":{"ha":301,"x_min":-60,"x_max":361,"o":"m 77 0 l 77 713 l 224 713 l 224 0 l 77 0 m 20 820 q -37 843 -14 820 q -60 899 -60 866 q -37 956 -60 932 q 20 979 -14 979 q 77 956 54 979 q 100 899 100 932 q 77 843 100 866 q 20 820 54 820 m 281 820 q 224 843 248 820 q 201 899 201 866 q 224 956 201 932 q 281 979 248 979 q 338 956 315 979 q 361 899 361 932 q 338 843 361 866 q 281 820 315 820 z "},"ð":{"ha":779,"x_min":51,"x_max":720,"o":"m 387 -12 q 141 83 232 -12 q 51 345 51 179 q 135 598 51 504 q 357 692 218 692 q 470 664 416 692 q 547 592 524 635 l 557 592 q 511 702 544 644 q 441 804 478 761 l 257 744 l 229 826 l 379 875 q 237 998 337 919 l 415 998 q 503 916 462 960 l 671 971 l 700 890 l 568 847 q 720 382 720 650 q 630 93 720 199 q 387 -12 540 -12 m 389 576 q 252 514 302 576 q 201 344 201 451 q 252 175 201 237 q 389 112 302 112 q 526 175 475 112 q 577 344 577 237 q 526 513 577 450 q 389 576 474 576 z "},"ñ":{"ha":756,"x_min":73,"x_max":688,"o":"m 73 0 l 73 713 l 212 713 l 212 594 l 216 594 q 302 691 245 656 q 440 726 359 726 q 623 655 557 726 q 688 462 688 585 l 688 0 l 541 0 l 541 433 q 502 557 541 515 q 389 600 464 600 q 265 549 311 600 q 219 416 219 499 l 219 0 l 73 0 m 473 817 q 426 827 448 817 q 386 852 403 838 q 355 881 370 867 q 325 906 340 896 q 296 916 310 916 q 259 892 272 916 q 248 825 246 868 l 157 825 q 195 956 157 909 q 294 1002 233 1002 q 344 992 320 1002 q 384 967 368 982 q 415 938 400 953 q 444 913 429 924 q 471 903 458 903 q 506 927 494 903 q 518 996 518 951 l 608 996 q 570 866 608 914 q 473 817 532 817 z "},"ò":{"ha":758,"x_min":41,"x_max":718,"o":"m 625 86 q 579 36 625 86 q 379 -14 533 -14 q 133 86 225 -14 q 41 357 41 185 q 133 627 41 528 q 379 726 225 726 q 625 627 533 726 q 718 357 718 528 q 625 86 718 185 m 379 107 q 517 173 467 107 q 568 357 568 239 q 517 540 568 474 q 379 606 466 606 q 241 540 292 606 q 190 357 190 474 q 241 173 190 239 q 379 107 292 107 m 436 815 l 313 815 l 144 1021 l 291 1021 l 436 815 z "},"ó":{"ha":758,"x_min":41,"x_max":718,"o":"m 625 86 q 579 36 625 86 q 379 -14 533 -14 q 133 86 225 -14 q 41 357 41 185 q 133 627 41 528 q 379 726 225 726 q 625 627 533 726 q 718 357 718 528 q 625 86 718 185 m 379 107 q 517 173 467 107 q 568 357 568 239 q 517 540 568 474 q 379 606 466 606 q 241 540 292 606 q 190 357 190 474 q 241 173 190 239 q 379 107 292 107 m 441 815 l 318 815 l 463 1021 l 610 1021 l 441 815 z "},"ô":{"ha":758,"x_min":41,"x_max":718,"o":"m 625 86 q 579 36 625 86 q 379 -14 533 -14 q 133 86 225 -14 q 41 357 41 185 q 133 627 41 528 q 379 726 225 726 q 625 627 533 726 q 718 357 718 528 q 625 86 718 185 m 379 107 q 517 173 467 107 q 568 357 568 239 q 517 540 568 474 q 379 606 466 606 q 241 540 292 606 q 190 357 190 474 q 241 173 190 239 q 379 107 292 107 m 435 1021 l 618 812 l 492 812 l 381 941 l 377 941 l 266 812 l 140 812 l 323 1021 l 435 1021 z "},"õ":{"ha":758,"x_min":41,"x_max":718,"o":"m 625 86 q 579 36 625 86 q 379 -14 533 -14 q 133 86 225 -14 q 41 357 41 185 q 133 627 41 528 q 379 726 225 726 q 625 627 533 726 q 718 357 718 528 q 625 86 718 185 m 379 107 q 517 173 467 107 q 568 357 568 239 q 517 540 568 474 q 379 606 466 606 q 241 540 292 606 q 190 357 190 474 q 241 173 190 239 q 379 107 292 107 m 473 817 q 425 827 448 817 q 386 852 402 838 q 354 881 369 867 q 325 906 340 896 q 295 916 309 916 q 258 892 271 916 q 247 825 245 868 l 157 825 q 194 956 157 909 q 293 1002 232 1002 q 343 992 319 1002 q 383 967 367 982 q 414 938 399 953 q 443 913 429 924 q 471 903 457 903 q 505 927 493 903 q 517 996 517 951 l 608 996 q 570 866 608 914 q 473 817 532 817 z "},"ö":{"ha":758,"x_min":41,"x_max":718,"o":"m 625 86 q 579 36 625 86 q 379 -14 533 -14 q 133 86 225 -14 q 41 357 41 185 q 133 627 41 528 q 379 726 225 726 q 625 627 533 726 q 718 357 718 528 q 625 86 718 185 m 379 107 q 517 173 467 107 q 568 357 568 239 q 517 540 568 474 q 379 606 466 606 q 241 540 292 606 q 190 357 190 474 q 241 173 190 239 q 379 107 292 107 m 249 820 q 192 843 215 820 q 168 899 168 866 q 192 956 168 932 q 249 979 215 979 q 306 956 282 979 q 329 899 329 932 q 306 843 329 866 q 249 820 282 820 m 510 820 q 453 843 476 820 q 429 899 429 866 q 453 956 429 932 q 510 979 476 979 q 567 956 543 979 q 590 899 590 932 q 567 843 590 866 q 510 820 543 820 z "},"÷":{"ha":861,"x_min":79,"x_max":783,"o":"m 431 546 q 363 572 389 546 q 336 639 336 597 q 363 706 336 680 q 431 732 390 732 q 499 706 473 732 q 526 639 526 680 q 499 572 526 598 q 431 546 473 546 m 431 46 q 363 72 389 46 q 336 139 336 98 q 363 206 336 180 q 431 232 390 232 q 499 206 473 232 q 526 139 526 180 q 499 72 526 98 q 431 46 473 46 m 783 330 l 79 330 l 79 448 l 783 448 l 783 330 z "},"ø":{"ha":758,"x_min":41,"x_max":718,"o":"m 534 515 l 283 134 q 379 107 324 107 q 517 173 467 107 q 568 357 568 239 q 534 515 568 452 m 227 194 l 479 576 q 379 606 436 606 q 241 540 292 606 q 190 357 190 474 q 227 194 190 258 m 659 707 l 614 638 q 718 357 718 537 q 625 86 718 185 q 379 -14 533 -14 q 212 25 286 -14 l 174 -33 l 106 11 l 146 72 q 41 357 41 172 q 133 627 41 528 q 379 726 225 726 q 551 685 477 726 l 592 747 l 659 707 z "},"ù":{"ha":756,"x_min":69,"x_max":684,"o":"m 684 713 l 684 0 l 544 0 l 544 121 l 541 121 q 319 -13 479 -13 q 136 58 203 -13 q 69 252 69 129 l 69 713 l 216 713 l 216 280 q 254 156 216 198 q 368 113 293 113 q 492 163 447 113 q 538 298 538 214 l 538 713 l 684 713 m 434 815 l 311 815 l 142 1021 l 289 1021 l 434 815 z "},"ú":{"ha":756,"x_min":69,"x_max":684,"o":"m 684 713 l 684 0 l 544 0 l 544 121 l 541 121 q 319 -13 479 -13 q 136 58 203 -13 q 69 252 69 129 l 69 713 l 216 713 l 216 280 q 254 156 216 198 q 368 113 293 113 q 492 163 447 113 q 538 298 538 214 l 538 713 l 684 713 m 439 815 l 316 815 l 461 1021 l 608 1021 l 439 815 z "},"û":{"ha":756,"x_min":69,"x_max":684,"o":"m 684 713 l 684 0 l 544 0 l 544 121 l 541 121 q 319 -13 479 -13 q 136 58 203 -13 q 69 252 69 129 l 69 713 l 216 713 l 216 280 q 254 156 216 198 q 368 113 293 113 q 492 163 447 113 q 538 298 538 214 l 538 713 l 684 713 m 433 1021 l 616 812 l 490 812 l 379 941 l 375 941 l 264 812 l 138 812 l 321 1021 l 433 1021 z "},"ü":{"ha":756,"x_min":69,"x_max":684,"o":"m 684 713 l 684 0 l 544 0 l 544 121 l 541 121 q 319 -13 479 -13 q 136 58 203 -13 q 69 252 69 129 l 69 713 l 216 713 l 216 280 q 254 156 216 198 q 368 113 293 113 q 492 163 447 113 q 538 298 538 214 l 538 713 l 684 713 m 247 820 q 190 843 213 820 q 166 899 166 866 q 190 956 166 932 q 247 979 213 979 q 303 956 280 979 q 327 899 327 932 q 303 843 327 866 q 247 820 280 820 m 508 820 q 451 843 474 820 q 427 899 427 866 q 451 956 427 932 q 508 979 474 979 q 565 956 541 979 q 588 899 588 932 q 565 843 588 866 q 508 820 541 820 z "},"ý":{"ha":703,"x_min":13,"x_max":690,"o":"m 143 -266 q 83 -262 102 -266 l 83 -144 q 131 -146 94 -146 q 212 -123 182 -146 q 258 -45 241 -100 q 264 -22 258 -44 l 271 -1 l 13 713 l 172 713 l 353 133 l 355 133 l 536 713 l 690 713 l 422 -37 q 316 -216 377 -167 q 143 -266 255 -266 m 414 815 l 291 815 l 436 1021 l 583 1021 l 414 815 z "},"þ":{"ha":791,"x_min":78,"x_max":749,"o":"m 454 725 q 669 626 589 725 q 749 357 749 527 q 669 87 749 187 q 454 -12 589 -12 q 320 19 378 -12 q 235 108 262 51 l 224 108 l 224 -232 l 78 -232 l 78 979 l 220 979 l 220 595 l 231 595 q 321 690 262 656 q 454 725 380 725 m 410 112 q 549 177 498 112 q 599 357 599 242 q 549 536 599 471 q 410 602 498 602 q 272 535 323 602 q 221 357 221 469 q 272 178 221 243 q 410 112 323 112 z "},"ÿ":{"ha":703,"x_min":13,"x_max":690,"o":"m 143 -266 q 83 -262 102 -266 l 83 -144 q 131 -146 94 -146 q 212 -123 182 -146 q 258 -45 241 -100 q 264 -22 258 -44 l 271 -1 l 13 713 l 172 713 l 353 133 l 355 133 l 536 713 l 690 713 l 422 -37 q 316 -216 377 -167 q 143 -266 255 -266 m 222 820 q 164 843 188 820 q 141 899 141 866 q 164 956 141 932 q 222 979 188 979 q 278 956 255 979 q 302 899 302 932 q 278 843 302 866 q 222 820 255 820 m 483 820 q 426 843 449 820 q 402 899 402 866 q 426 956 402 932 q 483 979 449 979 q 539 956 516 979 q 563 899 563 932 q 539 843 563 866 q 483 820 516 820 z "},"Ā":{"ha":906,"x_min":18,"x_max":888,"o":"m 728 0 l 638 264 l 265 264 l 176 0 l 18 0 l 371 979 l 535 979 l 888 0 l 728 0 m 450 816 l 304 387 l 600 387 l 454 816 l 450 816 m 675 1191 l 675 1105 l 231 1105 l 231 1191 l 675 1191 z "},"ā":{"ha":720,"x_min":44,"x_max":650,"o":"m 322 104 q 452 151 399 104 q 505 267 505 198 l 505 323 l 329 313 q 228 280 263 308 q 192 207 192 253 q 228 132 192 160 q 322 104 263 104 m 281 -12 q 110 47 176 -12 q 44 203 44 107 q 113 352 44 296 q 309 414 182 407 l 505 425 l 505 480 q 467 573 505 540 q 361 607 429 607 q 260 579 299 607 q 211 503 221 551 l 73 503 q 158 664 79 602 q 367 726 237 726 q 573 663 496 726 q 650 492 650 599 l 650 0 l 510 0 l 510 117 l 507 117 q 414 23 476 58 q 281 -12 352 -12 m 562 937 l 562 850 l 157 850 l 157 937 l 562 937 z "},"Ă":{"ha":906,"x_min":18,"x_max":888,"o":"m 728 0 l 638 264 l 265 264 l 176 0 l 18 0 l 371 979 l 535 979 l 888 0 l 728 0 m 450 816 l 304 387 l 600 387 l 454 816 l 450 816 m 227 1256 l 326 1256 q 366 1164 331 1198 q 453 1130 400 1130 q 541 1164 506 1130 q 581 1256 575 1198 l 680 1256 q 613 1106 673 1166 q 453 1045 552 1045 q 293 1106 354 1045 q 227 1256 233 1166 z "},"ă":{"ha":720,"x_min":44,"x_max":650,"o":"m 322 104 q 452 151 399 104 q 505 267 505 198 l 505 323 l 329 313 q 228 280 263 308 q 192 207 192 253 q 228 132 192 160 q 322 104 263 104 m 281 -12 q 110 47 176 -12 q 44 203 44 107 q 113 352 44 296 q 309 414 182 407 l 505 425 l 505 480 q 467 573 505 540 q 361 607 429 607 q 260 579 299 607 q 211 503 221 551 l 73 503 q 158 664 79 602 q 367 726 237 726 q 573 663 496 726 q 650 492 650 599 l 650 0 l 510 0 l 510 117 l 507 117 q 414 23 476 58 q 281 -12 352 -12 m 132 1020 l 231 1020 q 266 926 231 962 q 359 890 302 890 q 451 926 416 890 q 487 1020 487 962 l 586 1020 q 524 867 585 926 q 359 807 463 807 q 194 867 255 807 q 132 1020 132 926 z "},"Ą":{"ha":906,"x_min":18,"x_max":888,"o":"m 450 816 l 304 387 l 600 387 l 454 816 l 450 816 m 865 -287 q 779 -300 836 -300 q 660 -262 707 -300 q 614 -165 614 -225 q 726 5 614 -66 l 638 264 l 265 264 l 176 0 l 18 0 l 371 979 l 535 979 l 888 1 l 871 -1 q 767 -63 805 -27 q 730 -136 730 -100 q 752 -185 730 -168 q 811 -202 775 -202 q 865 -196 839 -202 l 865 -287 z "},"ą":{"ha":720,"x_min":44,"x_max":650,"o":"m 322 104 q 452 151 399 104 q 505 267 505 198 l 505 322 l 329 311 q 228 280 263 307 q 192 207 192 253 q 228 132 192 160 q 322 104 263 104 m 640 -276 q 554 -289 612 -289 q 438 -253 484 -289 q 393 -159 393 -217 q 427 -61 393 -104 q 510 9 461 -18 l 510 117 l 507 117 q 414 23 476 58 q 281 -12 352 -12 q 110 47 176 -12 q 44 203 44 107 q 113 351 44 296 q 309 413 182 406 l 505 424 l 505 478 q 468 570 505 537 q 363 602 431 602 q 262 575 302 602 q 214 502 222 548 l 77 502 q 161 661 80 599 q 368 722 243 722 q 573 658 495 722 q 650 489 650 594 l 650 -1 l 638 -4 q 547 -55 585 -22 q 509 -128 509 -88 q 530 -176 509 -159 q 587 -193 551 -193 q 640 -187 614 -193 l 640 -276 z "},"Ć":{"ha":966,"x_min":55,"x_max":919,"o":"m 503 -16 q 176 120 297 -16 q 55 490 55 256 q 176 858 55 722 q 503 995 298 995 q 785 901 670 995 q 918 654 899 807 l 768 654 q 675 805 747 749 q 503 862 603 862 q 290 761 370 862 q 210 490 210 659 q 290 217 210 318 q 504 117 369 117 q 675 166 606 117 q 768 304 745 216 l 919 304 q 782 68 891 153 q 503 -16 672 -16 m 568 1059 l 445 1059 l 595 1259 l 746 1259 l 568 1059 z "},"ć":{"ha":718,"x_min":41,"x_max":686,"o":"m 685 468 l 545 468 q 490 566 534 528 q 378 604 446 604 q 241 537 292 604 q 190 357 190 471 q 241 175 190 241 q 379 109 292 109 q 489 144 446 109 q 545 241 532 179 l 686 241 q 590 57 675 127 q 378 -14 506 -14 q 132 86 224 -14 q 41 357 41 185 q 132 626 41 526 q 376 726 224 726 q 592 652 509 726 q 685 468 675 578 m 434 815 l 311 815 l 456 1021 l 604 1021 l 434 815 z "},"Ĉ":{"ha":966,"x_min":55,"x_max":919,"o":"m 503 -16 q 176 120 297 -16 q 55 490 55 256 q 176 858 55 722 q 503 995 298 995 q 785 901 670 995 q 918 654 899 807 l 768 654 q 675 805 747 749 q 503 862 603 862 q 290 761 370 862 q 210 490 210 659 q 290 217 210 318 q 504 117 369 117 q 675 166 606 117 q 768 304 745 216 l 919 304 q 782 68 891 153 q 503 -16 672 -16 m 444 1252 l 557 1252 l 745 1045 l 619 1045 l 503 1175 l 498 1175 l 382 1045 l 256 1045 l 444 1252 z "},"ĉ":{"ha":718,"x_min":41,"x_max":686,"o":"m 685 468 l 545 468 q 490 566 534 528 q 378 604 446 604 q 241 537 292 604 q 190 357 190 471 q 241 175 190 241 q 379 109 292 109 q 489 144 446 109 q 545 241 532 179 l 686 241 q 590 57 675 127 q 378 -14 506 -14 q 132 86 224 -14 q 41 357 41 185 q 132 626 41 526 q 376 726 224 726 q 592 652 509 726 q 685 468 675 578 m 429 1021 l 611 812 l 486 812 l 374 941 l 370 941 l 259 812 l 134 812 l 316 1021 l 429 1021 z "},"Ċ":{"ha":966,"x_min":55,"x_max":919,"o":"m 503 -16 q 176 120 297 -16 q 55 490 55 256 q 176 858 55 722 q 503 995 298 995 q 785 901 670 995 q 918 654 899 807 l 768 654 q 675 805 747 749 q 503 862 603 862 q 290 761 370 862 q 210 490 210 659 q 290 217 210 318 q 504 117 369 117 q 675 166 606 117 q 768 304 745 216 l 919 304 q 782 68 891 153 q 503 -16 672 -16 m 564 1096 q 551 1083 564 1096 q 500 1070 538 1070 q 437 1096 463 1070 q 412 1159 412 1122 q 437 1222 412 1196 q 500 1248 463 1248 q 564 1222 538 1248 q 589 1159 589 1196 q 564 1096 589 1122 z "},"ċ":{"ha":718,"x_min":41,"x_max":686,"o":"m 685 468 l 545 468 q 490 566 534 528 q 378 604 446 604 q 241 537 292 604 q 190 357 190 471 q 241 175 190 241 q 379 109 292 109 q 489 144 446 109 q 545 241 532 179 l 686 241 q 590 57 675 127 q 378 -14 506 -14 q 132 86 224 -14 q 41 357 41 185 q 132 626 41 526 q 376 726 224 726 q 592 652 509 726 q 685 468 675 578 m 436 846 q 423 833 436 846 q 372 820 410 820 q 308 846 335 820 q 281 910 281 873 q 308 973 281 947 q 372 1000 335 1000 q 436 973 410 1000 q 463 910 463 947 q 436 846 463 873 z "},"Č":{"ha":966,"x_min":55,"x_max":919,"o":"m 503 -16 q 176 120 297 -16 q 55 490 55 256 q 176 858 55 722 q 503 995 298 995 q 785 901 670 995 q 918 654 899 807 l 768 654 q 675 805 747 749 q 503 862 603 862 q 290 761 370 862 q 210 490 210 659 q 290 217 210 318 q 504 117 369 117 q 675 166 606 117 q 768 304 745 216 l 919 304 q 782 68 891 153 q 503 -16 672 -16 m 444 1050 l 256 1257 l 382 1257 l 498 1127 l 503 1127 l 619 1257 l 745 1257 l 557 1050 l 444 1050 z "},"č":{"ha":718,"x_min":41,"x_max":686,"o":"m 685 468 l 545 468 q 490 566 534 528 q 378 604 446 604 q 241 537 292 604 q 190 357 190 471 q 241 175 190 241 q 379 109 292 109 q 489 144 446 109 q 545 241 532 179 l 686 241 q 590 57 675 127 q 378 -14 506 -14 q 132 86 224 -14 q 41 357 41 185 q 132 626 41 526 q 376 726 224 726 q 592 652 509 726 q 685 468 675 578 m 429 812 l 316 812 l 134 1021 l 259 1021 l 370 890 l 374 890 l 486 1021 l 611 1021 l 429 812 z "},"Ď":{"ha":953,"x_min":90,"x_max":899,"o":"m 90 979 l 435 979 q 776 850 654 979 q 899 491 899 722 q 777 130 899 259 q 435 0 654 0 l 90 0 l 90 979 m 242 848 l 242 132 l 421 132 q 660 224 577 132 q 743 490 743 316 q 660 755 743 663 q 421 848 576 848 l 242 848 m 340 1049 l 151 1256 l 277 1256 l 394 1126 l 398 1126 l 515 1256 l 641 1256 l 452 1049 l 340 1049 z "},"ď":{"ha":907,"x_min":41,"x_max":925,"o":"m 812 979 l 925 979 l 903 654 l 812 654 l 812 979 m 340 -12 q 123 88 205 -12 q 41 357 41 189 q 122 625 41 525 q 339 725 204 725 q 473 690 414 725 q 563 595 532 655 l 566 595 l 566 979 l 713 979 l 713 0 l 570 0 l 570 121 l 568 121 q 476 23 536 59 q 340 -12 417 -12 m 379 602 q 241 535 292 602 q 191 357 191 469 q 241 178 191 243 q 379 112 292 112 q 515 179 464 112 q 567 357 567 245 q 515 534 567 467 q 379 602 464 602 z "},"Đ":{"ha":963,"x_min":20,"x_max":909,"o":"m 252 132 l 431 132 q 670 224 587 132 q 753 490 753 316 q 670 755 753 663 q 431 848 587 848 l 252 848 l 252 564 l 435 564 l 435 439 l 252 439 l 252 132 m 100 979 l 446 979 q 786 850 664 979 q 909 491 909 722 q 787 130 909 259 q 446 0 665 0 l 100 0 l 100 439 l 20 439 l 20 564 l 100 564 l 100 979 z "},"đ":{"ha":804,"x_min":41,"x_max":791,"o":"m 379 117 q 515 182 464 117 q 567 357 567 248 q 515 530 567 465 q 379 596 464 596 q 242 531 294 596 q 191 357 191 465 q 242 182 191 247 q 379 117 294 117 m 791 909 l 791 821 l 713 821 l 713 0 l 570 0 l 570 121 l 568 121 q 477 26 536 60 q 340 -7 418 -7 q 123 92 206 -7 q 41 357 41 192 q 123 621 41 522 q 339 721 205 721 q 474 688 415 721 q 563 595 532 654 l 566 595 l 566 821 l 412 821 l 412 909 l 566 909 l 566 979 l 713 979 l 713 909 l 791 909 z "},"Ē":{"ha":777,"x_min":90,"x_max":711,"o":"m 711 132 l 711 0 l 90 0 l 90 979 l 711 979 l 711 848 l 242 848 l 242 562 l 686 562 l 686 435 l 242 435 l 242 132 l 711 132 m 623 1191 l 623 1105 l 179 1105 l 179 1191 l 623 1191 z "},"ē":{"ha":733,"x_min":41,"x_max":692,"o":"m 495 557 q 471 583 495 557 q 371 608 447 608 q 245 556 295 608 q 189 422 195 505 l 546 422 q 495 557 543 505 m 545 210 l 684 210 q 584 49 669 111 q 377 -14 499 -14 q 131 85 220 -14 q 41 353 41 184 q 131 624 41 522 q 371 726 220 726 q 606 630 519 726 q 692 370 692 533 l 692 320 l 189 320 l 189 311 q 241 161 189 218 q 380 105 293 105 q 486 134 442 105 q 545 210 530 162 m 574 937 l 574 850 l 168 850 l 168 937 l 574 937 z "},"Ĕ":{"ha":777,"x_min":90,"x_max":711,"o":"m 711 132 l 711 0 l 90 0 l 90 979 l 711 979 l 711 848 l 242 848 l 242 562 l 686 562 l 686 435 l 242 435 l 242 132 l 711 132 m 174 1256 l 273 1256 q 313 1164 279 1198 q 401 1130 348 1130 q 488 1164 454 1130 q 528 1256 523 1198 l 627 1256 q 561 1106 621 1166 q 401 1045 500 1045 q 241 1106 302 1045 q 174 1256 180 1166 z "},"ĕ":{"ha":733,"x_min":41,"x_max":692,"o":"m 495 557 q 471 583 495 557 q 371 608 447 608 q 245 556 295 608 q 189 422 195 505 l 546 422 q 495 557 543 505 m 545 210 l 684 210 q 584 49 669 111 q 377 -14 499 -14 q 131 85 220 -14 q 41 353 41 184 q 131 624 41 522 q 371 726 220 726 q 606 630 519 726 q 692 370 692 533 l 692 320 l 189 320 l 189 311 q 241 161 189 218 q 380 105 293 105 q 486 134 442 105 q 545 210 530 162 m 143 1020 l 242 1020 q 278 926 242 962 q 370 890 313 890 q 463 926 427 890 q 498 1020 498 962 l 597 1020 q 535 867 597 926 q 370 807 474 807 q 205 867 267 807 q 143 1020 144 926 z "},"Ė":{"ha":777,"x_min":90,"x_max":711,"o":"m 711 132 l 711 0 l 90 0 l 90 979 l 711 979 l 711 848 l 242 848 l 242 562 l 686 562 l 686 435 l 242 435 l 242 132 l 711 132 m 464 1095 q 451 1082 464 1095 q 401 1069 438 1069 q 338 1095 363 1069 q 312 1158 312 1121 q 338 1221 312 1195 q 401 1246 363 1246 q 464 1221 438 1246 q 490 1158 490 1195 q 464 1095 490 1121 z "},"ė":{"ha":733,"x_min":41,"x_max":692,"o":"m 495 557 q 471 583 495 557 q 371 608 447 608 q 245 556 295 608 q 189 422 195 505 l 546 422 q 495 557 543 505 m 545 210 l 684 210 q 584 49 669 111 q 377 -14 499 -14 q 131 85 220 -14 q 41 353 41 184 q 131 624 41 522 q 371 726 220 726 q 606 630 519 726 q 692 370 692 533 l 692 320 l 189 320 l 189 311 q 241 161 189 218 q 380 105 293 105 q 486 134 442 105 q 545 210 530 162 m 435 846 q 421 833 435 846 q 371 820 408 820 q 307 846 334 820 q 280 910 280 873 q 307 973 280 947 q 371 1000 334 1000 q 435 973 408 1000 q 461 910 461 947 q 435 846 461 873 z "},"Ę":{"ha":777,"x_min":90,"x_max":711,"o":"m 90 0 l 90 979 l 711 979 l 711 848 l 242 848 l 242 562 l 686 562 l 686 435 l 242 435 l 242 132 l 711 132 l 711 7 l 694 2 q 586 -61 626 -23 q 547 -136 547 -99 q 569 -185 547 -168 q 628 -202 592 -202 q 682 -196 656 -202 l 682 -287 q 595 -300 653 -300 q 477 -262 524 -300 q 431 -165 431 -225 q 532 -3 431 -74 l 532 0 l 90 0 z "},"ę":{"ha":733,"x_min":41,"x_max":692,"o":"m 496 -289 q 380 -253 425 -289 q 334 -159 334 -217 q 425 -12 334 -77 l 425 -9 q 377 -14 406 -14 q 131 85 220 -14 q 41 353 41 184 q 131 624 41 522 q 371 726 220 726 q 606 630 519 726 q 692 370 692 533 l 692 320 l 189 320 l 189 311 q 241 161 189 218 q 380 105 293 105 q 486 134 442 105 q 545 210 530 162 l 684 210 q 560 27 668 114 q 449 -127 449 -61 q 471 -176 449 -159 q 528 -193 493 -193 q 581 -187 555 -193 l 581 -276 q 496 -289 554 -289 m 495 557 q 471 583 495 557 q 371 608 447 608 q 245 556 295 608 q 189 422 195 505 l 546 422 q 495 557 543 505 z "},"Ě":{"ha":777,"x_min":90,"x_max":711,"o":"m 711 132 l 711 0 l 90 0 l 90 979 l 711 979 l 711 848 l 242 848 l 242 562 l 686 562 l 686 435 l 242 435 l 242 132 l 711 132 m 345 1049 l 156 1256 l 282 1256 l 399 1126 l 403 1126 l 519 1256 l 646 1256 l 457 1049 l 345 1049 z "},"ě":{"ha":733,"x_min":41,"x_max":692,"o":"m 495 557 q 471 583 495 557 q 371 608 447 608 q 245 556 295 608 q 189 422 195 505 l 546 422 q 495 557 543 505 m 545 210 l 684 210 q 584 49 669 111 q 377 -14 499 -14 q 131 85 220 -14 q 41 353 41 184 q 131 624 41 522 q 371 726 220 726 q 606 630 519 726 q 692 370 692 533 l 692 320 l 189 320 l 189 311 q 241 161 189 218 q 380 105 293 105 q 486 134 442 105 q 545 210 530 162 m 427 812 l 315 812 l 132 1021 l 258 1021 l 369 890 l 373 890 l 484 1021 l 610 1021 l 427 812 z "},"Ĝ":{"ha":991,"x_min":55,"x_max":933,"o":"m 933 407 q 822 96 933 208 q 511 -16 710 -16 q 178 121 301 -16 q 55 494 55 258 q 177 860 55 725 q 509 995 300 995 q 786 906 673 995 q 926 671 900 817 l 770 671 q 674 812 743 762 q 510 862 606 862 q 290 765 370 862 q 210 495 210 667 q 292 218 210 319 q 513 117 373 117 q 707 186 631 117 q 783 367 782 256 l 783 384 l 530 384 l 530 507 l 933 507 l 933 407 m 450 1251 l 563 1251 l 751 1044 l 625 1044 l 509 1174 l 505 1174 l 388 1044 l 262 1044 l 450 1251 z "},"ĝ":{"ha":785,"x_min":41,"x_max":713,"o":"m 376 119 q 514 184 463 119 q 566 359 566 249 q 514 535 566 469 q 376 602 463 602 q 241 536 292 602 q 191 359 191 470 q 241 183 191 248 q 376 119 292 119 m 378 -269 q 166 -209 253 -269 q 66 -56 80 -149 l 214 -56 q 275 -127 229 -100 q 383 -155 321 -155 q 517 -110 468 -155 q 566 8 566 -66 l 566 125 l 563 125 q 472 32 532 66 q 337 -3 412 -3 q 121 95 202 -3 q 41 359 41 193 q 122 626 41 528 q 340 725 203 725 q 475 689 416 725 q 568 591 535 654 l 570 591 l 570 713 l 713 713 l 713 13 q 622 -192 713 -115 q 378 -269 530 -269 m 435 1021 l 618 812 l 492 812 l 381 941 l 377 941 l 266 812 l 140 812 l 323 1021 l 435 1021 z "},"Ğ":{"ha":991,"x_min":55,"x_max":933,"o":"m 933 407 q 822 96 933 208 q 511 -16 710 -16 q 178 121 301 -16 q 55 494 55 258 q 177 860 55 725 q 509 995 300 995 q 786 906 673 995 q 926 671 900 817 l 770 671 q 674 812 743 762 q 510 862 606 862 q 290 765 370 862 q 210 495 210 667 q 292 218 210 319 q 513 117 373 117 q 707 186 631 117 q 783 367 782 256 l 783 384 l 530 384 l 530 507 l 933 507 l 933 407 m 280 1256 l 379 1256 q 419 1164 385 1198 q 507 1130 454 1130 q 594 1164 559 1130 q 634 1256 629 1198 l 733 1256 q 666 1106 727 1166 q 507 1045 606 1045 q 347 1106 408 1045 q 280 1256 286 1166 z "},"ğ":{"ha":785,"x_min":41,"x_max":713,"o":"m 376 119 q 514 184 463 119 q 566 359 566 249 q 514 535 566 469 q 376 602 463 602 q 241 536 292 602 q 191 359 191 470 q 241 183 191 248 q 376 119 292 119 m 378 -269 q 166 -209 253 -269 q 66 -56 80 -149 l 214 -56 q 275 -127 229 -100 q 383 -155 321 -155 q 517 -110 468 -155 q 566 8 566 -66 l 566 125 l 563 125 q 472 32 532 66 q 337 -3 412 -3 q 121 95 202 -3 q 41 359 41 193 q 122 626 41 528 q 340 725 203 725 q 475 689 416 725 q 568 591 535 654 l 570 591 l 570 713 l 713 713 l 713 13 q 622 -192 713 -115 q 378 -269 530 -269 m 151 1020 l 250 1020 q 286 926 250 962 q 378 890 321 890 q 471 926 435 890 q 507 1020 507 962 l 606 1020 q 544 867 605 926 q 378 807 482 807 q 213 867 275 807 q 151 1020 152 926 z "},"Ġ":{"ha":991,"x_min":55,"x_max":933,"o":"m 933 407 q 822 96 933 208 q 511 -16 710 -16 q 178 121 301 -16 q 55 494 55 258 q 177 860 55 725 q 509 995 300 995 q 786 906 673 995 q 926 671 900 817 l 770 671 q 674 812 743 762 q 510 862 606 862 q 290 765 370 862 q 210 495 210 667 q 292 218 210 319 q 513 117 373 117 q 707 186 631 117 q 783 367 782 256 l 783 384 l 530 384 l 530 507 l 933 507 l 933 407 m 570 1095 q 557 1082 570 1095 q 507 1069 544 1069 q 444 1095 469 1069 q 418 1158 418 1121 q 444 1221 418 1195 q 507 1246 469 1246 q 570 1221 544 1246 q 595 1158 595 1195 q 570 1095 595 1121 z "},"ġ":{"ha":785,"x_min":41,"x_max":713,"o":"m 376 119 q 514 184 463 119 q 566 359 566 249 q 514 535 566 469 q 376 602 463 602 q 241 536 292 602 q 191 359 191 470 q 241 183 191 248 q 376 119 292 119 m 378 -269 q 166 -209 253 -269 q 66 -56 80 -149 l 214 -56 q 275 -127 229 -100 q 383 -155 321 -155 q 517 -110 468 -155 q 566 8 566 -66 l 566 125 l 563 125 q 472 32 532 66 q 337 -3 412 -3 q 121 95 202 -3 q 41 359 41 193 q 122 626 41 528 q 340 725 203 725 q 475 689 416 725 q 568 591 535 654 l 570 591 l 570 713 l 713 713 l 713 13 q 622 -192 713 -115 q 378 -269 530 -269 m 443 846 q 430 833 443 846 q 379 820 416 820 q 315 846 342 820 q 288 910 288 873 q 315 973 288 947 q 379 1000 342 1000 q 443 973 416 1000 q 469 910 469 947 q 443 846 469 873 z "},"Ģ":{"ha":991,"x_min":55,"x_max":933,"o":"m 933 407 q 822 96 933 208 q 511 -16 710 -16 q 178 121 301 -16 q 55 494 55 258 q 177 860 55 725 q 509 995 300 995 q 786 906 673 995 q 926 671 900 817 l 770 671 q 674 812 743 762 q 510 862 606 862 q 290 765 370 862 q 210 495 210 667 q 292 218 210 319 q 513 117 373 117 q 707 186 631 117 q 783 367 782 256 l 783 384 l 530 384 l 530 507 l 933 507 l 933 407 m 488 -326 l 380 -326 l 458 -87 l 587 -87 l 488 -326 z "},"ģ":{"ha":785,"x_min":41,"x_max":713,"o":"m 376 119 q 514 184 463 119 q 566 359 566 249 q 514 535 566 469 q 376 602 463 602 q 241 536 292 602 q 191 359 191 470 q 241 183 191 248 q 376 119 292 119 m 378 -269 q 166 -209 253 -269 q 66 -56 80 -149 l 214 -56 q 275 -127 229 -100 q 383 -155 321 -155 q 517 -110 468 -155 q 566 8 566 -66 l 566 125 l 563 125 q 472 32 532 66 q 337 -3 412 -3 q 121 95 202 -3 q 41 359 41 193 q 122 626 41 528 q 340 725 203 725 q 475 689 416 725 q 568 591 535 654 l 570 591 l 570 713 l 713 713 l 713 13 q 622 -192 713 -115 q 378 -269 530 -269 m 398 1040 l 506 1040 l 427 801 l 298 801 l 398 1040 z "},"Ĥ":{"ha":986,"x_min":90,"x_max":897,"o":"m 897 0 l 745 0 l 745 433 l 242 433 l 242 0 l 90 0 l 90 979 l 242 979 l 242 565 l 745 565 l 745 979 l 897 979 l 897 0 m 437 1251 l 549 1251 l 738 1044 l 612 1044 l 495 1174 l 491 1174 l 374 1044 l 248 1044 l 437 1251 z "},"ĥ":{"ha":771,"x_min":-93,"x_max":703,"o":"m 78 0 l 78 979 l 223 979 l 223 594 l 227 594 q 314 691 256 657 q 452 726 372 726 q 636 654 569 726 q 703 460 703 582 l 703 0 l 555 0 l 555 431 q 516 555 555 511 q 399 600 476 600 q 272 548 319 600 q 224 412 224 497 l 224 0 l 78 0 m 96 1251 l 208 1251 l 397 1044 l 271 1044 l 154 1174 l 150 1174 l 33 1044 l -93 1044 l 96 1251 z "},"Ħ":{"ha":993,"x_min":9,"x_max":984,"o":"m 748 565 l 748 724 l 245 724 l 245 565 l 748 565 m 984 837 l 984 724 l 900 724 l 900 0 l 748 0 l 748 433 l 245 433 l 245 0 l 94 0 l 94 724 l 9 724 l 9 837 l 94 837 l 94 979 l 245 979 l 245 837 l 748 837 l 748 979 l 900 979 l 900 837 l 984 837 z "},"ħ":{"ha":774,"x_min":12,"x_max":705,"o":"m 227 594 l 230 594 q 317 691 259 657 q 455 726 374 726 q 639 654 572 726 q 705 460 705 582 l 705 0 l 559 0 l 559 431 q 519 555 559 511 q 403 600 479 600 q 275 549 321 600 q 228 412 228 498 l 228 0 l 81 0 l 81 821 l 12 821 l 12 909 l 81 909 l 81 979 l 227 979 l 227 909 l 390 909 l 390 821 l 227 821 l 227 594 z "},"Ĩ":{"ha":332,"x_min":-58,"x_max":393,"o":"m 242 0 l 90 0 l 90 979 l 242 979 l 242 0 m 258 1067 q 210 1078 233 1067 q 171 1102 187 1088 q 139 1132 154 1117 q 110 1156 125 1146 q 80 1166 94 1166 q 43 1142 56 1166 q 32 1076 31 1118 l -58 1076 q -21 1206 -58 1159 q 78 1253 17 1253 q 128 1242 104 1253 q 168 1218 152 1232 q 199 1188 184 1203 q 228 1164 214 1174 q 256 1154 242 1154 q 290 1177 278 1154 q 302 1246 302 1201 l 393 1246 q 355 1116 393 1164 q 258 1067 317 1067 z "},"ĩ":{"ha":301,"x_min":-72,"x_max":379,"o":"m 77 0 l 77 713 l 224 713 l 224 0 l 77 0 m 244 817 q 196 827 219 817 q 157 852 174 838 q 126 881 140 867 q 96 906 111 896 q 66 916 81 916 q 30 892 43 916 q 18 825 17 868 l -72 825 q -34 956 -72 909 q 64 1002 3 1002 q 115 992 91 1002 q 155 967 138 982 q 185 938 171 953 q 214 913 200 924 q 242 903 229 903 q 277 927 264 903 q 289 996 289 951 l 379 996 q 341 866 379 914 q 244 817 303 817 z "},"Ī":{"ha":332,"x_min":-56,"x_max":388,"o":"m 242 0 l 90 0 l 90 979 l 242 979 l 242 0 m 388 1191 l 388 1105 l -56 1105 l -56 1191 l 388 1191 z "},"ī":{"ha":301,"x_min":-22,"x_max":323,"o":"m 77 0 l 77 713 l 224 713 l 224 0 l 77 0 m 323 937 l 323 850 l -22 850 l -22 937 l 323 937 z "},"Ĭ":{"ha":332,"x_min":-60,"x_max":393,"o":"m 242 0 l 90 0 l 90 979 l 242 979 l 242 0 m -60 1256 l 39 1256 q 79 1164 44 1198 q 166 1130 113 1130 q 254 1164 219 1130 q 294 1256 288 1198 l 393 1256 q 326 1106 387 1166 q 166 1045 265 1045 q 6 1106 67 1045 q -60 1256 -54 1166 z "},"ĭ":{"ha":301,"x_min":-77,"x_max":377,"o":"m 77 0 l 77 713 l 224 713 l 224 0 l 77 0 m -77 1020 l 22 1020 q 57 926 22 962 q 150 890 93 890 q 242 926 207 890 q 278 1020 278 962 l 377 1020 q 315 867 376 926 q 150 807 254 807 q -15 867 46 807 q -77 1020 -77 926 z "},"Į":{"ha":332,"x_min":3,"x_max":254,"o":"m 90 -9 l 90 979 l 242 979 l 242 2 l 234 -1 q 117 -136 117 -69 q 140 -185 117 -168 q 200 -202 163 -202 q 254 -196 227 -202 l 254 -287 q 166 -300 227 -300 q 49 -262 95 -300 q 3 -165 3 -225 q 90 -9 3 -81 z "},"į":{"ha":301,"x_min":-9,"x_max":238,"o":"m 211 837 q 198 825 211 837 q 151 812 186 812 q 91 837 115 812 q 66 896 66 861 q 91 956 66 931 q 151 980 115 980 q 211 956 186 980 q 236 896 236 931 q 211 837 236 861 m 77 -7 l 77 713 l 224 713 l 224 5 l 210 -1 q 131 -61 157 -32 q 104 -128 104 -91 q 127 -176 104 -159 q 185 -193 149 -193 q 238 -187 209 -193 l 238 -276 q 154 -289 211 -289 q 37 -252 82 -289 q -9 -157 -9 -216 q 13 -78 -9 -117 q 77 -7 35 -39 z "},"İ":{"ha":332,"x_min":77,"x_max":255,"o":"m 242 0 l 90 0 l 90 979 l 242 979 l 242 0 m 229 1095 q 216 1082 229 1095 q 166 1069 203 1069 q 103 1095 129 1069 q 77 1158 77 1121 q 103 1221 77 1195 q 166 1246 129 1246 q 229 1221 203 1246 q 255 1158 255 1195 q 229 1095 255 1121 z "},"ı":{"ha":301,"x_min":77,"x_max":224,"o":"m 77 0 l 77 713 l 224 713 l 224 0 l 77 0 z "},"Ĳ":{"ha":1051,"x_min":90,"x_max":959,"o":"m 242 0 l 90 0 l 90 979 l 242 979 l 242 0 m 358 251 l 507 251 q 549 152 509 190 q 653 114 589 114 q 767 158 728 114 q 807 286 807 201 l 807 979 l 959 979 l 959 285 q 878 59 959 140 q 654 -22 798 -22 q 440 54 522 -22 q 358 251 358 129 z "},"ĳ":{"ha":616,"x_min":66,"x_max":544,"o":"m 77 0 l 77 713 l 224 713 l 224 0 l 77 0 m 211 842 q 198 830 211 842 q 151 818 186 818 q 91 842 115 818 q 66 901 66 867 q 91 961 66 937 q 151 985 115 985 q 211 961 186 985 q 236 901 236 937 q 211 842 236 867 m 532 713 l 532 -34 q 474 -196 532 -143 q 298 -248 417 -248 q 264 -247 269 -248 l 264 -132 q 275 -132 266 -132 q 286 -132 284 -132 q 362 -110 340 -132 q 385 -33 385 -87 l 385 713 l 532 713 m 519 842 q 506 830 519 842 q 458 818 494 818 q 398 842 423 818 q 374 901 374 867 q 398 961 374 937 q 458 985 423 985 q 519 961 494 985 q 544 901 544 937 q 519 842 544 867 z "},"Ĵ":{"ha":719,"x_min":26,"x_max":796,"o":"m 26 251 l 175 251 q 217 152 176 190 q 321 114 257 114 q 435 158 395 114 q 475 286 475 201 l 475 979 l 627 979 l 627 285 q 546 59 627 140 q 322 -22 465 -22 q 108 54 190 -22 q 26 251 26 129 m 495 1251 l 608 1251 l 796 1044 l 670 1044 l 553 1174 l 549 1174 l 433 1044 l 307 1044 l 495 1251 z "},"ĵ":{"ha":301,"x_min":-89,"x_max":389,"o":"m 224 713 l 224 -34 q 166 -196 224 -143 q -9 -248 109 -248 q -43 -247 -39 -248 l -43 -132 q -33 -132 -42 -132 q -22 -132 -24 -132 q 55 -110 32 -132 q 77 -33 77 -87 l 77 713 l 224 713 m 206 1021 l 389 812 l 263 812 l 152 941 l 148 941 l 37 812 l -89 812 l 94 1021 l 206 1021 z "},"Ķ":{"ha":877,"x_min":90,"x_max":870,"o":"m 242 0 l 90 0 l 90 979 l 242 979 l 242 513 l 248 513 l 657 979 l 838 979 l 450 545 l 870 0 l 682 0 l 342 441 l 242 326 l 242 0 m 408 -326 l 300 -326 l 378 -87 l 507 -87 l 408 -326 z "},"ķ":{"ha":701,"x_min":78,"x_max":698,"o":"m 226 408 l 514 713 l 686 713 l 391 406 l 698 0 l 528 0 l 286 317 l 224 256 l 224 0 l 78 0 l 78 979 l 224 979 l 224 408 l 226 408 m 353 -326 l 245 -326 l 324 -87 l 453 -87 l 353 -326 z "},"Ĺ":{"ha":738,"x_min":90,"x_max":698,"o":"m 698 132 l 698 0 l 90 0 l 90 979 l 242 979 l 242 132 l 698 132 m 233 1057 l 111 1057 l 261 1257 l 412 1257 l 233 1057 z "},"ĺ":{"ha":302,"x_min":78,"x_max":397,"o":"m 78 0 l 78 979 l 224 979 l 224 0 l 78 0 m 218 1057 l 96 1057 l 246 1257 l 397 1257 l 218 1057 z "},"Ļ":{"ha":738,"x_min":90,"x_max":698,"o":"m 698 132 l 698 0 l 90 0 l 90 979 l 242 979 l 242 132 l 698 132 m 372 -326 l 264 -326 l 343 -87 l 472 -87 l 372 -326 z "},"ļ":{"ha":302,"x_min":24,"x_max":232,"o":"m 78 0 l 78 979 l 224 979 l 224 0 l 78 0 m 132 -326 l 24 -326 l 103 -87 l 232 -87 l 132 -326 z "},"Ľ":{"ha":738,"x_min":90,"x_max":698,"o":"m 420 979 l 554 979 l 520 644 l 420 644 l 420 979 m 698 132 l 698 0 l 90 0 l 90 979 l 242 979 l 242 132 l 698 132 z "},"ľ":{"ha":422,"x_min":78,"x_max":437,"o":"m 324 983 l 437 983 l 414 659 l 324 659 l 324 983 m 78 0 l 78 979 l 224 979 l 224 0 l 78 0 z "},"Ł":{"ha":741,"x_min":16,"x_max":701,"o":"m 245 132 l 701 132 l 701 0 l 94 0 l 94 459 l 16 422 l 16 534 l 94 570 l 94 979 l 245 979 l 245 642 l 463 745 l 463 634 l 245 531 l 245 132 z "},"ł":{"ha":323,"x_min":10,"x_max":313,"o":"m 313 671 l 313 562 l 235 522 l 235 0 l 88 0 l 88 448 l 10 408 l 10 517 l 88 557 l 88 979 l 235 979 l 235 631 l 313 671 z "},"Ń":{"ha":979,"x_min":90,"x_max":888,"o":"m 238 0 l 90 0 l 90 979 l 228 979 l 735 257 l 741 257 l 741 979 l 888 979 l 888 0 l 751 0 l 244 721 l 238 721 l 238 0 m 557 1057 l 434 1057 l 585 1257 l 735 1257 l 557 1057 z "},"ń":{"ha":756,"x_min":73,"x_max":688,"o":"m 73 0 l 73 713 l 212 713 l 212 594 l 216 594 q 302 691 245 656 q 440 726 359 726 q 623 655 557 726 q 688 462 688 585 l 688 0 l 541 0 l 541 433 q 502 557 541 515 q 389 600 464 600 q 265 549 311 600 q 219 416 219 499 l 219 0 l 73 0 m 441 815 l 319 815 l 464 1021 l 611 1021 l 441 815 z "},"Ņ":{"ha":979,"x_min":90,"x_max":888,"o":"m 238 0 l 90 0 l 90 979 l 228 979 l 735 257 l 741 257 l 741 979 l 888 979 l 888 0 l 751 0 l 244 721 l 238 721 l 238 0 m 471 -326 l 363 -326 l 441 -87 l 570 -87 l 471 -326 z "},"ņ":{"ha":756,"x_min":73,"x_max":688,"o":"m 73 0 l 73 713 l 212 713 l 212 594 l 216 594 q 302 691 245 656 q 440 726 359 726 q 623 655 557 726 q 688 462 688 585 l 688 0 l 541 0 l 541 433 q 502 557 541 515 q 389 600 464 600 q 265 549 311 600 q 219 416 219 499 l 219 0 l 73 0 m 366 -326 l 258 -326 l 336 -87 l 465 -87 l 366 -326 z "},"Ň":{"ha":979,"x_min":90,"x_max":888,"o":"m 238 0 l 90 0 l 90 979 l 228 979 l 735 257 l 741 257 l 741 979 l 888 979 l 888 0 l 751 0 l 244 721 l 238 721 l 238 0 m 433 1049 l 245 1256 l 371 1256 l 488 1126 l 492 1126 l 608 1256 l 734 1256 l 546 1049 l 433 1049 z "},"ň":{"ha":756,"x_min":73,"x_max":688,"o":"m 73 0 l 73 713 l 212 713 l 212 594 l 216 594 q 302 691 245 656 q 440 726 359 726 q 623 655 557 726 q 688 462 688 585 l 688 0 l 541 0 l 541 433 q 502 557 541 515 q 389 600 464 600 q 265 549 311 600 q 219 416 219 499 l 219 0 l 73 0 m 436 812 l 323 812 l 141 1021 l 267 1021 l 378 890 l 382 890 l 493 1021 l 618 1021 l 436 812 z "},"Ō":{"ha":1026,"x_min":55,"x_max":972,"o":"m 513 995 q 848 859 724 995 q 972 489 972 722 q 848 120 972 256 q 513 -16 725 -16 q 178 120 302 -16 q 55 489 55 256 q 178 859 55 722 q 513 995 302 995 m 513 861 q 292 761 374 861 q 210 489 210 661 q 292 218 210 318 q 513 117 374 117 q 734 218 652 117 q 816 489 816 318 q 734 761 816 661 q 513 861 652 861 m 735 1191 l 735 1105 l 292 1105 l 292 1191 l 735 1191 z "},"ō":{"ha":758,"x_min":41,"x_max":718,"o":"m 625 86 q 579 36 625 86 q 379 -14 533 -14 q 133 86 225 -14 q 41 357 41 185 q 133 627 41 528 q 379 726 225 726 q 625 627 533 726 q 718 357 718 528 q 625 86 718 185 m 379 107 q 517 173 467 107 q 568 357 568 239 q 517 540 568 474 q 379 606 466 606 q 241 540 292 606 q 190 357 190 474 q 241 173 190 239 q 379 107 292 107 m 582 937 l 582 850 l 176 850 l 176 937 l 582 937 z "},"Ŏ":{"ha":1026,"x_min":55,"x_max":972,"o":"m 513 995 q 848 859 724 995 q 972 489 972 722 q 848 120 972 256 q 513 -16 725 -16 q 178 120 302 -16 q 55 489 55 256 q 178 859 55 722 q 513 995 302 995 m 513 861 q 292 761 374 861 q 210 489 210 661 q 292 218 210 318 q 513 117 374 117 q 734 218 652 117 q 816 489 816 318 q 734 761 816 661 q 513 861 652 861 m 287 1256 l 386 1256 q 426 1164 391 1198 q 513 1130 460 1130 q 601 1164 566 1130 q 641 1256 635 1198 l 740 1256 q 673 1106 734 1166 q 513 1045 612 1045 q 354 1106 414 1045 q 287 1256 293 1166 z "},"ŏ":{"ha":758,"x_min":41,"x_max":718,"o":"m 625 86 q 579 36 625 86 q 379 -14 533 -14 q 133 86 225 -14 q 41 357 41 185 q 133 627 41 528 q 379 726 225 726 q 625 627 533 726 q 718 357 718 528 q 625 86 718 185 m 379 107 q 517 173 467 107 q 568 357 568 239 q 517 540 568 474 q 379 606 466 606 q 241 540 292 606 q 190 357 190 474 q 241 173 190 239 q 379 107 292 107 m 151 1020 l 250 1020 q 286 926 250 962 q 378 890 321 890 q 471 926 435 890 q 507 1020 507 962 l 606 1020 q 544 867 605 926 q 378 807 482 807 q 213 867 275 807 q 151 1020 152 926 z "},"Ő":{"ha":1026,"x_min":55,"x_max":972,"o":"m 513 995 q 848 859 724 995 q 972 489 972 722 q 848 120 972 256 q 513 -16 725 -16 q 178 120 302 -16 q 55 489 55 256 q 178 859 55 722 q 513 995 302 995 m 513 861 q 292 761 374 861 q 210 489 210 661 q 292 218 210 318 q 513 117 374 117 q 734 218 652 117 q 816 489 816 318 q 734 761 816 661 q 513 861 652 861 m 699 1057 l 576 1057 l 727 1257 l 878 1257 l 699 1057 m 463 1057 l 340 1057 l 490 1257 l 641 1257 l 463 1057 z "},"ő":{"ha":758,"x_min":41,"x_max":718,"o":"m 625 86 q 579 36 625 86 q 379 -14 533 -14 q 133 86 225 -14 q 41 357 41 185 q 133 627 41 528 q 379 726 225 726 q 625 627 533 726 q 718 357 718 528 q 625 86 718 185 m 379 107 q 517 173 467 107 q 568 357 568 239 q 517 540 568 474 q 379 606 466 606 q 241 540 292 606 q 190 357 190 474 q 241 173 190 239 q 379 107 292 107 m 436 815 l 568 1021 l 707 1021 l 547 815 l 436 815 m 209 815 l 340 1021 l 480 1021 l 319 815 l 209 815 z "},"Œ":{"ha":1503,"x_min":56,"x_max":1437,"o":"m 518 862 q 294 761 377 862 q 212 489 212 661 q 294 217 212 318 q 518 117 377 117 q 742 217 659 117 q 825 489 825 318 q 742 761 825 660 q 518 862 659 862 m 834 0 l 834 157 q 701 28 789 75 q 507 -18 614 -18 q 178 119 301 -18 q 56 489 56 257 q 179 859 56 721 q 507 997 302 997 q 701 952 616 997 q 834 823 786 907 l 834 979 l 1437 979 l 1437 848 l 979 848 l 979 562 l 1411 562 l 1411 435 l 979 435 l 979 132 l 1437 132 l 1437 0 l 834 0 z "},"œ":{"ha":1258,"x_min":41,"x_max":1218,"o":"m 909 -14 q 753 23 825 -14 q 645 122 682 60 l 638 122 q 376 -14 547 -14 q 132 87 223 -14 q 41 356 41 187 q 132 626 41 525 q 376 726 222 726 q 638 585 549 726 l 645 585 q 749 688 682 650 q 903 726 817 726 q 1132 629 1046 726 q 1218 370 1218 532 l 1218 320 l 717 320 l 717 309 q 770 161 717 218 q 908 105 823 105 q 1013 133 968 105 q 1071 207 1057 161 l 1211 207 q 1111 49 1196 112 q 909 -14 1025 -14 m 1070 422 q 1021 557 1068 505 q 898 608 973 608 q 772 556 823 608 q 717 422 722 505 l 1070 422 m 188 356 q 238 175 188 241 q 376 109 288 109 q 515 175 465 109 q 565 356 565 240 q 515 538 565 473 q 376 604 465 604 q 238 538 288 604 q 188 356 188 472 z "},"Ŕ":{"ha":852,"x_min":90,"x_max":825,"o":"m 242 851 l 242 499 l 455 499 q 591 545 543 499 q 640 675 640 591 q 589 804 640 758 q 451 851 539 851 l 242 851 m 242 376 l 242 0 l 90 0 l 90 979 l 469 979 q 708 898 620 979 q 796 680 796 817 q 746 505 796 580 q 606 400 695 430 l 825 0 l 650 0 l 451 376 l 242 376 m 450 1057 l 327 1057 l 477 1257 l 628 1257 l 450 1057 z "},"ŕ":{"ha":456,"x_min":73,"x_max":481,"o":"m 73 0 l 73 713 l 212 713 l 212 592 l 216 592 q 279 690 233 654 q 387 725 324 725 q 437 720 408 725 l 437 583 q 372 591 418 591 q 260 547 301 591 q 219 427 219 503 l 219 0 l 73 0 m 312 815 l 189 815 l 334 1021 l 481 1021 l 312 815 z "},"Ŗ":{"ha":852,"x_min":90,"x_max":825,"o":"m 242 851 l 242 499 l 455 499 q 591 545 543 499 q 640 675 640 591 q 589 804 640 758 q 451 851 539 851 l 242 851 m 242 376 l 242 0 l 90 0 l 90 979 l 469 979 q 708 898 620 979 q 796 680 796 817 q 746 505 796 580 q 606 400 695 430 l 825 0 l 650 0 l 451 376 l 242 376 m 363 -326 l 256 -326 l 334 -87 l 463 -87 l 363 -326 z "},"ŗ":{"ha":456,"x_min":19,"x_max":437,"o":"m 73 0 l 73 713 l 212 713 l 212 592 l 216 592 q 279 690 233 654 q 387 725 324 725 q 437 720 408 725 l 437 583 q 372 591 418 591 q 260 547 301 591 q 219 427 219 503 l 219 0 l 73 0 m 127 -326 l 19 -326 l 98 -87 l 227 -87 l 127 -326 z "},"Ř":{"ha":852,"x_min":90,"x_max":825,"o":"m 242 851 l 242 499 l 455 499 q 591 545 543 499 q 640 675 640 591 q 589 804 640 758 q 451 851 539 851 l 242 851 m 242 376 l 242 0 l 90 0 l 90 979 l 469 979 q 708 898 620 979 q 796 680 796 817 q 746 505 796 580 q 606 400 695 430 l 825 0 l 650 0 l 451 376 l 242 376 m 326 1049 l 138 1256 l 264 1256 l 380 1126 l 385 1126 l 501 1256 l 627 1256 l 439 1049 l 326 1049 z "},"ř":{"ha":456,"x_min":12,"x_max":489,"o":"m 73 0 l 73 713 l 212 713 l 212 592 l 216 592 q 279 690 233 654 q 387 725 324 725 q 437 720 408 725 l 437 583 q 372 591 418 591 q 260 547 301 591 q 219 427 219 503 l 219 0 l 73 0 m 307 812 l 194 812 l 12 1021 l 137 1021 l 248 890 l 252 890 l 363 1021 l 489 1021 l 307 812 z "},"Ś":{"ha":844,"x_min":47,"x_max":798,"o":"m 47 273 l 197 273 q 269 156 205 200 q 431 112 334 112 q 583 155 523 112 q 643 263 643 197 q 600 356 643 320 q 463 416 557 393 l 336 446 q 137 543 201 479 q 73 710 73 608 q 172 916 73 836 q 429 995 271 995 q 681 916 583 995 q 782 710 779 837 l 634 710 q 571 825 627 783 q 427 867 515 867 q 283 826 338 867 q 228 720 228 785 q 269 636 228 669 q 406 579 311 603 l 513 553 q 731 453 664 517 q 798 281 798 389 q 696 64 798 144 q 420 -16 594 -16 q 155 62 256 -16 q 47 273 54 140 m 496 1057 l 374 1057 l 524 1257 l 675 1257 l 496 1057 z "},"ś":{"ha":671,"x_min":41,"x_max":630,"o":"m 60 511 q 137 667 60 607 q 339 726 214 726 q 534 666 458 726 q 614 511 610 606 l 476 511 q 433 587 471 559 q 335 615 396 615 q 239 589 275 615 q 203 520 203 562 q 312 428 203 455 l 432 400 q 585 330 540 374 q 630 206 630 286 q 548 47 630 109 q 334 -14 465 -14 q 129 46 208 -14 q 41 205 50 106 l 186 205 q 235 126 195 153 q 340 98 274 98 q 445 124 406 98 q 483 193 483 149 q 460 248 483 227 q 381 282 437 268 l 254 313 q 60 511 60 360 m 401 815 l 278 815 l 423 1021 l 570 1021 l 401 815 z "},"Ŝ":{"ha":844,"x_min":47,"x_max":798,"o":"m 47 273 l 197 273 q 269 156 205 200 q 431 112 334 112 q 583 155 523 112 q 643 263 643 197 q 600 356 643 320 q 463 416 557 393 l 336 446 q 137 543 201 479 q 73 710 73 608 q 172 916 73 836 q 429 995 271 995 q 681 916 583 995 q 782 710 779 837 l 634 710 q 571 825 627 783 q 427 867 515 867 q 283 826 338 867 q 228 720 228 785 q 269 636 228 669 q 406 579 311 603 l 513 553 q 731 453 664 517 q 798 281 798 389 q 696 64 798 144 q 420 -16 594 -16 q 155 62 256 -16 q 47 273 54 140 m 373 1251 l 486 1251 l 674 1044 l 548 1044 l 431 1174 l 427 1174 l 311 1044 l 184 1044 l 373 1251 z "},"ŝ":{"ha":671,"x_min":41,"x_max":630,"o":"m 60 511 q 137 667 60 607 q 339 726 214 726 q 534 666 458 726 q 614 511 610 606 l 476 511 q 433 587 471 559 q 335 615 396 615 q 239 589 275 615 q 203 520 203 562 q 312 428 203 455 l 432 400 q 585 330 540 374 q 630 206 630 286 q 548 47 630 109 q 334 -14 465 -14 q 129 46 208 -14 q 41 205 50 106 l 186 205 q 235 126 195 153 q 340 98 274 98 q 445 124 406 98 q 483 193 483 149 q 460 248 483 227 q 381 282 437 268 l 254 313 q 60 511 60 360 m 395 1021 l 578 812 l 452 812 l 341 941 l 337 941 l 226 812 l 100 812 l 283 1021 l 395 1021 z "},"Ş":{"ha":844,"x_min":47,"x_max":798,"o":"m 406 579 l 513 553 q 731 453 664 517 q 798 281 798 389 q 711 77 798 155 q 473 -14 624 -2 l 442 -83 q 544 -113 506 -84 q 581 -193 581 -142 q 536 -282 581 -250 q 419 -315 492 -314 q 319 -306 354 -317 l 319 -232 q 401 -240 355 -240 q 483 -195 483 -240 q 461 -163 483 -173 q 389 -154 439 -154 l 344 -154 l 344 -100 l 379 -15 q 143 72 233 -5 q 47 273 54 149 l 197 273 q 269 156 205 200 q 431 112 334 112 q 583 155 523 112 q 643 263 643 197 q 600 356 643 320 q 463 416 557 393 l 336 446 q 137 543 201 479 q 73 710 73 608 q 172 916 73 836 q 429 995 271 995 q 681 916 583 995 q 782 710 779 837 l 634 710 q 571 825 627 783 q 427 867 515 867 q 283 826 338 867 q 228 720 228 785 q 269 636 228 669 q 406 579 311 603 z "},"ş":{"ha":671,"x_min":41,"x_max":630,"o":"m 312 428 l 432 400 q 585 330 540 374 q 630 206 630 286 q 563 60 630 119 q 387 -11 496 1 l 355 -83 q 456 -113 418 -84 q 494 -193 494 -142 q 449 -282 494 -250 q 332 -315 404 -314 q 232 -306 267 -317 l 232 -232 q 313 -240 268 -240 q 395 -195 395 -240 q 373 -163 395 -173 q 302 -154 351 -154 l 256 -154 l 256 -100 l 293 -12 q 117 56 184 -2 q 41 205 50 115 l 186 205 q 235 126 195 153 q 340 98 274 98 q 445 124 406 98 q 483 193 483 149 q 460 248 483 227 q 381 282 437 268 l 254 313 q 60 511 60 360 q 137 667 60 607 q 339 726 214 726 q 534 666 458 726 q 614 511 610 606 l 476 511 q 433 587 471 559 q 335 615 396 615 q 239 589 275 615 q 203 520 203 562 q 312 428 203 455 z "},"Š":{"ha":844,"x_min":47,"x_max":798,"o":"m 47 273 l 197 273 q 269 156 205 200 q 431 112 334 112 q 583 155 523 112 q 643 263 643 197 q 600 356 643 320 q 463 416 557 393 l 336 446 q 137 543 201 479 q 73 710 73 608 q 172 916 73 836 q 429 995 271 995 q 681 916 583 995 q 782 710 779 837 l 634 710 q 571 825 627 783 q 427 867 515 867 q 283 826 338 867 q 228 720 228 785 q 269 636 228 669 q 406 579 311 603 l 513 553 q 731 453 664 517 q 798 281 798 389 q 696 64 798 144 q 420 -16 594 -16 q 155 62 256 -16 q 47 273 54 140 m 373 1049 l 184 1256 l 311 1256 l 427 1126 l 431 1126 l 548 1256 l 674 1256 l 486 1049 l 373 1049 z "},"š":{"ha":671,"x_min":41,"x_max":630,"o":"m 60 511 q 137 667 60 607 q 339 726 214 726 q 534 666 458 726 q 614 511 610 606 l 476 511 q 433 587 471 559 q 335 615 396 615 q 239 589 275 615 q 203 520 203 562 q 312 428 203 455 l 432 400 q 585 330 540 374 q 630 206 630 286 q 548 47 630 109 q 334 -14 465 -14 q 129 46 208 -14 q 41 205 50 106 l 186 205 q 235 126 195 153 q 340 98 274 98 q 445 124 406 98 q 483 193 483 149 q 460 248 483 227 q 381 282 437 268 l 254 313 q 60 511 60 360 m 395 812 l 283 812 l 100 1021 l 226 1021 l 337 890 l 341 890 l 452 1021 l 578 1021 l 395 812 z "},"Ţ":{"ha":817,"x_min":33,"x_max":784,"o":"m 485 0 l 473 0 l 436 -83 q 537 -113 500 -84 q 575 -193 575 -142 q 530 -282 575 -250 q 413 -315 486 -314 q 313 -306 348 -317 l 313 -232 q 395 -240 349 -240 q 477 -195 477 -240 q 455 -163 477 -173 q 383 -154 433 -154 l 338 -154 l 338 -100 l 379 0 l 333 0 l 333 848 l 33 848 l 33 979 l 784 979 l 784 848 l 485 848 l 485 0 z "},"ţ":{"ha":446,"x_min":12,"x_max":417,"o":"m 313 -5 l 278 -83 q 379 -113 342 -84 q 417 -193 417 -142 q 372 -282 417 -250 q 255 -315 328 -314 q 155 -306 190 -317 l 155 -232 q 237 -240 191 -240 q 319 -195 319 -240 q 297 -163 319 -173 q 225 -154 275 -154 l 180 -154 l 180 -100 l 224 6 q 141 66 167 22 q 115 188 115 110 l 115 597 l 12 597 l 12 713 l 115 713 l 115 882 l 262 882 l 262 713 l 398 713 l 398 597 l 262 597 l 262 204 q 283 136 262 158 q 349 115 304 115 q 397 118 382 115 l 397 2 q 316 -5 370 -5 l 313 -5 z "},"Ť":{"ha":817,"x_min":33,"x_max":784,"o":"m 485 0 l 333 0 l 333 848 l 33 848 l 33 979 l 784 979 l 784 848 l 485 848 l 485 0 m 353 1049 l 164 1256 l 290 1256 l 407 1126 l 411 1126 l 528 1256 l 654 1256 l 465 1049 l 353 1049 z "},"ť":{"ha":517,"x_min":12,"x_max":473,"o":"m 361 1135 l 473 1135 l 452 810 l 361 810 l 361 1135 m 115 882 l 262 882 l 262 713 l 398 713 l 398 597 l 262 597 l 262 204 q 283 136 262 158 q 349 115 304 115 q 397 118 382 115 l 397 2 q 316 -5 370 -5 q 162 40 208 -5 q 115 188 115 84 l 115 597 l 12 597 l 12 713 l 115 713 l 115 882 z "},"Ŧ":{"ha":826,"x_min":36,"x_max":787,"o":"m 787 848 l 488 848 l 488 540 l 690 540 l 690 426 l 488 426 l 488 0 l 336 0 l 336 426 l 136 426 l 136 540 l 336 540 l 336 848 l 36 848 l 36 979 l 787 979 l 787 848 z "},"ŧ":{"ha":460,"x_min":12,"x_max":405,"o":"m 405 324 l 262 324 l 262 204 q 283 136 262 158 q 349 115 304 115 q 397 118 382 115 l 397 2 q 316 -5 370 -5 q 162 40 208 -5 q 115 188 115 84 l 115 324 l 14 324 l 14 422 l 115 422 l 115 597 l 12 597 l 12 713 l 115 713 l 115 882 l 262 882 l 262 713 l 398 713 l 398 597 l 262 597 l 262 422 l 405 422 l 405 324 z "},"Ũ":{"ha":972,"x_min":90,"x_max":882,"o":"m 242 979 l 242 357 q 307 184 242 250 q 486 119 372 119 q 666 184 601 119 q 731 357 731 250 l 731 979 l 882 979 l 882 344 q 775 83 882 183 q 486 -16 668 -16 q 197 83 304 -16 q 90 344 90 183 l 90 979 l 242 979 m 578 1067 q 530 1078 553 1067 q 491 1102 507 1088 q 459 1132 474 1117 q 430 1156 445 1146 q 400 1166 414 1166 q 363 1142 376 1166 q 352 1076 351 1118 l 262 1076 q 299 1206 262 1159 q 398 1253 337 1253 q 448 1242 425 1253 q 488 1218 472 1232 q 519 1188 505 1203 q 548 1164 534 1174 q 576 1154 562 1154 q 610 1177 598 1154 q 623 1246 623 1201 l 713 1246 q 675 1116 713 1164 q 578 1067 637 1067 z "},"ũ":{"ha":756,"x_min":69,"x_max":684,"o":"m 684 713 l 684 0 l 544 0 l 544 121 l 541 121 q 319 -13 479 -13 q 136 58 203 -13 q 69 252 69 129 l 69 713 l 216 713 l 216 280 q 254 156 216 198 q 368 113 293 113 q 492 163 447 113 q 538 298 538 214 l 538 713 l 684 713 m 471 817 q 423 827 446 817 q 384 852 400 838 q 352 881 367 867 q 322 906 338 896 q 293 916 307 916 q 256 892 269 916 q 245 825 243 868 l 155 825 q 192 956 155 909 q 291 1002 230 1002 q 341 992 317 1002 q 381 967 365 982 q 412 938 397 953 q 441 913 427 924 q 469 903 455 903 q 503 927 491 903 q 515 996 515 951 l 606 996 q 568 866 606 914 q 471 817 530 817 z "},"Ū":{"ha":972,"x_min":90,"x_max":882,"o":"m 242 979 l 242 357 q 307 184 242 250 q 486 119 372 119 q 666 184 601 119 q 731 357 731 250 l 731 979 l 882 979 l 882 344 q 775 83 882 183 q 486 -16 668 -16 q 197 83 304 -16 q 90 344 90 183 l 90 979 l 242 979 m 708 1191 l 708 1105 l 264 1105 l 264 1191 l 708 1191 z "},"ū":{"ha":756,"x_min":69,"x_max":684,"o":"m 684 713 l 684 0 l 544 0 l 544 121 l 541 121 q 319 -13 479 -13 q 136 58 203 -13 q 69 252 69 129 l 69 713 l 216 713 l 216 280 q 254 156 216 198 q 368 113 293 113 q 492 163 447 113 q 538 298 538 214 l 538 713 l 684 713 m 580 937 l 580 850 l 174 850 l 174 937 l 580 937 z "},"Ŭ":{"ha":972,"x_min":90,"x_max":882,"o":"m 242 979 l 242 357 q 307 184 242 250 q 486 119 372 119 q 666 184 601 119 q 731 357 731 250 l 731 979 l 882 979 l 882 344 q 775 83 882 183 q 486 -16 668 -16 q 197 83 304 -16 q 90 344 90 183 l 90 979 l 242 979 m 260 1256 l 359 1256 q 399 1164 364 1198 q 486 1130 433 1130 q 574 1164 539 1130 q 614 1256 608 1198 l 713 1256 q 646 1106 707 1166 q 486 1045 585 1045 q 327 1106 387 1045 q 260 1256 266 1166 z "},"ŭ":{"ha":756,"x_min":69,"x_max":684,"o":"m 684 713 l 684 0 l 544 0 l 544 121 l 541 121 q 319 -13 479 -13 q 136 58 203 -13 q 69 252 69 129 l 69 713 l 216 713 l 216 280 q 254 156 216 198 q 368 113 293 113 q 492 163 447 113 q 538 298 538 214 l 538 713 l 684 713 m 149 1020 l 248 1020 q 284 926 248 962 q 376 890 319 890 q 469 926 433 890 q 505 1020 505 962 l 604 1020 q 542 867 603 926 q 376 807 480 807 q 211 867 273 807 q 149 1020 150 926 z "},"Ů":{"ha":972,"x_min":90,"x_max":882,"o":"m 242 979 l 242 357 q 307 184 242 250 q 486 119 372 119 q 666 184 601 119 q 731 357 731 250 l 731 979 l 882 979 l 882 344 q 775 83 882 183 q 486 -16 668 -16 q 197 83 304 -16 q 90 344 90 183 l 90 979 l 242 979 m 580 1067 q 561 1048 580 1067 q 486 1029 541 1029 q 392 1067 431 1029 q 353 1161 353 1106 q 392 1254 353 1215 q 486 1293 431 1293 q 580 1254 541 1293 q 619 1161 619 1215 q 580 1067 619 1106 m 439 1114 q 449 1104 439 1114 q 486 1094 458 1094 q 534 1114 514 1094 q 553 1161 553 1133 q 534 1208 553 1188 q 486 1227 514 1227 q 439 1208 458 1227 q 419 1161 419 1188 q 439 1114 419 1133 z "},"ů":{"ha":756,"x_min":69,"x_max":684,"o":"m 684 713 l 684 0 l 544 0 l 544 121 l 541 121 q 319 -13 479 -13 q 136 58 203 -13 q 69 252 69 129 l 69 713 l 216 713 l 216 280 q 254 156 216 198 q 368 113 293 113 q 492 163 447 113 q 538 298 538 214 l 538 713 l 684 713 m 473 817 q 453 798 473 817 q 377 778 433 778 q 281 817 321 778 q 241 912 241 857 q 281 1008 241 968 q 377 1048 321 1048 q 473 1008 433 1048 q 513 912 513 968 q 473 817 513 857 m 329 865 q 339 855 329 865 q 377 845 349 845 q 425 865 405 845 q 445 912 445 884 q 425 960 445 941 q 377 980 405 980 q 329 960 349 980 q 309 912 309 941 q 329 865 309 884 z "},"Ű":{"ha":972,"x_min":90,"x_max":882,"o":"m 242 979 l 242 357 q 307 184 242 250 q 486 119 372 119 q 666 184 601 119 q 731 357 731 250 l 731 979 l 882 979 l 882 344 q 775 83 882 183 q 486 -16 668 -16 q 197 83 304 -16 q 90 344 90 183 l 90 979 l 242 979 m 672 1057 l 549 1057 l 700 1257 l 850 1257 l 672 1057 m 436 1057 l 313 1057 l 463 1257 l 614 1257 l 436 1057 z "},"ű":{"ha":756,"x_min":69,"x_max":705,"o":"m 684 713 l 684 0 l 544 0 l 544 121 l 541 121 q 319 -13 479 -13 q 136 58 203 -13 q 69 252 69 129 l 69 713 l 216 713 l 216 280 q 254 156 216 198 q 368 113 293 113 q 492 163 447 113 q 538 298 538 214 l 538 713 l 684 713 m 434 815 l 566 1021 l 705 1021 l 545 815 l 434 815 m 207 815 l 338 1021 l 478 1021 l 317 815 l 207 815 z "},"Ų":{"ha":972,"x_min":90,"x_max":882,"o":"m 643 -300 q 525 -263 571 -300 q 479 -167 479 -226 q 575 -5 479 -79 l 575 -3 q 486 -16 529 -16 q 199 82 307 -16 q 90 344 90 180 l 90 979 l 242 979 l 242 357 q 308 183 242 248 q 486 119 374 119 q 665 183 599 119 q 731 357 731 248 l 731 979 l 882 979 l 882 344 q 842 174 882 250 q 713 24 801 98 q 624 -62 654 -24 q 594 -136 594 -100 q 617 -185 594 -168 q 675 -202 640 -202 q 729 -196 703 -202 l 729 -287 q 643 -300 702 -300 z "},"ų":{"ha":756,"x_min":69,"x_max":684,"o":"m 674 -276 q 589 -289 647 -289 q 473 -253 518 -289 q 428 -159 428 -217 q 461 -61 428 -104 q 544 9 495 -18 l 544 121 l 541 121 q 319 -13 479 -13 q 136 58 203 -13 q 69 252 69 129 l 69 713 l 216 713 l 216 280 q 254 156 216 198 q 368 113 293 113 q 492 163 447 113 q 538 298 538 214 l 538 713 l 684 713 l 684 -1 l 673 -4 q 582 -55 620 -22 q 543 -128 543 -88 q 564 -176 543 -159 q 621 -193 585 -193 q 674 -187 648 -193 l 674 -276 z "},"Ŵ":{"ha":1304,"x_min":30,"x_max":1274,"o":"m 648 738 l 437 0 l 294 0 l 30 979 l 188 979 l 369 212 l 374 212 l 581 979 l 722 979 l 930 212 l 935 212 l 1116 979 l 1274 979 l 1010 0 l 867 0 l 655 738 l 648 738 m 595 1251 l 708 1251 l 897 1044 l 770 1044 l 654 1174 l 650 1174 l 533 1044 l 407 1044 l 595 1251 z "},"ŵ":{"ha":1031,"x_min":17,"x_max":1014,"o":"m 1014 713 l 819 0 l 666 0 l 516 534 l 513 534 l 364 0 l 213 0 l 17 713 l 163 713 l 294 152 l 296 152 l 445 713 l 586 713 l 735 152 l 739 152 l 869 713 l 1014 713 m 572 1021 l 754 812 l 629 812 l 517 941 l 513 941 l 402 812 l 277 812 l 459 1021 l 572 1021 z "},"Ŷ":{"ha":877,"x_min":18,"x_max":859,"o":"m 514 0 l 362 0 l 362 401 l 18 979 l 187 979 l 437 547 l 441 547 l 691 979 l 859 979 l 514 401 l 514 0 m 382 1251 l 494 1251 l 683 1044 l 557 1044 l 440 1174 l 436 1174 l 319 1044 l 193 1044 l 382 1251 z "},"ŷ":{"ha":703,"x_min":13,"x_max":690,"o":"m 143 -266 q 83 -262 102 -266 l 83 -144 q 131 -146 94 -146 q 212 -123 182 -146 q 258 -45 241 -100 q 264 -22 258 -44 l 271 -1 l 13 713 l 172 713 l 353 133 l 355 133 l 536 713 l 690 713 l 422 -37 q 316 -216 377 -167 q 143 -266 255 -266 m 408 1021 l 591 812 l 465 812 l 354 941 l 350 941 l 239 812 l 113 812 l 296 1021 l 408 1021 z "},"Ÿ":{"ha":877,"x_min":18,"x_max":859,"o":"m 514 0 l 362 0 l 362 401 l 18 979 l 187 979 l 437 547 l 441 547 l 691 979 l 859 979 l 514 401 l 514 0 m 308 1080 q 251 1103 274 1080 q 227 1159 227 1126 q 251 1215 227 1192 q 308 1238 274 1238 q 365 1215 341 1238 q 388 1159 388 1192 q 365 1103 388 1126 q 308 1080 341 1080 m 569 1080 q 512 1103 535 1080 q 488 1159 488 1126 q 512 1215 488 1192 q 569 1238 535 1238 q 626 1215 602 1238 q 649 1159 649 1192 q 626 1103 649 1126 q 569 1080 602 1080 z "},"Ź":{"ha":863,"x_min":64,"x_max":800,"o":"m 64 0 l 64 104 l 600 842 l 600 848 l 81 848 l 81 979 l 787 979 l 787 875 l 253 136 l 253 132 l 800 132 l 800 0 l 64 0 m 499 1057 l 376 1057 l 527 1257 l 677 1257 l 499 1057 z "},"ź":{"ha":669,"x_min":58,"x_max":610,"o":"m 58 0 l 58 94 l 438 594 l 438 597 l 60 597 l 60 713 l 606 713 l 606 613 l 235 119 l 235 117 l 610 117 l 610 0 l 58 0 m 396 815 l 273 815 l 418 1021 l 566 1021 l 396 815 z "},"Ż":{"ha":863,"x_min":64,"x_max":800,"o":"m 64 0 l 64 104 l 600 842 l 600 848 l 81 848 l 81 979 l 787 979 l 787 875 l 253 136 l 253 132 l 800 132 l 800 0 l 64 0 m 495 1095 q 482 1082 495 1095 q 432 1069 469 1069 q 369 1095 395 1069 q 343 1158 343 1121 q 369 1221 343 1195 q 432 1246 395 1246 q 495 1221 469 1246 q 521 1158 521 1195 q 495 1095 521 1121 z "},"ż":{"ha":669,"x_min":58,"x_max":610,"o":"m 58 0 l 58 94 l 438 594 l 438 597 l 60 597 l 60 713 l 606 713 l 606 613 l 235 119 l 235 117 l 610 117 l 610 0 l 58 0 m 398 846 q 385 833 398 846 q 334 820 372 820 q 270 846 297 820 q 243 910 243 873 q 270 973 243 947 q 334 1000 297 1000 q 398 973 372 1000 q 425 910 425 947 q 398 846 425 873 z "},"Ž":{"ha":863,"x_min":64,"x_max":800,"o":"m 64 0 l 64 104 l 600 842 l 600 848 l 81 848 l 81 979 l 787 979 l 787 875 l 253 136 l 253 132 l 800 132 l 800 0 l 64 0 m 376 1049 l 187 1256 l 313 1256 l 430 1126 l 434 1126 l 551 1256 l 677 1256 l 488 1049 l 376 1049 z "},"ž":{"ha":669,"x_min":58,"x_max":610,"o":"m 58 0 l 58 94 l 438 594 l 438 597 l 60 597 l 60 713 l 606 713 l 606 613 l 235 119 l 235 117 l 610 117 l 610 0 l 58 0 m 391 812 l 278 812 l 96 1021 l 221 1021 l 332 890 l 336 890 l 448 1021 l 573 1021 l 391 812 z "},"Ə":{"ha":987,"x_min":62,"x_max":926,"o":"m 492 -24 q 179 107 294 -24 q 62 463 64 239 l 62 523 l 765 523 l 765 538 q 685 776 766 684 q 477 869 604 869 q 230 720 295 869 l 75 720 q 224 927 117 852 q 479 1002 331 1002 q 805 863 684 1002 q 926 488 926 724 q 806 117 926 258 q 492 -24 686 -24 m 494 110 q 675 189 602 110 q 762 400 748 267 l 225 400 q 307 187 235 264 q 494 110 378 110 z "},"ƒ":{"ha":861,"x_min":33,"x_max":830,"o":"m 830 966 l 830 842 q 706 868 774 868 q 591 834 631 868 q 540 728 551 801 l 519 592 l 765 592 l 765 479 l 503 479 l 468 242 q 378 47 449 111 q 180 -16 307 -16 q 33 14 96 -16 l 33 144 q 94 120 58 130 q 163 111 131 111 q 273 145 236 111 q 321 259 310 180 l 354 479 l 130 479 l 130 592 l 371 592 l 393 741 q 688 993 430 993 q 830 966 772 993 z "},"Ơ":{"ha":1040,"x_min":55,"x_max":998,"o":"m 848 120 q 787 52 848 120 q 513 -16 725 -16 q 178 120 302 -16 q 55 489 55 256 q 178 859 55 722 q 513 995 302 995 q 657 980 568 995 q 799 966 747 966 q 856 980 839 966 q 873 1027 873 994 l 873 1128 l 998 1128 l 998 988 q 963 898 998 932 q 869 864 928 864 l 828 864 l 828 860 q 931 709 890 815 q 972 489 972 603 q 848 120 972 256 m 513 117 q 734 218 652 117 q 816 489 816 318 q 734 761 816 661 q 513 861 652 861 q 292 761 374 861 q 210 489 210 661 q 292 218 210 318 q 513 117 374 117 z "},"ơ":{"ha":798,"x_min":41,"x_max":760,"o":"m 379 107 q 517 173 467 107 q 568 357 568 239 q 517 540 568 474 q 379 606 467 606 q 241 540 292 606 q 190 357 190 474 q 241 173 190 239 q 379 107 292 107 m 718 352 q 625 86 718 185 q 380 -14 532 -14 q 133 86 225 -14 q 41 357 41 186 q 133 627 41 527 q 379 726 225 726 q 483 714 429 726 q 564 703 538 703 q 620 716 604 703 q 635 762 635 729 l 635 854 l 760 854 l 760 721 q 731 639 760 670 q 655 608 703 608 l 633 608 l 633 605 q 718 352 718 509 z "},"Ư":{"ha":1091,"x_min":90,"x_max":1071,"o":"m 774 82 q 720 33 774 82 q 486 -16 665 -16 q 199 82 307 -16 q 90 344 90 180 l 90 979 l 242 979 l 242 357 q 308 183 242 248 q 486 119 374 119 q 665 183 599 119 q 731 357 731 247 l 731 979 l 886 979 q 945 1036 945 979 l 945 1149 l 1071 1149 l 1071 1008 q 1033 911 1071 946 q 928 876 995 876 l 882 876 l 882 344 q 774 82 882 180 z "},"ư":{"ha":849,"x_min":69,"x_max":854,"o":"m 541 121 q 319 -13 479 -13 q 136 58 203 -13 q 69 252 69 129 l 69 713 l 216 713 l 216 280 q 254 156 216 198 q 368 113 293 113 q 492 163 447 113 q 538 298 538 214 l 538 713 l 673 713 q 730 768 730 713 l 730 869 l 854 869 l 854 741 q 818 646 854 680 q 715 611 781 611 l 684 611 l 684 0 l 544 0 l 544 121 l 541 121 z "},"Ǆ":{"ha":1820,"x_min":90,"x_max":1755,"o":"m 90 979 l 435 979 q 776 850 654 979 q 899 491 899 722 q 777 130 899 259 q 435 0 654 0 l 90 0 l 90 979 m 242 848 l 242 132 l 421 132 q 660 224 577 132 q 743 490 743 316 q 660 755 743 663 q 421 848 576 848 l 242 848 m 1020 0 l 1020 104 l 1556 842 l 1556 848 l 1036 848 l 1036 979 l 1742 979 l 1742 875 l 1208 136 l 1208 132 l 1755 132 l 1755 0 l 1020 0 m 1331 1049 l 1143 1256 l 1269 1256 l 1385 1126 l 1390 1126 l 1506 1256 l 1632 1256 l 1444 1049 l 1331 1049 z "},"ǅ":{"ha":1643,"x_min":90,"x_max":1567,"o":"m 90 979 l 435 979 q 776 850 654 979 q 899 491 899 722 q 777 130 899 259 q 435 0 654 0 l 90 0 l 90 979 m 242 848 l 242 132 l 421 132 q 660 224 577 132 q 743 490 743 316 q 660 755 743 663 q 421 848 576 848 l 242 848 m 1014 0 l 1014 94 l 1394 594 l 1394 597 l 1017 597 l 1017 713 l 1563 713 l 1563 613 l 1192 119 l 1192 117 l 1567 117 l 1567 0 l 1014 0 m 1347 812 l 1234 812 l 1052 1021 l 1177 1021 l 1289 890 l 1293 890 l 1404 1021 l 1529 1021 l 1347 812 z "},"ǆ":{"ha":1496,"x_min":41,"x_max":1420,"o":"m 340 -12 q 123 88 205 -12 q 41 357 41 189 q 122 625 41 525 q 339 725 204 725 q 473 690 414 725 q 563 595 532 655 l 566 595 l 566 979 l 713 979 l 713 0 l 570 0 l 570 121 l 568 121 q 476 23 536 59 q 340 -12 417 -12 m 379 602 q 241 535 292 602 q 191 357 191 469 q 241 178 191 243 q 379 112 292 112 q 515 179 464 112 q 567 357 567 245 q 515 534 567 467 q 379 602 464 602 m 867 0 l 867 94 l 1248 594 l 1248 597 l 870 597 l 870 713 l 1416 713 l 1416 613 l 1045 119 l 1045 117 l 1420 117 l 1420 0 l 867 0 m 1200 812 l 1088 812 l 905 1021 l 1031 1021 l 1142 890 l 1146 890 l 1257 1021 l 1383 1021 l 1200 812 z "},"Ǉ":{"ha":1457,"x_min":90,"x_max":1364,"o":"m 698 132 l 698 0 l 90 0 l 90 979 l 242 979 l 242 132 l 698 132 m 764 251 l 913 251 q 955 152 914 190 q 1059 114 995 114 q 1173 158 1133 114 q 1213 286 1213 201 l 1213 979 l 1364 979 l 1364 285 q 1284 59 1364 140 q 1060 -22 1203 -22 q 846 54 928 -22 q 764 251 764 129 z "},"ǈ":{"ha":1046,"x_min":90,"x_max":974,"o":"m 698 132 l 698 0 l 90 0 l 90 979 l 242 979 l 242 132 l 698 132 m 962 713 l 962 -34 q 904 -196 962 -143 q 728 -248 847 -248 q 694 -247 699 -248 l 694 -132 q 705 -132 696 -132 q 715 -132 714 -132 q 792 -110 770 -132 q 815 -33 815 -87 l 815 713 l 962 713 m 949 842 q 936 830 949 842 q 888 818 924 818 q 828 842 853 818 q 804 901 804 867 q 828 961 804 937 q 888 985 853 985 q 949 961 924 985 q 974 901 974 937 q 949 842 974 867 z "},"ǉ":{"ha":617,"x_min":78,"x_max":545,"o":"m 78 0 l 78 979 l 224 979 l 224 0 l 78 0 m 533 713 l 533 -34 q 476 -196 533 -143 q 300 -248 418 -248 q 266 -247 270 -248 l 266 -132 q 276 -132 267 -132 q 287 -132 286 -132 q 364 -110 341 -132 q 387 -33 387 -87 l 387 713 l 533 713 m 520 842 q 508 830 520 842 q 460 818 495 818 q 400 842 425 818 q 375 901 375 867 q 400 961 375 937 q 460 985 425 985 q 520 961 496 985 q 545 901 545 937 q 520 842 545 867 z "},"Ǌ":{"ha":1697,"x_min":90,"x_max":1605,"o":"m 238 0 l 90 0 l 90 979 l 228 979 l 735 257 l 741 257 l 741 979 l 888 979 l 888 0 l 751 0 l 244 721 l 238 721 l 238 0 m 1004 251 l 1154 251 q 1195 152 1155 190 q 1299 114 1236 114 q 1414 158 1374 114 q 1453 286 1453 201 l 1453 979 l 1605 979 l 1605 285 q 1525 59 1605 140 q 1301 -22 1444 -22 q 1086 54 1168 -22 q 1004 251 1004 129 z "},"ǋ":{"ha":1286,"x_min":90,"x_max":1215,"o":"m 238 0 l 90 0 l 90 979 l 228 979 l 735 257 l 741 257 l 741 979 l 888 979 l 888 0 l 751 0 l 244 721 l 238 721 l 238 0 m 1202 713 l 1202 -34 q 1145 -196 1202 -143 q 969 -248 1088 -248 q 935 -247 939 -248 l 935 -132 q 946 -132 937 -132 q 956 -132 955 -132 q 1033 -110 1010 -132 q 1056 -33 1056 -87 l 1056 713 l 1202 713 m 1190 842 q 1177 830 1190 842 q 1129 818 1164 818 q 1069 842 1094 818 q 1044 901 1044 867 q 1069 961 1044 937 q 1129 985 1094 985 q 1190 961 1165 985 q 1215 901 1215 937 q 1190 842 1215 867 z "},"ǌ":{"ha":1084,"x_min":73,"x_max":1013,"o":"m 73 0 l 73 713 l 212 713 l 212 594 l 216 594 q 302 691 245 656 q 440 726 359 726 q 623 655 557 726 q 688 462 688 585 l 688 0 l 541 0 l 541 433 q 502 557 541 515 q 389 600 464 600 q 265 549 311 600 q 219 416 219 499 l 219 0 l 73 0 m 1000 713 l 1000 -34 q 943 -196 1000 -143 q 767 -248 886 -248 q 733 -247 737 -248 l 733 -132 q 744 -132 734 -132 q 754 -132 753 -132 q 831 -110 808 -132 q 854 -33 854 -87 l 854 713 l 1000 713 m 987 842 q 975 830 987 842 q 927 818 962 818 q 867 842 892 818 q 842 901 842 867 q 867 961 842 937 q 927 985 892 985 q 988 961 963 985 q 1013 901 1013 937 q 987 842 1013 867 z "},"Ǎ":{"ha":906,"x_min":18,"x_max":888,"o":"m 728 0 l 638 264 l 265 264 l 176 0 l 18 0 l 371 979 l 535 979 l 888 0 l 728 0 m 450 816 l 304 387 l 600 387 l 454 816 l 450 816 m 397 1049 l 208 1256 l 334 1256 l 451 1126 l 455 1126 l 572 1256 l 698 1256 l 509 1049 l 397 1049 z "},"ǎ":{"ha":720,"x_min":44,"x_max":650,"o":"m 322 104 q 452 151 399 104 q 505 267 505 198 l 505 323 l 329 313 q 228 280 263 308 q 192 207 192 253 q 228 132 192 160 q 322 104 263 104 m 281 -12 q 110 47 176 -12 q 44 203 44 107 q 113 352 44 296 q 309 414 182 407 l 505 425 l 505 480 q 467 573 505 540 q 361 607 429 607 q 260 579 299 607 q 211 503 221 551 l 73 503 q 158 664 79 602 q 367 726 237 726 q 573 663 496 726 q 650 492 650 599 l 650 0 l 510 0 l 510 117 l 507 117 q 414 23 476 58 q 281 -12 352 -12 m 416 812 l 303 812 l 121 1021 l 246 1021 l 357 890 l 361 890 l 473 1021 l 598 1021 l 416 812 z "},"Ǐ":{"ha":332,"x_min":-79,"x_max":411,"o":"m 242 0 l 90 0 l 90 979 l 242 979 l 242 0 m 110 1049 l -79 1256 l 47 1256 l 164 1126 l 168 1126 l 285 1256 l 411 1256 l 222 1049 l 110 1049 z "},"ǐ":{"ha":301,"x_min":-88,"x_max":389,"o":"m 77 0 l 77 713 l 224 713 l 224 0 l 77 0 m 207 812 l 94 812 l -88 1021 l 37 1021 l 149 890 l 153 890 l 264 1021 l 389 1021 l 207 812 z "},"Ǒ":{"ha":1026,"x_min":55,"x_max":972,"o":"m 513 995 q 848 859 724 995 q 972 489 972 722 q 848 120 972 256 q 513 -16 725 -16 q 178 120 302 -16 q 55 489 55 256 q 178 859 55 722 q 513 995 302 995 m 513 861 q 292 761 374 861 q 210 489 210 661 q 292 218 210 318 q 513 117 374 117 q 734 218 652 117 q 816 489 816 318 q 734 761 816 661 q 513 861 652 861 m 457 1049 l 269 1256 l 395 1256 l 511 1126 l 515 1126 l 632 1256 l 758 1256 l 570 1049 l 457 1049 z "},"ǒ":{"ha":758,"x_min":41,"x_max":718,"o":"m 625 86 q 579 36 625 86 q 379 -14 533 -14 q 133 86 225 -14 q 41 357 41 185 q 133 627 41 528 q 379 726 225 726 q 625 627 533 726 q 718 357 718 528 q 625 86 718 185 m 379 107 q 517 173 467 107 q 568 357 568 239 q 517 540 568 474 q 379 606 466 606 q 241 540 292 606 q 190 357 190 474 q 241 173 190 239 q 379 107 292 107 m 435 812 l 323 812 l 140 1021 l 266 1021 l 377 890 l 381 890 l 492 1021 l 618 1021 l 435 812 z "},"Ǔ":{"ha":972,"x_min":90,"x_max":882,"o":"m 242 979 l 242 357 q 307 184 242 250 q 486 119 372 119 q 666 184 601 119 q 731 357 731 250 l 731 979 l 882 979 l 882 344 q 775 83 882 183 q 486 -16 668 -16 q 197 83 304 -16 q 90 344 90 183 l 90 979 l 242 979 m 430 1049 l 241 1256 l 368 1256 l 484 1126 l 488 1126 l 605 1256 l 731 1256 l 543 1049 l 430 1049 z "},"ǔ":{"ha":756,"x_min":69,"x_max":684,"o":"m 684 713 l 684 0 l 544 0 l 544 121 l 541 121 q 319 -13 479 -13 q 136 58 203 -13 q 69 252 69 129 l 69 713 l 216 713 l 216 280 q 254 156 216 198 q 368 113 293 113 q 492 163 447 113 q 538 298 538 214 l 538 713 l 684 713 m 433 812 l 321 812 l 138 1021 l 264 1021 l 375 890 l 379 890 l 490 1021 l 616 1021 l 433 812 z "},"Ǖ":{"ha":972,"x_min":90,"x_max":882,"o":"m 242 979 l 242 357 q 307 184 242 250 q 486 119 372 119 q 666 184 601 119 q 731 357 731 250 l 731 979 l 882 979 l 882 344 q 775 83 882 183 q 486 -16 668 -16 q 197 83 304 -16 q 90 344 90 183 l 90 979 l 242 979 m 361 1206 q 415 1184 393 1206 q 438 1129 438 1161 q 415 1075 438 1097 q 361 1052 393 1052 q 306 1075 328 1052 q 283 1129 283 1097 q 306 1184 283 1161 q 361 1206 328 1206 m 264 1385 l 708 1385 l 708 1299 l 264 1299 l 264 1385 m 612 1206 q 667 1184 644 1206 q 690 1129 690 1161 q 667 1075 690 1097 q 612 1052 644 1052 q 557 1075 580 1052 q 534 1129 534 1097 q 557 1184 534 1161 q 612 1206 580 1206 z "},"ǖ":{"ha":756,"x_min":69,"x_max":684,"o":"m 684 713 l 684 0 l 544 0 l 544 121 l 541 121 q 319 -13 479 -13 q 136 58 203 -13 q 69 252 69 129 l 69 713 l 216 713 l 216 280 q 254 156 216 198 q 368 113 293 113 q 492 163 447 113 q 538 298 538 214 l 538 713 l 684 713 m 246 791 q 189 814 212 791 q 165 871 165 838 q 189 927 165 904 q 246 950 212 950 q 303 927 279 950 q 326 871 326 904 q 303 814 326 838 q 246 791 279 791 m 508 791 q 451 814 475 791 q 428 871 428 838 q 451 927 428 904 q 508 950 475 950 q 565 927 542 950 q 589 871 589 904 q 565 814 589 838 q 508 791 542 791 m 580 1133 l 580 1046 l 174 1046 l 174 1133 l 580 1133 z "},"Ǘ":{"ha":972,"x_min":90,"x_max":882,"o":"m 242 979 l 242 357 q 307 184 242 250 q 486 119 372 119 q 666 184 601 119 q 731 357 731 250 l 731 979 l 882 979 l 882 344 q 775 83 882 183 q 486 -16 668 -16 q 197 83 304 -16 q 90 344 90 183 l 90 979 l 242 979 m 422 1253 l 540 1407 l 673 1407 l 538 1253 l 422 1253 m 361 1052 q 306 1075 328 1052 q 283 1129 283 1097 q 306 1184 283 1161 q 361 1206 328 1206 q 415 1184 393 1206 q 438 1129 438 1161 q 415 1075 438 1097 q 361 1052 393 1052 m 612 1052 q 557 1075 580 1052 q 534 1129 534 1097 q 557 1184 534 1161 q 612 1206 580 1206 q 667 1184 644 1206 q 690 1129 690 1161 q 667 1075 690 1097 q 612 1052 644 1052 z "},"ǘ":{"ha":756,"x_min":69,"x_max":684,"o":"m 684 713 l 684 0 l 544 0 l 544 121 l 541 121 q 319 -13 479 -13 q 136 58 203 -13 q 69 252 69 129 l 69 713 l 216 713 l 216 280 q 254 156 216 198 q 368 113 293 113 q 492 163 447 113 q 538 298 538 214 l 538 713 l 684 713 m 310 1029 l 450 1227 l 581 1227 l 424 1029 l 310 1029 m 247 793 q 190 816 213 793 q 166 872 166 839 q 190 928 166 905 q 247 951 213 951 q 303 928 280 951 q 327 872 327 905 q 303 816 327 839 q 247 793 280 793 m 508 793 q 451 816 474 793 q 427 872 427 839 q 451 928 427 905 q 508 951 474 951 q 565 928 541 951 q 588 872 588 905 q 565 816 588 839 q 508 793 541 793 z "},"Ǚ":{"ha":972,"x_min":90,"x_max":882,"o":"m 242 979 l 242 357 q 307 184 242 250 q 486 119 372 119 q 666 184 601 119 q 731 357 731 250 l 731 979 l 882 979 l 882 344 q 775 83 882 183 q 486 -16 668 -16 q 197 83 304 -16 q 90 344 90 183 l 90 979 l 242 979 m 427 1245 l 250 1411 l 379 1411 l 484 1312 l 489 1312 l 593 1411 l 723 1411 l 546 1245 l 427 1245 m 361 1206 q 415 1184 393 1206 q 438 1129 438 1161 q 415 1075 438 1097 q 361 1052 393 1052 q 306 1075 328 1052 q 283 1129 283 1097 q 306 1184 283 1161 q 361 1206 328 1206 m 612 1206 q 667 1184 644 1206 q 690 1129 690 1161 q 667 1075 690 1097 q 612 1052 644 1052 q 557 1075 580 1052 q 534 1129 534 1097 q 557 1184 534 1161 q 612 1206 580 1206 z "},"ǚ":{"ha":756,"x_min":69,"x_max":684,"o":"m 684 713 l 684 0 l 544 0 l 544 121 l 541 121 q 319 -13 479 -13 q 136 58 203 -13 q 69 252 69 129 l 69 713 l 216 713 l 216 280 q 254 156 216 198 q 368 113 293 113 q 492 163 447 113 q 538 298 538 214 l 538 713 l 684 713 m 246 791 q 189 814 212 791 q 165 871 165 838 q 189 927 165 904 q 246 950 212 950 q 303 927 279 950 q 326 871 326 904 q 303 814 326 838 q 246 791 279 791 m 508 791 q 451 814 475 791 q 428 871 428 838 q 451 927 428 904 q 508 950 475 950 q 565 927 542 950 q 589 871 589 904 q 565 814 589 838 q 508 791 542 791 m 434 1010 l 320 1010 l 138 1208 l 264 1208 l 375 1086 l 379 1086 l 490 1208 l 616 1208 l 434 1010 z "},"Ǜ":{"ha":972,"x_min":90,"x_max":882,"o":"m 242 979 l 242 357 q 307 184 242 250 q 486 119 372 119 q 666 184 601 119 q 731 357 731 250 l 731 979 l 882 979 l 882 344 q 775 83 882 183 q 486 -16 668 -16 q 197 83 304 -16 q 90 344 90 183 l 90 979 l 242 979 m 545 1253 l 429 1253 l 294 1407 l 427 1407 l 545 1253 m 361 1052 q 306 1075 328 1052 q 283 1129 283 1097 q 306 1184 283 1161 q 361 1206 328 1206 q 415 1184 393 1206 q 438 1129 438 1161 q 415 1075 438 1097 q 361 1052 393 1052 m 612 1052 q 557 1075 580 1052 q 534 1129 534 1097 q 557 1184 534 1161 q 612 1206 580 1206 q 667 1184 644 1206 q 690 1129 690 1161 q 667 1075 690 1097 q 612 1052 644 1052 z "},"ǜ":{"ha":756,"x_min":69,"x_max":684,"o":"m 684 713 l 684 0 l 544 0 l 544 121 l 541 121 q 319 -13 479 -13 q 136 58 203 -13 q 69 252 69 129 l 69 713 l 216 713 l 216 280 q 254 156 216 198 q 368 113 293 113 q 492 163 447 113 q 538 298 538 214 l 538 713 l 684 713 m 444 1028 l 333 1028 l 176 1227 l 307 1227 l 444 1028 m 247 793 q 190 816 213 793 q 166 872 166 839 q 190 928 166 905 q 247 951 213 951 q 303 928 280 951 q 327 872 327 905 q 303 816 327 839 q 247 793 280 793 m 508 793 q 451 816 474 793 q 427 872 427 839 q 451 928 427 905 q 508 951 474 951 q 565 928 541 951 q 588 872 588 905 q 565 816 588 839 q 508 793 541 793 z "},"ǝ":{"ha":746,"x_min":47,"x_max":699,"o":"m 368 104 q 495 156 445 104 q 551 292 545 207 l 194 292 q 243 156 195 207 q 368 104 291 104 m 195 519 l 55 519 q 162 670 80 614 q 366 726 244 726 q 609 627 520 726 q 699 358 699 528 q 609 87 699 189 q 367 -14 519 -14 q 133 83 219 -14 q 47 345 47 179 l 49 395 l 551 395 l 551 402 q 500 552 551 495 q 365 609 448 609 q 195 519 239 609 z "},"Ǟ":{"ha":906,"x_min":18,"x_max":888,"o":"m 728 0 l 638 264 l 265 264 l 176 0 l 18 0 l 371 979 l 535 979 l 888 0 l 728 0 m 450 816 l 304 387 l 600 387 l 454 816 l 450 816 m 328 1206 q 382 1184 359 1206 q 405 1129 405 1161 q 382 1075 405 1097 q 328 1052 359 1052 q 272 1075 295 1052 q 250 1129 250 1097 q 272 1184 250 1161 q 328 1206 295 1206 m 231 1385 l 675 1385 l 675 1299 l 231 1299 l 231 1385 m 578 1206 q 634 1184 611 1206 q 656 1129 656 1161 q 634 1075 656 1097 q 578 1052 611 1052 q 524 1075 547 1052 q 501 1129 501 1097 q 524 1184 501 1161 q 578 1206 547 1206 z "},"ǟ":{"ha":720,"x_min":44,"x_max":650,"o":"m 322 104 q 452 151 399 104 q 505 267 505 198 l 505 323 l 329 313 q 228 280 263 308 q 192 207 192 253 q 228 132 192 160 q 322 104 263 104 m 281 -12 q 110 47 176 -12 q 44 203 44 107 q 113 352 44 296 q 309 414 182 407 l 505 425 l 505 480 q 467 573 505 540 q 361 607 429 607 q 260 579 299 607 q 211 503 221 551 l 73 503 q 158 664 79 602 q 367 726 237 726 q 573 663 496 726 q 650 492 650 599 l 650 0 l 510 0 l 510 117 l 507 117 q 414 23 476 58 q 281 -12 352 -12 m 229 791 q 171 814 195 791 q 148 871 148 838 q 171 927 148 904 q 229 950 195 950 q 285 927 262 950 q 309 871 309 904 q 285 814 309 838 q 229 791 262 791 m 490 791 q 434 814 457 791 q 410 871 410 838 q 434 927 410 904 q 490 950 457 950 q 548 927 524 950 q 571 871 571 904 q 548 814 571 838 q 490 791 524 791 m 562 1133 l 562 1046 l 157 1046 l 157 1133 l 562 1133 z "},"Ǡ":{"ha":906,"x_min":18,"x_max":888,"o":"m 728 0 l 638 264 l 265 264 l 176 0 l 18 0 l 371 979 l 535 979 l 888 0 l 728 0 m 450 816 l 304 387 l 600 387 l 454 816 l 450 816 m 513 1087 q 500 1075 513 1087 q 453 1063 488 1063 q 393 1087 418 1063 q 369 1146 369 1112 q 393 1204 369 1180 q 453 1228 418 1228 q 513 1204 488 1228 q 537 1146 537 1180 q 513 1087 537 1112 m 675 1385 l 675 1299 l 231 1299 l 231 1385 l 675 1385 z "},"ǡ":{"ha":720,"x_min":44,"x_max":650,"o":"m 322 104 q 452 151 399 104 q 505 267 505 198 l 505 323 l 329 313 q 228 280 263 308 q 192 207 192 253 q 228 132 192 160 q 322 104 263 104 m 281 -12 q 110 47 176 -12 q 44 203 44 107 q 113 352 44 296 q 309 414 182 407 l 505 425 l 505 480 q 467 573 505 540 q 361 607 429 607 q 260 579 299 607 q 211 503 221 551 l 73 503 q 158 664 79 602 q 367 726 237 726 q 573 663 496 726 q 650 492 650 599 l 650 0 l 510 0 l 510 117 l 507 117 q 414 23 476 58 q 281 -12 352 -12 m 422 826 q 409 813 422 826 q 359 800 396 800 q 296 826 323 800 q 270 889 270 852 q 296 951 270 925 q 359 978 323 978 q 422 951 396 978 q 449 889 449 925 q 422 826 449 852 m 562 1135 l 562 1048 l 157 1048 l 157 1135 l 562 1135 z "},"Ǣ":{"ha":1354,"x_min":9,"x_max":1263,"o":"m 551 857 l 349 412 l 653 412 l 653 857 l 551 857 m 653 0 l 653 290 l 296 290 l 163 0 l 9 0 l 457 979 l 1263 979 l 1263 848 l 799 848 l 799 556 l 1238 556 l 1238 430 l 799 430 l 799 131 l 1263 131 l 1263 0 l 653 0 m 1153 1191 l 1153 1105 l 709 1105 l 709 1191 l 1153 1191 z "},"ǣ":{"ha":1181,"x_min":41,"x_max":1140,"o":"m 833 -14 q 678 25 746 -14 q 575 133 610 64 l 568 133 q 459 26 527 64 q 304 -12 392 -12 q 112 46 183 -12 q 41 202 41 105 q 112 350 41 296 q 313 411 182 404 l 504 421 l 504 467 q 461 567 504 528 q 353 607 419 607 q 252 578 292 607 q 207 502 212 549 l 69 502 q 151 664 75 601 q 349 726 227 726 q 500 692 436 726 q 591 598 564 659 l 597 598 q 836 726 671 726 q 1057 630 975 726 q 1140 370 1140 533 l 1140 320 l 646 320 l 646 311 q 697 162 646 219 q 836 105 749 105 q 936 133 895 105 q 993 210 977 161 l 1133 210 q 1034 49 1117 111 q 833 -14 951 -14 m 826 608 q 701 557 751 608 q 646 422 652 505 l 994 422 q 945 557 991 507 q 826 608 900 608 m 316 103 q 449 151 395 103 q 504 267 504 199 l 504 319 l 330 309 q 223 279 260 305 q 186 208 186 252 q 222 132 186 161 q 316 103 258 103 m 794 937 l 794 850 l 389 850 l 389 937 l 794 937 z "},"Ǧ":{"ha":991,"x_min":55,"x_max":933,"o":"m 933 407 q 822 96 933 208 q 511 -16 710 -16 q 178 121 301 -16 q 55 494 55 258 q 177 860 55 725 q 509 995 300 995 q 786 906 673 995 q 926 671 900 817 l 770 671 q 674 812 743 762 q 510 862 606 862 q 290 765 370 862 q 210 495 210 667 q 292 218 210 319 q 513 117 373 117 q 707 186 631 117 q 783 367 782 256 l 783 384 l 530 384 l 530 507 l 933 507 l 933 407 m 450 1049 l 262 1256 l 388 1256 l 505 1126 l 509 1126 l 625 1256 l 751 1256 l 563 1049 l 450 1049 z "},"ǧ":{"ha":785,"x_min":41,"x_max":713,"o":"m 376 119 q 514 184 463 119 q 566 359 566 249 q 514 535 566 469 q 376 602 463 602 q 241 536 292 602 q 191 359 191 470 q 241 183 191 248 q 376 119 292 119 m 378 -269 q 166 -209 253 -269 q 66 -56 80 -149 l 214 -56 q 275 -127 229 -100 q 383 -155 321 -155 q 517 -110 468 -155 q 566 8 566 -66 l 566 125 l 563 125 q 472 32 532 66 q 337 -3 412 -3 q 121 95 202 -3 q 41 359 41 193 q 122 626 41 528 q 340 725 203 725 q 475 689 416 725 q 568 591 535 654 l 570 591 l 570 713 l 713 713 l 713 13 q 622 -192 713 -115 q 378 -269 530 -269 m 435 812 l 323 812 l 140 1021 l 266 1021 l 377 890 l 381 890 l 492 1021 l 618 1021 l 435 812 z "},"Ǩ":{"ha":877,"x_min":90,"x_max":870,"o":"m 242 0 l 90 0 l 90 979 l 242 979 l 242 513 l 248 513 l 657 979 l 838 979 l 450 545 l 870 0 l 682 0 l 342 441 l 242 326 l 242 0 m 370 1049 l 182 1256 l 308 1256 l 425 1126 l 429 1126 l 545 1256 l 671 1256 l 483 1049 l 370 1049 z "},"ǩ":{"ha":701,"x_min":-94,"x_max":698,"o":"m 226 408 l 514 713 l 686 713 l 391 406 l 698 0 l 528 0 l 286 317 l 224 256 l 224 0 l 78 0 l 78 979 l 224 979 l 224 408 l 226 408 m 95 1049 l -94 1256 l 33 1256 l 149 1126 l 153 1126 l 270 1256 l 396 1256 l 208 1049 l 95 1049 z "},"Ǫ":{"ha":1026,"x_min":55,"x_max":972,"o":"m 672 -300 q 554 -263 600 -300 q 508 -167 508 -226 q 533 -81 508 -122 q 604 -9 559 -41 l 604 -6 q 513 -16 543 -16 q 178 120 302 -16 q 55 489 55 256 q 178 859 55 722 q 513 995 302 995 q 848 859 725 995 q 972 489 972 722 q 919 232 972 344 q 753 24 865 120 q 654 -68 684 -34 q 623 -136 623 -103 q 646 -185 623 -169 q 705 -202 668 -202 q 758 -196 732 -202 l 758 -287 q 672 -300 731 -300 m 513 861 q 292 761 374 861 q 210 489 210 661 q 292 218 210 318 q 513 117 374 117 q 734 218 652 117 q 816 489 816 318 q 734 761 816 661 q 513 861 652 861 z "},"ǫ":{"ha":758,"x_min":41,"x_max":718,"o":"m 501 -289 q 386 -253 431 -289 q 341 -159 341 -217 q 428 -14 341 -71 l 428 -10 q 379 -14 401 -14 q 133 86 225 -14 q 41 357 41 185 q 133 627 41 528 q 379 726 225 726 q 625 627 533 726 q 718 357 718 528 q 568 31 718 151 q 454 -127 454 -62 q 476 -176 454 -159 q 533 -193 498 -193 q 587 -187 559 -193 l 587 -276 q 501 -289 558 -289 m 379 107 q 517 173 467 107 q 568 357 568 239 q 517 540 568 474 q 379 606 466 606 q 241 540 292 606 q 190 357 190 474 q 241 173 190 239 q 379 107 292 107 z "},"Ǭ":{"ha":1026,"x_min":55,"x_max":972,"o":"m 672 -300 q 554 -263 600 -300 q 508 -167 508 -226 q 533 -81 508 -122 q 604 -9 559 -41 l 604 -6 q 513 -16 543 -16 q 178 120 302 -16 q 55 489 55 256 q 178 859 55 722 q 513 995 302 995 q 848 859 725 995 q 972 489 972 722 q 919 232 972 344 q 753 24 865 120 q 654 -68 684 -34 q 623 -136 623 -103 q 646 -185 623 -169 q 705 -202 668 -202 q 758 -196 732 -202 l 758 -287 q 672 -300 731 -300 m 513 861 q 292 761 374 861 q 210 489 210 661 q 292 218 210 318 q 513 117 374 117 q 734 218 652 117 q 816 489 816 318 q 734 761 816 661 q 513 861 652 861 m 735 1191 l 735 1105 l 292 1105 l 292 1191 l 735 1191 z "},"ǭ":{"ha":758,"x_min":41,"x_max":718,"o":"m 501 -289 q 386 -253 431 -289 q 341 -159 341 -217 q 428 -14 341 -71 l 428 -10 q 379 -14 401 -14 q 133 86 225 -14 q 41 357 41 185 q 133 627 41 528 q 379 726 225 726 q 625 627 533 726 q 718 357 718 528 q 568 31 718 151 q 454 -127 454 -62 q 476 -176 454 -159 q 533 -193 498 -193 q 587 -187 559 -193 l 587 -276 q 501 -289 558 -289 m 379 107 q 517 173 467 107 q 568 357 568 239 q 517 540 568 474 q 379 606 466 606 q 241 540 292 606 q 190 357 190 474 q 241 173 190 239 q 379 107 292 107 m 582 937 l 582 850 l 176 850 l 176 937 l 582 937 z "},"Ǳ":{"ha":1820,"x_min":90,"x_max":1755,"o":"m 90 979 l 435 979 q 776 850 654 979 q 899 491 899 722 q 777 130 899 259 q 435 0 654 0 l 90 0 l 90 979 m 242 848 l 242 132 l 421 132 q 660 224 577 132 q 743 490 743 316 q 660 755 743 663 q 421 848 576 848 l 242 848 m 1020 0 l 1020 104 l 1556 842 l 1556 848 l 1036 848 l 1036 979 l 1742 979 l 1742 875 l 1208 136 l 1208 132 l 1755 132 l 1755 0 l 1020 0 z "},"ǲ":{"ha":1643,"x_min":90,"x_max":1567,"o":"m 90 979 l 435 979 q 776 850 654 979 q 899 491 899 722 q 777 130 899 259 q 435 0 654 0 l 90 0 l 90 979 m 242 848 l 242 132 l 421 132 q 660 224 577 132 q 743 490 743 316 q 660 755 743 663 q 421 848 576 848 l 242 848 m 1014 0 l 1014 94 l 1394 594 l 1394 597 l 1017 597 l 1017 713 l 1563 713 l 1563 613 l 1192 119 l 1192 117 l 1567 117 l 1567 0 l 1014 0 z "},"ǳ":{"ha":1496,"x_min":41,"x_max":1420,"o":"m 340 -12 q 123 88 205 -12 q 41 357 41 189 q 122 625 41 525 q 339 725 204 725 q 473 690 414 725 q 563 595 532 655 l 566 595 l 566 979 l 713 979 l 713 0 l 570 0 l 570 121 l 568 121 q 476 23 536 59 q 340 -12 417 -12 m 379 602 q 241 535 292 602 q 191 357 191 469 q 241 178 191 243 q 379 112 292 112 q 515 179 464 112 q 567 357 567 245 q 515 534 567 467 q 379 602 464 602 m 867 0 l 867 94 l 1248 594 l 1248 597 l 870 597 l 870 713 l 1416 713 l 1416 613 l 1045 119 l 1045 117 l 1420 117 l 1420 0 l 867 0 z "},"Ǵ":{"ha":991,"x_min":55,"x_max":933,"o":"m 933 407 q 822 96 933 208 q 511 -16 710 -16 q 178 121 301 -16 q 55 494 55 258 q 177 860 55 725 q 509 995 300 995 q 786 906 673 995 q 926 671 900 817 l 770 671 q 674 812 743 762 q 510 862 606 862 q 290 765 370 862 q 210 495 210 667 q 292 218 210 319 q 513 117 373 117 q 707 186 631 117 q 783 367 782 256 l 783 384 l 530 384 l 530 507 l 933 507 l 933 407 m 574 1057 l 451 1057 l 602 1257 l 752 1257 l 574 1057 z "},"ǵ":{"ha":785,"x_min":41,"x_max":713,"o":"m 376 119 q 514 184 463 119 q 566 359 566 249 q 514 535 566 469 q 376 602 463 602 q 241 536 292 602 q 191 359 191 470 q 241 183 191 248 q 376 119 292 119 m 378 -269 q 166 -209 253 -269 q 66 -56 80 -149 l 214 -56 q 275 -127 229 -100 q 383 -155 321 -155 q 517 -110 468 -155 q 566 8 566 -66 l 566 125 l 563 125 q 472 32 532 66 q 337 -3 412 -3 q 121 95 202 -3 q 41 359 41 193 q 122 626 41 528 q 340 725 203 725 q 475 689 416 725 q 568 591 535 654 l 570 591 l 570 713 l 713 713 l 713 13 q 622 -192 713 -115 q 378 -269 530 -269 m 441 815 l 318 815 l 463 1021 l 610 1021 l 441 815 z "},"Ǹ":{"ha":979,"x_min":90,"x_max":888,"o":"m 238 0 l 90 0 l 90 979 l 228 979 l 735 257 l 741 257 l 741 979 l 888 979 l 888 0 l 751 0 l 244 721 l 238 721 l 238 0 m 422 1059 l 243 1259 l 394 1259 l 545 1059 l 422 1059 z "},"ǹ":{"ha":756,"x_min":73,"x_max":688,"o":"m 73 0 l 73 713 l 212 713 l 212 594 l 216 594 q 302 691 245 656 q 440 726 359 726 q 623 655 557 726 q 688 462 688 585 l 688 0 l 541 0 l 541 433 q 502 557 541 515 q 389 600 464 600 q 265 549 311 600 q 219 416 219 499 l 219 0 l 73 0 m 437 815 l 314 815 l 144 1021 l 292 1021 l 437 815 z "},"Ǻ":{"ha":906,"x_min":18,"x_max":888,"o":"m 728 0 l 638 264 l 265 264 l 176 0 l 18 0 l 371 979 l 535 979 l 888 0 l 728 0 m 450 816 l 304 387 l 600 387 l 454 816 l 450 816 m 544 1051 q 525 1033 544 1051 q 453 1014 507 1014 q 362 1051 399 1014 q 324 1142 324 1088 q 361 1233 324 1196 q 453 1270 399 1270 q 545 1233 507 1270 q 582 1142 582 1196 q 544 1051 582 1088 m 407 1096 q 417 1086 407 1096 q 453 1077 426 1077 q 499 1096 480 1077 q 517 1142 517 1115 q 499 1188 517 1169 q 453 1206 480 1206 q 407 1188 426 1206 q 389 1142 389 1169 q 407 1096 389 1115 m 485 1434 l 611 1434 l 510 1306 l 399 1306 l 485 1434 z "},"ǻ":{"ha":720,"x_min":44,"x_max":650,"o":"m 322 104 q 452 151 399 104 q 505 267 505 198 l 505 323 l 329 313 q 228 280 263 308 q 192 207 192 253 q 228 132 192 160 q 322 104 263 104 m 281 -12 q 110 47 176 -12 q 44 203 44 107 q 113 352 44 296 q 309 414 182 407 l 505 425 l 505 480 q 467 573 505 540 q 361 607 429 607 q 260 579 299 607 q 211 503 221 551 l 73 503 q 158 664 79 602 q 367 726 237 726 q 573 663 496 726 q 650 492 650 599 l 650 0 l 510 0 l 510 117 l 507 117 q 414 23 476 58 q 281 -12 352 -12 m 360 778 q 264 817 303 778 q 224 912 224 856 q 264 1007 224 968 q 360 1046 303 1046 q 456 1007 416 1046 q 495 912 495 968 q 456 817 495 856 q 360 778 416 778 m 313 959 q 303 950 313 959 q 293 912 293 940 q 313 865 293 884 q 360 845 332 845 q 407 865 388 845 q 427 912 427 884 q 407 959 427 940 q 360 979 388 979 q 313 959 332 979 m 307 1099 l 392 1236 l 517 1236 l 416 1099 l 307 1099 z "},"Ǽ":{"ha":1354,"x_min":9,"x_max":1263,"o":"m 551 857 l 349 412 l 653 412 l 653 857 l 551 857 m 653 0 l 653 290 l 296 290 l 163 0 l 9 0 l 457 979 l 1263 979 l 1263 848 l 799 848 l 799 556 l 1238 556 l 1238 430 l 799 430 l 799 131 l 1263 131 l 1263 0 l 653 0 m 887 1057 l 764 1057 l 915 1257 l 1065 1257 l 887 1057 z "},"ǽ":{"ha":1181,"x_min":41,"x_max":1140,"o":"m 833 -14 q 678 25 746 -14 q 575 133 610 64 l 568 133 q 459 26 527 64 q 304 -12 392 -12 q 112 46 183 -12 q 41 202 41 105 q 112 350 41 296 q 313 411 182 404 l 504 421 l 504 467 q 461 567 504 528 q 353 607 419 607 q 252 578 292 607 q 207 502 212 549 l 69 502 q 151 664 75 601 q 349 726 227 726 q 500 692 436 726 q 591 598 564 659 l 597 598 q 836 726 671 726 q 1057 630 975 726 q 1140 370 1140 533 l 1140 320 l 646 320 l 646 311 q 697 162 646 219 q 836 105 749 105 q 936 133 895 105 q 993 210 977 161 l 1133 210 q 1034 49 1117 111 q 833 -14 951 -14 m 826 608 q 701 557 751 608 q 646 422 652 505 l 994 422 q 945 557 991 507 q 826 608 900 608 m 316 103 q 449 151 395 103 q 504 267 504 199 l 504 319 l 330 309 q 223 279 260 305 q 186 208 186 252 q 222 132 186 161 q 316 103 258 103 m 653 815 l 530 815 l 675 1021 l 823 1021 l 653 815 z "},"Ǿ":{"ha":1026,"x_min":55,"x_max":972,"o":"m 774 1257 l 595 1057 l 473 1057 l 623 1257 l 774 1257 m 755 731 l 345 168 q 513 117 416 117 q 734 218 652 117 q 816 489 816 318 q 755 731 816 635 m 285 227 l 701 795 q 513 861 625 861 q 292 761 374 861 q 210 489 210 661 q 285 227 210 326 m 929 969 l 848 859 q 972 489 972 722 q 848 120 972 256 q 513 -16 725 -16 q 260 51 368 -16 l 196 -37 l 127 13 l 194 104 q 55 489 55 241 q 178 859 55 722 q 513 995 302 995 q 787 913 675 995 l 861 1013 l 929 969 z "},"ǿ":{"ha":758,"x_min":41,"x_max":718,"o":"m 610 1021 l 441 815 l 318 815 l 463 1021 l 610 1021 m 534 515 l 283 134 q 379 107 324 107 q 517 173 467 107 q 568 357 568 239 q 534 515 568 452 m 227 194 l 479 576 q 379 606 436 606 q 241 540 292 606 q 190 357 190 474 q 227 194 190 258 m 659 707 l 614 638 q 718 357 718 537 q 625 86 718 185 q 379 -14 533 -14 q 212 25 286 -14 l 174 -33 l 106 11 l 146 72 q 41 357 41 172 q 133 627 41 528 q 379 726 225 726 q 551 685 477 726 l 592 747 l 659 707 z "},"Ȁ":{"ha":906,"x_min":18,"x_max":888,"o":"m 728 0 l 638 264 l 265 264 l 176 0 l 18 0 l 371 979 l 535 979 l 888 0 l 728 0 m 450 816 l 304 387 l 600 387 l 454 816 l 450 816 m 503 1057 l 326 1257 l 476 1257 l 627 1057 l 503 1057 m 267 1057 l 89 1257 l 239 1257 l 390 1057 l 267 1057 z "},"ȁ":{"ha":720,"x_min":31,"x_max":650,"o":"m 322 104 q 452 151 399 104 q 505 267 505 198 l 505 323 l 329 313 q 228 280 263 308 q 192 207 192 253 q 228 132 192 160 q 322 104 263 104 m 281 -12 q 110 47 176 -12 q 44 203 44 107 q 113 352 44 296 q 309 414 182 407 l 505 425 l 505 480 q 467 573 505 540 q 361 607 429 607 q 260 579 299 607 q 211 503 221 551 l 73 503 q 158 664 79 602 q 367 726 237 726 q 573 663 496 726 q 650 492 650 599 l 650 0 l 510 0 l 510 117 l 507 117 q 414 23 476 58 q 281 -12 352 -12 m 302 815 l 191 815 l 31 1021 l 171 1021 l 302 815 m 530 815 l 418 815 l 258 1021 l 399 1021 l 530 815 z "},"Ȃ":{"ha":906,"x_min":18,"x_max":888,"o":"m 728 0 l 638 264 l 265 264 l 176 0 l 18 0 l 371 979 l 535 979 l 888 0 l 728 0 m 450 816 l 304 387 l 600 387 l 454 816 l 450 816 m 227 1045 q 293 1195 233 1135 q 453 1256 354 1256 q 613 1195 552 1256 q 680 1045 673 1135 l 581 1045 q 541 1137 575 1103 q 453 1171 506 1171 q 366 1137 400 1171 q 326 1045 331 1103 l 227 1045 z "},"ȃ":{"ha":720,"x_min":44,"x_max":650,"o":"m 322 104 q 452 151 399 104 q 505 267 505 198 l 505 323 l 329 313 q 228 280 263 308 q 192 207 192 253 q 228 132 192 160 q 322 104 263 104 m 281 -12 q 110 47 176 -12 q 44 203 44 107 q 113 352 44 296 q 309 414 182 407 l 505 425 l 505 480 q 467 573 505 540 q 361 607 429 607 q 260 579 299 607 q 211 503 221 551 l 73 503 q 158 664 79 602 q 367 726 237 726 q 573 663 496 726 q 650 492 650 599 l 650 0 l 510 0 l 510 117 l 507 117 q 414 23 476 58 q 281 -12 352 -12 m 132 812 q 194 966 133 907 q 359 1025 255 1025 q 525 966 464 1025 q 587 812 586 907 l 488 812 q 452 906 488 871 q 359 942 416 942 q 267 906 302 942 q 231 812 231 871 l 132 812 z "},"Ȅ":{"ha":777,"x_min":37,"x_max":711,"o":"m 711 132 l 711 0 l 90 0 l 90 979 l 711 979 l 711 848 l 242 848 l 242 562 l 686 562 l 686 435 l 242 435 l 242 132 l 711 132 m 451 1057 l 273 1257 l 424 1257 l 574 1057 l 451 1057 m 215 1057 l 37 1257 l 187 1257 l 338 1057 l 215 1057 z "},"ȅ":{"ha":733,"x_min":41,"x_max":692,"o":"m 495 557 q 471 583 495 557 q 371 608 447 608 q 245 556 295 608 q 189 422 195 505 l 546 422 q 495 557 543 505 m 545 210 l 684 210 q 584 49 669 111 q 377 -14 499 -14 q 131 85 220 -14 q 41 353 41 184 q 131 624 41 522 q 371 726 220 726 q 606 630 519 726 q 692 370 692 533 l 692 320 l 189 320 l 189 311 q 241 161 189 218 q 380 105 293 105 q 486 134 442 105 q 545 210 530 162 m 314 815 l 202 815 l 42 1021 l 182 1021 l 314 815 m 541 815 l 430 815 l 269 1021 l 410 1021 l 541 815 z "},"Ȇ":{"ha":777,"x_min":90,"x_max":711,"o":"m 711 132 l 711 0 l 90 0 l 90 979 l 711 979 l 711 848 l 242 848 l 242 562 l 686 562 l 686 435 l 242 435 l 242 132 l 711 132 m 174 1045 q 241 1195 180 1135 q 401 1256 302 1256 q 561 1195 500 1256 q 627 1045 621 1135 l 528 1045 q 488 1137 523 1103 q 401 1171 454 1171 q 313 1137 348 1171 q 273 1045 279 1103 l 174 1045 z "},"ȇ":{"ha":733,"x_min":41,"x_max":692,"o":"m 495 557 q 471 583 495 557 q 371 608 447 608 q 245 556 295 608 q 189 422 195 505 l 546 422 q 495 557 543 505 m 545 210 l 684 210 q 584 49 669 111 q 377 -14 499 -14 q 131 85 220 -14 q 41 353 41 184 q 131 624 41 522 q 371 726 220 726 q 606 630 519 726 q 692 370 692 533 l 692 320 l 189 320 l 189 311 q 241 161 189 218 q 380 105 293 105 q 486 134 442 105 q 545 210 530 162 m 144 812 q 205 966 144 907 q 371 1025 267 1025 q 536 966 475 1025 q 598 812 597 907 l 499 812 q 464 906 499 871 q 371 942 428 942 q 278 906 314 942 q 243 812 243 871 l 144 812 z "},"Ȉ":{"ha":332,"x_min":-198,"x_max":340,"o":"m 242 0 l 90 0 l 90 979 l 242 979 l 242 0 m 216 1057 l 39 1257 l 189 1257 l 340 1057 l 216 1057 m -20 1057 l -198 1257 l -47 1257 l 103 1057 l -20 1057 z "},"ȉ":{"ha":301,"x_min":-178,"x_max":321,"o":"m 77 0 l 77 713 l 224 713 l 224 0 l 77 0 m 94 815 l -18 815 l -178 1021 l -38 1021 l 94 815 m 321 815 l 210 815 l 49 1021 l 190 1021 l 321 815 z "},"Ȋ":{"ha":332,"x_min":-60,"x_max":393,"o":"m 242 0 l 90 0 l 90 979 l 242 979 l 242 0 m -60 1045 q 6 1195 -54 1135 q 166 1256 67 1256 q 326 1195 265 1256 q 393 1045 387 1135 l 294 1045 q 254 1137 288 1103 q 166 1171 219 1171 q 79 1137 113 1171 q 39 1045 44 1103 l -60 1045 z "},"ȋ":{"ha":301,"x_min":-77,"x_max":378,"o":"m 77 0 l 77 713 l 224 713 l 224 0 l 77 0 m -77 812 q -15 966 -76 907 q 151 1025 46 1025 q 316 966 255 1025 q 378 812 377 907 l 279 812 q 243 906 279 871 q 151 942 208 942 q 58 906 94 942 q 22 812 22 871 l -77 812 z "},"Ȍ":{"ha":1026,"x_min":55,"x_max":972,"o":"m 513 995 q 848 859 724 995 q 972 489 972 722 q 848 120 972 256 q 513 -16 725 -16 q 178 120 302 -16 q 55 489 55 256 q 178 859 55 722 q 513 995 302 995 m 513 861 q 292 761 374 861 q 210 489 210 661 q 292 218 210 318 q 513 117 374 117 q 734 218 652 117 q 816 489 816 318 q 734 761 816 661 q 513 861 652 861 m 564 1057 l 386 1257 l 536 1257 l 687 1057 l 564 1057 m 328 1057 l 149 1257 l 300 1257 l 450 1057 l 328 1057 z "},"ȍ":{"ha":758,"x_min":41,"x_max":718,"o":"m 625 86 q 579 36 625 86 q 379 -14 533 -14 q 133 86 225 -14 q 41 357 41 185 q 133 627 41 528 q 379 726 225 726 q 625 627 533 726 q 718 357 718 528 q 625 86 718 185 m 379 107 q 517 173 467 107 q 568 357 568 239 q 517 540 568 474 q 379 606 466 606 q 241 540 292 606 q 190 357 190 474 q 241 173 190 239 q 379 107 292 107 m 322 815 l 210 815 l 50 1021 l 191 1021 l 322 815 m 549 815 l 438 815 l 277 1021 l 418 1021 l 549 815 z "},"Ȏ":{"ha":1026,"x_min":55,"x_max":972,"o":"m 513 995 q 848 859 724 995 q 972 489 972 722 q 848 120 972 256 q 513 -16 725 -16 q 178 120 302 -16 q 55 489 55 256 q 178 859 55 722 q 513 995 302 995 m 513 861 q 292 761 374 861 q 210 489 210 661 q 292 218 210 318 q 513 117 374 117 q 734 218 652 117 q 816 489 816 318 q 734 761 816 661 q 513 861 652 861 m 287 1045 q 354 1195 293 1135 q 513 1256 414 1256 q 673 1195 612 1256 q 740 1045 734 1135 l 641 1045 q 601 1137 635 1103 q 513 1171 566 1171 q 426 1137 460 1171 q 386 1045 391 1103 l 287 1045 z "},"ȏ":{"ha":758,"x_min":41,"x_max":718,"o":"m 625 86 q 579 36 625 86 q 379 -14 533 -14 q 133 86 225 -14 q 41 357 41 185 q 133 627 41 528 q 379 726 225 726 q 625 627 533 726 q 718 357 718 528 q 625 86 718 185 m 379 107 q 517 173 467 107 q 568 357 568 239 q 517 540 568 474 q 379 606 466 606 q 241 540 292 606 q 190 357 190 474 q 241 173 190 239 q 379 107 292 107 m 152 812 q 214 966 153 907 q 379 1025 275 1025 q 545 966 484 1025 q 606 812 606 907 l 507 812 q 472 906 507 871 q 379 942 436 942 q 287 906 322 942 q 251 812 251 871 l 152 812 z "},"Ȑ":{"ha":852,"x_min":18,"x_max":825,"o":"m 242 851 l 242 499 l 455 499 q 591 545 543 499 q 640 675 640 591 q 589 804 640 758 q 451 851 539 851 l 242 851 m 242 376 l 242 0 l 90 0 l 90 979 l 469 979 q 708 898 620 979 q 796 680 796 817 q 746 505 796 580 q 606 400 695 430 l 825 0 l 650 0 l 451 376 l 242 376 m 433 1057 l 255 1257 l 406 1257 l 556 1057 l 433 1057 m 197 1057 l 18 1257 l 169 1257 l 319 1057 l 197 1057 z "},"ȑ":{"ha":456,"x_min":-79,"x_max":437,"o":"m 73 0 l 73 713 l 212 713 l 212 592 l 216 592 q 279 690 233 654 q 387 725 324 725 q 437 720 408 725 l 437 583 q 372 591 418 591 q 260 547 301 591 q 219 427 219 503 l 219 0 l 73 0 m 193 815 l 81 815 l -79 1021 l 62 1021 l 193 815 m 420 815 l 309 815 l 149 1021 l 290 1021 l 420 815 z "},"Ȓ":{"ha":852,"x_min":90,"x_max":825,"o":"m 242 851 l 242 499 l 455 499 q 591 545 543 499 q 640 675 640 591 q 589 804 640 758 q 451 851 539 851 l 242 851 m 242 376 l 242 0 l 90 0 l 90 979 l 469 979 q 708 898 620 979 q 796 680 796 817 q 746 505 796 580 q 606 400 695 430 l 825 0 l 650 0 l 451 376 l 242 376 m 156 1045 q 223 1195 162 1135 q 382 1256 283 1256 q 542 1195 481 1256 q 609 1045 603 1135 l 510 1045 q 470 1137 505 1103 q 382 1171 435 1171 q 295 1137 330 1171 q 255 1045 260 1103 l 156 1045 z "},"ȓ":{"ha":456,"x_min":23,"x_max":477,"o":"m 73 0 l 73 713 l 212 713 l 212 592 l 216 592 q 279 690 233 654 q 387 725 324 725 q 437 720 408 725 l 437 583 q 372 591 418 591 q 260 547 301 591 q 219 427 219 503 l 219 0 l 73 0 m 23 812 q 85 966 24 907 q 250 1025 146 1025 q 416 966 355 1025 q 477 812 477 907 l 378 812 q 343 906 378 871 q 250 942 307 942 q 158 906 193 942 q 122 812 122 871 l 23 812 z "},"Ȕ":{"ha":972,"x_min":90,"x_max":882,"o":"m 242 979 l 242 357 q 307 184 242 250 q 486 119 372 119 q 666 184 601 119 q 731 357 731 250 l 731 979 l 882 979 l 882 344 q 775 83 882 183 q 486 -16 668 -16 q 197 83 304 -16 q 90 344 90 183 l 90 979 l 242 979 m 536 1057 l 359 1257 l 509 1257 l 660 1057 l 536 1057 m 300 1057 l 122 1257 l 273 1257 l 423 1057 l 300 1057 z "},"ȕ":{"ha":756,"x_min":48,"x_max":684,"o":"m 684 713 l 684 0 l 544 0 l 544 121 l 541 121 q 319 -13 479 -13 q 136 58 203 -13 q 69 252 69 129 l 69 713 l 216 713 l 216 280 q 254 156 216 198 q 368 113 293 113 q 492 163 447 113 q 538 298 538 214 l 538 713 l 684 713 m 320 815 l 208 815 l 48 1021 l 189 1021 l 320 815 m 547 815 l 436 815 l 275 1021 l 416 1021 l 547 815 z "},"Ȗ":{"ha":972,"x_min":90,"x_max":882,"o":"m 242 979 l 242 357 q 307 184 242 250 q 486 119 372 119 q 666 184 601 119 q 731 357 731 250 l 731 979 l 882 979 l 882 344 q 775 83 882 183 q 486 -16 668 -16 q 197 83 304 -16 q 90 344 90 183 l 90 979 l 242 979 m 260 1045 q 327 1195 266 1135 q 486 1256 387 1256 q 646 1195 585 1256 q 713 1045 707 1135 l 614 1045 q 574 1137 608 1103 q 486 1171 539 1171 q 399 1137 433 1171 q 359 1045 364 1103 l 260 1045 z "},"ȗ":{"ha":756,"x_min":69,"x_max":684,"o":"m 684 713 l 684 0 l 544 0 l 544 121 l 541 121 q 319 -13 479 -13 q 136 58 203 -13 q 69 252 69 129 l 69 713 l 216 713 l 216 280 q 254 156 216 198 q 368 113 293 113 q 492 163 447 113 q 538 298 538 214 l 538 713 l 684 713 m 150 812 q 212 966 151 907 q 377 1025 273 1025 q 543 966 481 1025 q 604 812 604 907 l 505 812 q 470 906 505 871 q 377 942 434 942 q 284 906 320 942 q 249 812 249 871 l 150 812 z "},"Ș":{"ha":844,"x_min":47,"x_max":798,"o":"m 47 273 l 197 273 q 269 156 205 200 q 431 112 334 112 q 583 155 523 112 q 643 263 643 197 q 600 356 643 320 q 463 416 557 393 l 336 446 q 137 543 201 479 q 73 710 73 608 q 172 916 73 836 q 429 995 271 995 q 681 916 583 995 q 782 710 779 837 l 634 710 q 571 825 627 783 q 427 867 515 867 q 283 826 338 867 q 228 720 228 785 q 269 636 228 669 q 406 579 311 603 l 513 553 q 731 453 664 517 q 798 281 798 389 q 696 64 798 144 q 420 -16 594 -16 q 155 62 256 -16 q 47 273 54 140 m 401 -326 l 294 -326 l 372 -87 l 501 -87 l 401 -326 z "},"ș":{"ha":671,"x_min":41,"x_max":630,"o":"m 60 511 q 137 667 60 607 q 339 726 214 726 q 534 666 458 726 q 614 511 610 606 l 476 511 q 433 587 471 559 q 335 615 396 615 q 239 589 275 615 q 203 520 203 562 q 312 428 203 455 l 432 400 q 585 330 540 374 q 630 206 630 286 q 548 47 630 109 q 334 -14 465 -14 q 129 46 208 -14 q 41 205 50 106 l 186 205 q 235 126 195 153 q 340 98 274 98 q 445 124 406 98 q 483 193 483 149 q 460 248 483 227 q 381 282 437 268 l 254 313 q 60 511 60 360 m 314 -326 l 206 -326 l 285 -87 l 414 -87 l 314 -326 z "},"Ț":{"ha":817,"x_min":33,"x_max":784,"o":"m 485 0 l 333 0 l 333 848 l 33 848 l 33 979 l 784 979 l 784 848 l 485 848 l 485 0 m 374 -326 l 266 -326 l 345 -87 l 473 -87 l 374 -326 z "},"ț":{"ha":446,"x_min":12,"x_max":398,"o":"m 115 882 l 262 882 l 262 713 l 398 713 l 398 597 l 262 597 l 262 204 q 283 136 262 158 q 349 115 304 115 q 397 118 382 115 l 397 2 q 316 -5 370 -5 q 162 40 208 -5 q 115 188 115 84 l 115 597 l 12 597 l 12 713 l 115 713 l 115 882 m 237 -326 l 130 -326 l 208 -87 l 337 -87 l 237 -326 z "},"Ȟ":{"ha":986,"x_min":90,"x_max":897,"o":"m 897 0 l 745 0 l 745 433 l 242 433 l 242 0 l 90 0 l 90 979 l 242 979 l 242 565 l 745 565 l 745 979 l 897 979 l 897 0 m 437 1049 l 248 1256 l 374 1256 l 491 1126 l 495 1126 l 612 1256 l 738 1256 l 549 1049 l 437 1049 z "},"ȟ":{"ha":771,"x_min":-93,"x_max":703,"o":"m 78 0 l 78 979 l 223 979 l 223 594 l 227 594 q 314 691 256 657 q 452 726 372 726 q 636 654 569 726 q 703 460 703 582 l 703 0 l 555 0 l 555 431 q 516 555 555 511 q 399 600 476 600 q 272 548 319 600 q 224 412 224 497 l 224 0 l 78 0 m 96 1049 l -93 1256 l 33 1256 l 150 1126 l 154 1126 l 271 1256 l 397 1256 l 208 1049 l 96 1049 z "},"Ȧ":{"ha":906,"x_min":18,"x_max":888,"o":"m 728 0 l 638 264 l 265 264 l 176 0 l 18 0 l 371 979 l 535 979 l 888 0 l 728 0 m 450 816 l 304 387 l 600 387 l 454 816 l 450 816 m 516 1095 q 503 1082 516 1095 q 453 1069 490 1069 q 390 1095 416 1069 q 364 1158 364 1121 q 390 1221 364 1195 q 453 1246 416 1246 q 516 1221 490 1246 q 542 1158 542 1195 q 516 1095 542 1121 z "},"ȧ":{"ha":720,"x_min":44,"x_max":650,"o":"m 322 104 q 452 151 399 104 q 505 267 505 198 l 505 323 l 329 313 q 228 280 263 308 q 192 207 192 253 q 228 132 192 160 q 322 104 263 104 m 281 -12 q 110 47 176 -12 q 44 203 44 107 q 113 352 44 296 q 309 414 182 407 l 505 425 l 505 480 q 467 573 505 540 q 361 607 429 607 q 260 579 299 607 q 211 503 221 551 l 73 503 q 158 664 79 602 q 367 726 237 726 q 573 663 496 726 q 650 492 650 599 l 650 0 l 510 0 l 510 117 l 507 117 q 414 23 476 58 q 281 -12 352 -12 m 423 846 q 410 833 423 846 q 359 820 397 820 q 295 846 322 820 q 269 910 269 873 q 295 973 269 947 q 359 1000 322 1000 q 423 973 397 1000 q 450 910 450 947 q 423 846 450 873 z "},"Ȩ":{"ha":777,"x_min":90,"x_max":711,"o":"m 711 848 l 242 848 l 242 562 l 686 562 l 686 435 l 242 435 l 242 132 l 711 132 l 711 0 l 459 0 l 422 -83 q 524 -113 486 -84 q 562 -193 562 -142 q 517 -282 562 -250 q 399 -315 472 -314 q 300 -306 334 -317 l 300 -232 q 381 -240 336 -240 q 463 -195 463 -240 q 441 -163 463 -173 q 370 -154 419 -154 l 324 -154 l 324 -100 l 366 0 l 90 0 l 90 979 l 711 979 l 711 848 z "},"ȩ":{"ha":733,"x_min":41,"x_max":692,"o":"m 189 422 l 546 422 q 495 557 543 505 q 371 608 447 608 q 245 556 295 608 q 189 422 195 505 m 692 320 l 189 320 l 189 311 q 241 161 189 218 q 380 105 293 105 q 486 134 442 105 q 545 210 530 162 l 684 210 q 601 62 671 122 q 429 -10 532 3 l 397 -83 q 498 -113 460 -84 q 536 -193 536 -142 q 491 -282 536 -250 q 374 -315 446 -314 q 274 -306 309 -317 l 274 -232 q 355 -240 310 -240 q 437 -195 437 -240 q 415 -163 437 -173 q 344 -154 393 -154 l 298 -154 l 298 -100 l 335 -12 q 119 99 197 1 q 41 353 41 196 q 131 624 41 522 q 371 726 220 726 q 606 630 519 726 q 692 370 692 533 l 692 320 z "},"Ȫ":{"ha":1026,"x_min":55,"x_max":972,"o":"m 513 995 q 848 859 724 995 q 972 489 972 722 q 848 120 972 256 q 513 -16 725 -16 q 178 120 302 -16 q 55 489 55 256 q 178 859 55 722 q 513 995 302 995 m 513 861 q 292 761 374 861 q 210 489 210 661 q 292 218 210 318 q 513 117 374 117 q 734 218 652 117 q 816 489 816 318 q 734 761 816 661 q 513 861 652 861 m 388 1206 q 443 1184 420 1206 q 465 1129 465 1161 q 443 1075 465 1097 q 388 1052 420 1052 q 333 1075 355 1052 q 310 1129 310 1097 q 333 1184 310 1161 q 388 1206 355 1206 m 292 1385 l 735 1385 l 735 1299 l 292 1299 l 292 1385 m 639 1206 q 694 1184 671 1206 q 717 1129 717 1161 q 694 1075 717 1097 q 639 1052 671 1052 q 584 1075 607 1052 q 562 1129 562 1097 q 584 1184 562 1161 q 639 1206 607 1206 z "},"ȫ":{"ha":758,"x_min":41,"x_max":718,"o":"m 625 86 q 579 36 625 86 q 379 -14 533 -14 q 133 86 225 -14 q 41 357 41 185 q 133 627 41 528 q 379 726 225 726 q 625 627 533 726 q 718 357 718 528 q 625 86 718 185 m 379 107 q 517 173 467 107 q 568 357 568 239 q 517 540 568 474 q 379 606 466 606 q 241 540 292 606 q 190 357 190 474 q 241 173 190 239 q 379 107 292 107 m 248 791 q 191 814 214 791 q 168 871 168 838 q 191 927 168 904 q 248 950 214 950 q 305 927 281 950 q 328 871 328 904 q 305 814 328 838 q 248 791 281 791 m 510 791 q 453 814 477 791 q 430 871 430 838 q 453 927 430 904 q 510 950 477 950 q 567 927 544 950 q 591 871 591 904 q 567 814 591 838 q 510 791 544 791 m 582 1133 l 582 1046 l 176 1046 l 176 1133 l 582 1133 z "},"Ȭ":{"ha":1026,"x_min":55,"x_max":972,"o":"m 513 995 q 848 859 724 995 q 972 489 972 722 q 848 120 972 256 q 513 -16 725 -16 q 178 120 302 -16 q 55 489 55 256 q 178 859 55 722 q 513 995 302 995 m 513 861 q 292 761 374 861 q 210 489 210 661 q 292 218 210 318 q 513 117 374 117 q 734 218 652 117 q 816 489 816 318 q 734 761 816 661 q 513 861 652 861 m 602 1045 q 545 1060 572 1045 q 501 1094 517 1076 q 465 1127 484 1112 q 429 1142 445 1142 q 393 1119 406 1142 q 382 1058 380 1097 l 296 1058 q 332 1181 296 1137 q 427 1226 368 1226 q 483 1211 456 1226 q 526 1178 510 1196 q 563 1144 543 1160 q 600 1129 583 1129 q 645 1215 644 1129 l 731 1215 q 694 1091 731 1137 q 602 1045 658 1045 m 735 1385 l 735 1299 l 292 1299 l 292 1385 l 735 1385 z "},"ȭ":{"ha":758,"x_min":41,"x_max":718,"o":"m 625 86 q 579 36 625 86 q 379 -14 533 -14 q 133 86 225 -14 q 41 357 41 185 q 133 627 41 528 q 379 726 225 726 q 625 627 533 726 q 718 357 718 528 q 625 86 718 185 m 379 107 q 517 173 467 107 q 568 357 568 239 q 517 540 568 474 q 379 606 466 606 q 241 540 292 606 q 190 357 190 474 q 241 173 190 239 q 379 107 292 107 m 473 788 q 425 798 448 788 q 386 823 402 808 q 354 852 369 838 q 325 877 340 867 q 295 887 309 887 q 258 863 271 887 q 247 796 245 839 l 157 796 q 194 926 157 880 q 293 973 232 973 q 343 963 319 973 q 383 938 367 953 q 414 909 399 924 q 443 884 429 895 q 471 874 457 874 q 505 898 493 874 q 517 967 517 922 l 608 967 q 570 837 608 885 q 473 788 532 788 m 582 1133 l 582 1046 l 176 1046 l 176 1133 l 582 1133 z "},"Ȯ":{"ha":1026,"x_min":55,"x_max":972,"o":"m 513 995 q 848 859 724 995 q 972 489 972 722 q 848 120 972 256 q 513 -16 725 -16 q 178 120 302 -16 q 55 489 55 256 q 178 859 55 722 q 513 995 302 995 m 513 861 q 292 761 374 861 q 210 489 210 661 q 292 218 210 318 q 513 117 374 117 q 734 218 652 117 q 816 489 816 318 q 734 761 816 661 q 513 861 652 861 m 576 1095 q 564 1082 576 1095 q 513 1069 551 1069 q 450 1095 476 1069 q 425 1158 425 1121 q 450 1221 425 1195 q 513 1246 476 1246 q 576 1221 551 1246 q 602 1158 602 1195 q 576 1095 602 1121 z "},"ȯ":{"ha":758,"x_min":41,"x_max":718,"o":"m 625 86 q 579 36 625 86 q 379 -14 533 -14 q 133 86 225 -14 q 41 357 41 185 q 133 627 41 528 q 379 726 225 726 q 625 627 533 726 q 718 357 718 528 q 625 86 718 185 m 379 107 q 517 173 467 107 q 568 357 568 239 q 517 540 568 474 q 379 606 466 606 q 241 540 292 606 q 190 357 190 474 q 241 173 190 239 q 379 107 292 107 m 443 846 q 430 833 443 846 q 379 820 416 820 q 315 846 342 820 q 288 910 288 873 q 315 973 288 947 q 379 1000 342 1000 q 443 973 416 1000 q 469 910 469 947 q 443 846 469 873 z "},"Ȱ":{"ha":1026,"x_min":55,"x_max":972,"o":"m 513 995 q 848 859 724 995 q 972 489 972 722 q 848 120 972 256 q 513 -16 725 -16 q 178 120 302 -16 q 55 489 55 256 q 178 859 55 722 q 513 995 302 995 m 513 861 q 292 761 374 861 q 210 489 210 661 q 292 218 210 318 q 513 117 374 117 q 734 218 652 117 q 816 489 816 318 q 734 761 816 661 q 513 861 652 861 m 573 1087 q 561 1075 573 1087 q 513 1063 549 1063 q 454 1087 478 1063 q 429 1146 429 1112 q 454 1204 429 1180 q 513 1228 478 1228 q 573 1204 549 1228 q 597 1146 597 1180 q 573 1087 597 1112 m 735 1385 l 735 1299 l 292 1299 l 292 1385 l 735 1385 z "},"ȱ":{"ha":758,"x_min":41,"x_max":718,"o":"m 625 86 q 579 36 625 86 q 379 -14 533 -14 q 133 86 225 -14 q 41 357 41 185 q 133 627 41 528 q 379 726 225 726 q 625 627 533 726 q 718 357 718 528 q 625 86 718 185 m 379 107 q 517 173 467 107 q 568 357 568 239 q 517 540 568 474 q 379 606 466 606 q 241 540 292 606 q 190 357 190 474 q 241 173 190 239 q 379 107 292 107 m 442 826 q 429 813 442 826 q 379 800 416 800 q 316 826 342 800 q 290 889 290 852 q 316 951 290 925 q 379 978 342 978 q 442 951 416 978 q 469 889 469 925 q 442 826 469 852 m 582 1135 l 582 1048 l 176 1048 l 176 1135 l 582 1135 z "},"Ȳ":{"ha":877,"x_min":18,"x_max":859,"o":"m 514 0 l 362 0 l 362 401 l 18 979 l 187 979 l 437 547 l 441 547 l 691 979 l 859 979 l 514 401 l 514 0 m 660 1191 l 660 1105 l 216 1105 l 216 1191 l 660 1191 z "},"ȳ":{"ha":703,"x_min":13,"x_max":690,"o":"m 143 -266 q 83 -262 102 -266 l 83 -144 q 131 -146 94 -146 q 212 -123 182 -146 q 258 -45 241 -100 q 264 -22 258 -44 l 271 -1 l 13 713 l 172 713 l 353 133 l 355 133 l 536 713 l 690 713 l 422 -37 q 316 -216 377 -167 q 143 -266 255 -266 m 555 937 l 555 850 l 149 850 l 149 937 l 555 937 z "},"ȷ":{"ha":301,"x_min":-43,"x_max":224,"o":"m 224 713 l 224 -34 q 166 -196 224 -143 q -9 -248 109 -248 q -43 -247 -39 -248 l -43 -132 q -33 -132 -42 -132 q -22 -132 -24 -132 q 55 -110 32 -132 q 77 -33 77 -87 l 77 713 l 224 713 z "},"ʼ":{"ha":378,"x_min":85,"x_max":294,"o":"m 201 621 l 85 621 l 145 979 l 294 979 l 201 621 z "},"ˆ":{"ha":684,"x_min":103,"x_max":581,"o":"m 398 1078 l 581 869 l 455 869 l 344 998 l 340 998 l 229 869 l 103 869 l 286 1078 l 398 1078 z "},"ˇ":{"ha":684,"x_min":103,"x_max":581,"o":"m 398 869 l 286 869 l 103 1078 l 229 1078 l 340 947 l 344 947 l 455 1078 l 581 1078 l 398 869 z "},"˘":{"ha":678,"x_min":112,"x_max":566,"o":"m 112 1077 l 211 1077 q 247 983 211 1019 q 339 947 282 947 q 432 983 396 947 q 467 1077 467 1019 l 566 1077 q 504 924 566 983 q 339 864 443 864 q 174 924 235 864 q 112 1077 113 983 z "},"˙":{"ha":621,"x_min":220,"x_max":401,"o":"m 374 903 q 361 890 374 903 q 311 877 348 877 q 247 903 273 877 q 220 967 220 930 q 247 1030 220 1004 q 311 1057 273 1057 q 374 1030 348 1057 q 401 967 401 1004 q 374 903 401 930 z "},"˚":{"ha":707,"x_min":218,"x_max":489,"o":"m 449 876 q 429 856 449 876 q 353 836 410 836 q 257 876 297 836 q 218 970 218 915 q 257 1066 218 1027 q 353 1106 297 1106 q 449 1066 410 1106 q 489 970 489 1027 q 449 876 489 915 m 306 923 q 316 913 306 923 q 353 903 326 903 q 401 923 381 903 q 421 970 421 943 q 401 1019 421 999 q 353 1038 381 1038 q 306 1019 326 1038 q 286 970 286 999 q 306 923 286 943 z "},"˛":{"ha":678,"x_min":224,"x_max":460,"o":"m 460 -214 l 460 -304 q 375 -317 423 -317 q 266 -281 307 -317 q 224 -185 224 -245 q 340 0 224 -81 l 427 0 q 356 -75 378 -39 q 334 -149 334 -111 q 355 -200 334 -181 q 412 -220 376 -220 q 460 -214 434 -220 z "},"˜":{"ha":684,"x_min":116,"x_max":567,"o":"m 432 874 q 384 884 407 874 q 345 909 361 895 q 314 938 328 924 q 284 963 299 953 q 254 973 269 973 q 218 949 231 973 q 206 882 205 925 l 116 882 q 154 1013 116 966 q 252 1059 191 1059 q 302 1049 279 1059 q 342 1024 326 1039 q 373 995 359 1010 q 402 970 388 981 q 430 960 416 960 q 465 984 452 960 q 477 1053 477 1008 l 567 1053 q 529 923 567 971 q 432 874 491 874 z "},"˝":{"ha":678,"x_min":91,"x_max":589,"o":"m 318 872 l 450 1078 l 589 1078 l 429 872 l 318 872 m 91 872 l 222 1078 l 362 1078 l 201 872 l 91 872 z "},"̀":{"ha":0,"x_min":-235,"x_max":57,"o":"m 57 839 l -66 839 l -235 1044 l -88 1044 l 57 839 z "},"́":{"ha":0,"x_min":-61,"x_max":231,"o":"m 62 839 l -61 839 l 84 1044 l 231 1044 l 62 839 z "},"̂":{"ha":0,"x_min":-239,"x_max":239,"o":"m 56 1044 l 239 836 l 113 836 l 2 965 l -2 965 l -113 836 l -239 836 l -56 1044 l 56 1044 z "},"̃":{"ha":0,"x_min":-222,"x_max":229,"o":"m 94 841 q 46 851 68 841 q 6 876 23 861 q -25 905 -10 890 q -55 930 -39 920 q -84 940 -70 940 q -121 916 -108 940 q -132 849 -134 892 l -222 849 q -185 979 -222 932 q -86 1026 -147 1026 q -36 1016 -60 1026 q 4 991 -12 1006 q 35 962 20 977 q 64 937 50 947 q 92 927 78 927 q 126 951 114 927 q 138 1020 138 975 l 229 1020 q 191 889 229 938 q 94 841 153 841 z "},"̄":{"ha":0,"x_min":-203,"x_max":203,"o":"m 203 961 l 203 874 l -203 874 l -203 961 l 203 961 z "},"̆":{"ha":0,"x_min":-228,"x_max":227,"o":"m -228 1044 l -129 1044 q -93 949 -129 985 q -1 913 -58 913 q 92 949 56 913 q 127 1044 127 985 l 227 1044 q 164 890 226 950 q -1 831 103 831 q -166 890 -104 831 q -228 1044 -227 950 z "},"̇":{"ha":0,"x_min":-91,"x_max":90,"o":"m 64 870 q 51 857 64 870 q 0 844 37 844 q -64 870 -37 844 q -91 934 -91 897 q -64 997 -91 970 q 0 1023 -37 1023 q 64 997 37 1023 q 90 934 90 970 q 64 870 90 897 z "},"̈":{"ha":0,"x_min":-211,"x_max":211,"o":"m -130 844 q -188 867 -164 844 q -211 923 -211 890 q -188 979 -211 956 q -130 1002 -164 1002 q -74 979 -97 1002 q -50 923 -50 956 q -74 867 -50 890 q -130 844 -97 844 m 131 844 q 74 867 97 844 q 50 923 50 890 q 74 979 50 956 q 131 1002 97 1002 q 188 979 164 1002 q 211 923 211 956 q 188 867 211 890 q 131 844 164 844 z "},"̉":{"ha":0,"x_min":-89,"x_max":144,"o":"m -89 982 l -89 1060 q 6 1078 -47 1078 q 107 1043 69 1078 q 144 951 144 1009 q 113 869 144 907 q 28 810 81 831 l -19 871 q 44 945 44 895 q 26 982 44 967 q -20 998 7 998 q -89 982 -50 998 z "},"̊":{"ha":0,"x_min":-136,"x_max":136,"o":"m 96 841 q 76 821 96 841 q 0 802 56 802 q -96 841 -56 802 q -136 936 -136 880 q -96 1031 -136 991 q 0 1072 -56 1072 q 96 1031 56 1072 q 136 936 136 991 q 96 841 136 880 m -48 888 q -38 879 -48 888 q 0 869 -28 869 q 48 888 28 869 q 68 936 68 908 q 48 984 68 964 q 0 1004 28 1004 q -48 984 -28 1004 q -68 936 -68 964 q -48 888 -68 908 z "},"̋":{"ha":0,"x_min":-170,"x_max":328,"o":"m 57 839 l 189 1044 l 328 1044 l 168 839 l 57 839 m -170 839 l -39 1044 l 101 1044 l -60 839 l -170 839 z "},"̌":{"ha":0,"x_min":-239,"x_max":239,"o":"m 56 836 l -56 836 l -239 1044 l -113 1044 l -2 913 l 2 913 l 113 1044 l 239 1044 l 56 836 z "},"̏":{"ha":0,"x_min":-329,"x_max":170,"o":"m -57 839 l -169 839 l -329 1044 l -189 1044 l -57 839 m 170 839 l 59 839 l -102 1044 l 39 1044 l 170 839 z "},"̑":{"ha":0,"x_min":-227,"x_max":227,"o":"m -227 836 q -165 990 -227 931 q 0 1049 -104 1049 q 165 990 104 1049 q 227 836 227 931 l 128 836 q 93 930 128 895 q 0 966 57 966 q -93 930 -57 966 q -128 836 -128 895 l -227 836 z "},"̛":{"ha":0,"x_min":0,"x_max":258,"o":"m 0 614 l 0 722 q 62 698 26 696 q 117 723 100 699 q 134 804 134 748 l 134 909 l 258 909 l 258 769 q 212 638 258 688 q 91 588 165 588 q 0 614 35 588 z "},"̣":{"ha":0,"x_min":-89,"x_max":89,"o":"m 63 -254 q 50 -267 63 -254 q 0 -280 37 -280 q -63 -254 -37 -280 q -89 -191 -89 -228 q -63 -128 -89 -154 q 0 -102 -37 -102 q 63 -128 37 -102 q 89 -191 89 -154 q 63 -254 89 -228 z "},"̤":{"ha":0,"x_min":-211,"x_max":211,"o":"m -130 -246 q -188 -223 -164 -246 q -211 -167 -211 -200 q -188 -111 -211 -134 q -130 -87 -164 -87 q -74 -111 -97 -87 q -50 -167 -50 -134 q -74 -223 -50 -200 q -130 -246 -97 -246 m 131 -246 q 74 -223 97 -246 q 50 -167 50 -200 q 74 -111 50 -134 q 131 -87 97 -87 q 188 -111 164 -87 q 211 -167 211 -134 q 188 -223 211 -200 q 131 -246 164 -246 z "},"̥":{"ha":0,"x_min":-136,"x_max":136,"o":"m 96 -296 q 76 -315 96 -296 q 0 -335 56 -335 q -96 -296 -56 -335 q -136 -201 -136 -256 q -96 -105 -136 -145 q 0 -65 -56 -65 q 96 -105 56 -65 q 136 -201 136 -145 q 96 -296 136 -256 m -48 -248 q -38 -258 -48 -248 q 0 -268 -28 -268 q 48 -248 28 -268 q 68 -201 68 -229 q 48 -153 68 -172 q 0 -133 28 -133 q -48 -153 -28 -133 q -68 -201 -68 -172 q -48 -248 -68 -229 z "},"̦":{"ha":0,"x_min":-127,"x_max":81,"o":"m -19 -326 l -127 -326 l -48 -87 l 81 -87 l -19 -326 z "},"̧":{"ha":0,"x_min":-101,"x_max":161,"o":"m -77 -154 l -77 -100 l -33 6 l 58 6 l 58 0 l 22 -83 q 123 -113 85 -84 q 161 -193 161 -142 q 116 -282 161 -250 q -1 -315 71 -314 q -101 -306 -66 -317 l -101 -232 q -20 -240 -65 -240 q 62 -195 62 -240 q 40 -163 62 -173 q -31 -154 18 -154 l -77 -154 z "},"̨":{"ha":0,"x_min":-142,"x_max":93,"o":"m 93 -214 l 93 -304 q 8 -317 56 -317 q -101 -281 -60 -317 q -142 -185 -142 -245 q -27 0 -142 -81 l 60 0 q -11 -75 11 -39 q -33 -149 -33 -111 q -12 -200 -33 -181 q 45 -220 9 -220 q 93 -214 67 -220 z "},"̭":{"ha":0,"x_min":-245,"x_max":245,"o":"m -56 -90 l 56 -90 l 245 -296 l 119 -296 l 2 -166 l -2 -166 l -119 -296 l -245 -296 l -56 -90 z "},"̮":{"ha":0,"x_min":-227,"x_max":227,"o":"m -227 -75 l -127 -75 q -87 -167 -122 -133 q 0 -201 -53 -201 q 87 -167 53 -201 q 127 -75 122 -133 l 227 -75 q 160 -225 220 -164 q 0 -286 99 -286 q -160 -225 -99 -286 q -227 -75 -220 -164 z "},"̰":{"ha":0,"x_min":-224,"x_max":227,"o":"m 92 -247 q 44 -237 66 -247 q 4 -212 21 -227 q -27 -183 -12 -197 q -57 -158 -41 -168 q -86 -148 -72 -148 q -123 -172 -110 -148 q -134 -239 -136 -196 l -224 -239 q -187 -109 -224 -155 q -88 -62 -149 -62 q -38 -72 -62 -62 q 2 -97 -14 -82 q 33 -126 18 -111 q 62 -151 47 -140 q 90 -161 76 -161 q 124 -137 112 -161 q 136 -68 136 -113 l 227 -68 q 189 -198 227 -150 q 92 -247 151 -247 z "},"̱":{"ha":0,"x_min":-222,"x_max":222,"o":"m 222 -151 l 222 -237 l -222 -237 l -222 -151 l 222 -151 z "},";":{"ha":365,"x_min":58,"x_max":271,"o":"m 245 513 q 233 500 245 513 q 182 487 220 487 q 119 513 145 487 q 94 576 94 538 q 119 639 94 613 q 182 665 145 665 q 245 639 220 665 q 271 576 271 613 q 245 513 271 538 m 175 -201 l 58 -201 l 119 157 l 267 157 l 175 -201 z "},"΄":{"ha":589,"x_min":185,"x_max":406,"o":"m 185 814 l 237 1022 l 406 1022 l 303 814 l 185 814 z "},"΅":{"ha":843,"x_min":136,"x_max":708,"o":"m 275 845 q 263 833 275 845 q 217 821 251 821 q 159 845 183 821 q 136 902 136 869 q 159 959 136 936 q 217 983 183 983 q 275 959 251 983 q 298 902 298 936 q 275 845 298 869 m 684 845 q 672 833 684 845 q 627 821 661 821 q 569 845 593 821 q 545 902 545 869 q 569 959 545 935 q 627 983 593 983 q 684 959 661 983 q 708 902 708 936 q 684 845 708 869 m 342 817 l 362 1031 l 525 1031 l 448 817 l 342 817 z "},"Ά":{"ha":927,"x_min":39,"x_max":910,"o":"m 749 0 l 660 264 l 287 264 l 197 0 l 39 0 l 393 979 l 557 979 l 910 0 l 749 0 m 471 816 l 326 387 l 621 387 l 475 816 l 471 816 m 59 771 l 111 979 l 279 979 l 177 771 l 59 771 z "},"·":{"ha":380,"x_min":101,"x_max":279,"o":"m 253 586 q 240 573 253 586 q 190 560 227 560 q 127 586 153 560 q 101 649 101 612 q 127 712 101 686 q 190 738 153 738 q 253 712 227 738 q 279 649 279 686 q 253 586 279 612 z "},"Έ":{"ha":1030,"x_min":28,"x_max":964,"o":"m 28 771 l 79 979 l 248 979 l 146 771 l 28 771 m 964 132 l 964 0 l 342 0 l 342 979 l 964 979 l 964 848 l 494 848 l 494 562 l 939 562 l 939 435 l 494 435 l 494 132 l 964 132 z "},"Ή":{"ha":1239,"x_min":28,"x_max":1149,"o":"m 28 745 l 79 952 l 248 952 l 146 745 l 28 745 m 1149 0 l 997 0 l 997 433 l 494 433 l 494 0 l 342 0 l 342 979 l 494 979 l 494 565 l 997 565 l 997 979 l 1149 979 l 1149 0 z "},"Ί":{"ha":585,"x_min":28,"x_max":494,"o":"m 28 745 l 79 952 l 248 952 l 146 745 l 28 745 m 494 0 l 342 0 l 342 979 l 494 979 l 494 0 z "},"Ό":{"ha":1166,"x_min":15,"x_max":1112,"o":"m 15 745 l 66 952 l 235 952 l 133 745 l 15 745 m 654 995 q 988 859 865 995 q 1112 489 1112 722 q 989 120 1112 256 q 654 -16 865 -16 q 319 120 442 -16 q 195 489 195 256 q 319 859 195 722 q 654 995 442 995 m 654 861 q 432 761 514 861 q 351 489 351 661 q 432 218 351 318 q 654 117 514 117 q 874 218 793 117 q 956 489 956 318 q 874 761 956 661 q 654 861 793 861 z "},"Ύ":{"ha":1147,"x_min":17,"x_max":1130,"o":"m 17 745 l 68 952 l 237 952 l 135 745 l 17 745 m 785 0 l 633 0 l 633 401 l 288 979 l 458 979 l 707 547 l 712 547 l 962 979 l 1130 979 l 785 401 l 785 0 z "},"Ώ":{"ha":1190,"x_min":31,"x_max":1124,"o":"m 31 745 l 83 952 l 252 952 l 149 745 l 31 745 m 969 536 q 888 774 969 686 q 667 861 806 861 q 446 774 527 861 q 364 536 364 686 q 416 320 364 412 q 578 157 469 229 l 578 0 l 210 0 l 210 129 l 416 129 l 416 134 q 264 305 318 198 q 210 544 210 412 q 336 870 210 745 q 667 995 463 995 q 997 870 871 995 q 1124 544 1124 745 q 1069 305 1124 412 q 918 134 1015 198 l 918 129 l 1124 129 l 1124 0 l 754 0 l 754 157 q 917 320 864 229 q 969 536 969 412 z "},"ΐ":{"ha":387,"x_min":-107,"x_max":465,"o":"m 74 713 l 221 713 l 221 204 q 242 136 221 158 q 308 115 263 115 q 356 118 339 115 l 357 5 q 275 -5 319 -5 q 120 40 166 -5 q 74 188 74 84 l 74 713 m 32 845 q 20 833 32 845 q -26 821 8 821 q -83 845 -60 821 q -107 902 -107 869 q -83 959 -107 936 q -26 983 -60 983 q 32 959 8 983 q 56 902 56 936 q 32 845 56 869 m 441 845 q 430 833 441 845 q 384 821 418 821 q 326 845 350 821 q 302 902 302 869 q 326 959 302 935 q 384 983 350 983 q 441 959 418 983 q 465 902 465 936 q 441 845 465 869 m 100 817 l 119 1031 l 282 1031 l 205 817 l 100 817 z "},"Α":{"ha":906,"x_min":18,"x_max":888,"o":"m 728 0 l 638 264 l 265 264 l 176 0 l 18 0 l 371 979 l 535 979 l 888 0 l 728 0 m 450 816 l 304 387 l 600 387 l 454 816 l 450 816 z "},"Β":{"ha":857,"x_min":90,"x_max":817,"o":"m 483 0 l 90 0 l 90 979 l 481 979 q 690 912 611 979 q 768 734 768 845 q 718 595 768 656 q 594 522 667 534 l 594 516 q 755 439 694 505 q 817 277 817 374 q 728 74 817 147 q 483 0 639 0 m 242 854 l 242 562 l 412 562 q 564 602 511 562 q 616 713 616 641 q 572 818 616 781 q 444 854 527 854 l 242 854 m 242 124 l 452 124 q 608 165 554 124 q 661 286 661 207 q 443 446 661 446 l 242 446 l 242 124 z "},"Γ":{"ha":730,"x_min":90,"x_max":688,"o":"m 242 0 l 90 0 l 90 979 l 688 979 l 688 848 l 242 848 l 242 0 z "},"Δ":{"ha":904,"x_min":37,"x_max":867,"o":"m 867 0 l 37 0 l 37 97 l 370 979 l 534 979 l 867 97 l 867 0 m 201 136 l 201 131 l 697 131 l 697 136 l 452 823 l 448 823 l 201 136 z "},"Ε":{"ha":777,"x_min":90,"x_max":711,"o":"m 711 132 l 711 0 l 90 0 l 90 979 l 711 979 l 711 848 l 242 848 l 242 562 l 686 562 l 686 435 l 242 435 l 242 132 l 711 132 z "},"Ζ":{"ha":863,"x_min":64,"x_max":800,"o":"m 64 0 l 64 104 l 600 842 l 600 848 l 81 848 l 81 979 l 787 979 l 787 875 l 253 136 l 253 132 l 800 132 l 800 0 l 64 0 z "},"Η":{"ha":986,"x_min":90,"x_max":897,"o":"m 897 0 l 745 0 l 745 433 l 242 433 l 242 0 l 90 0 l 90 979 l 242 979 l 242 565 l 745 565 l 745 979 l 897 979 l 897 0 z "},"Θ":{"ha":1042,"x_min":55,"x_max":987,"o":"m 715 424 l 327 424 l 327 550 l 715 550 l 715 424 m 521 995 q 863 859 739 995 q 987 489 987 723 q 863 120 987 256 q 521 -16 739 -16 q 179 120 304 -16 q 55 489 55 256 q 179 859 55 723 q 521 995 303 995 m 521 861 q 292 762 376 861 q 209 489 209 662 q 292 217 209 317 q 521 117 376 117 q 750 217 667 117 q 833 489 833 317 q 750 762 833 662 q 521 861 667 861 z "},"Ι":{"ha":332,"x_min":90,"x_max":242,"o":"m 242 0 l 90 0 l 90 979 l 242 979 l 242 0 z "},"Κ":{"ha":877,"x_min":90,"x_max":870,"o":"m 242 0 l 90 0 l 90 979 l 242 979 l 242 513 l 248 513 l 657 979 l 838 979 l 450 545 l 870 0 l 682 0 l 342 441 l 242 326 l 242 0 z "},"Λ":{"ha":881,"x_min":18,"x_max":863,"o":"m 703 0 l 441 808 l 437 808 l 176 0 l 18 0 l 359 979 l 522 979 l 863 0 l 703 0 z "},"Μ":{"ha":1171,"x_min":90,"x_max":1080,"o":"m 1080 0 l 941 0 l 941 720 l 937 720 l 642 7 l 529 7 l 233 720 l 229 720 l 229 0 l 90 0 l 90 979 l 266 979 l 583 206 l 588 206 l 904 979 l 1080 979 l 1080 0 z "},"Ν":{"ha":979,"x_min":90,"x_max":888,"o":"m 238 0 l 90 0 l 90 979 l 228 979 l 735 257 l 741 257 l 741 979 l 888 979 l 888 0 l 751 0 l 244 721 l 238 721 l 238 0 z "},"Ξ":{"ha":857,"x_min":66,"x_max":791,"o":"m 66 979 l 791 979 l 791 845 l 66 845 l 66 979 m 732 433 l 125 433 l 125 561 l 732 561 l 732 433 m 66 134 l 791 134 l 791 0 l 66 0 l 66 134 z "},"Ο":{"ha":1026,"x_min":55,"x_max":972,"o":"m 513 995 q 848 859 724 995 q 972 489 972 722 q 848 120 972 256 q 513 -16 725 -16 q 178 120 302 -16 q 55 489 55 256 q 178 859 55 722 q 513 995 302 995 m 513 861 q 292 761 374 861 q 210 489 210 661 q 292 218 210 318 q 513 117 374 117 q 734 218 652 117 q 816 489 816 318 q 734 761 816 661 q 513 861 652 861 z "},"Π":{"ha":972,"x_min":90,"x_max":883,"o":"m 883 0 l 731 0 l 731 848 l 242 848 l 242 0 l 90 0 l 90 979 l 883 979 l 883 0 z "},"Ρ":{"ha":822,"x_min":90,"x_max":779,"o":"m 90 979 l 457 979 q 689 889 600 979 q 779 657 779 800 q 688 424 779 514 q 452 334 597 334 l 242 334 l 242 0 l 90 0 l 90 979 m 242 850 l 242 462 l 416 462 q 570 513 515 462 q 624 656 624 564 q 570 800 624 749 q 417 850 516 850 l 242 850 z "},"Σ":{"ha":844,"x_min":64,"x_max":780,"o":"m 249 136 l 249 132 l 780 132 l 780 0 l 64 0 l 64 100 l 339 491 l 77 865 l 77 979 l 762 979 l 762 848 l 266 848 l 266 842 l 503 502 l 503 497 l 249 136 z "},"Τ":{"ha":817,"x_min":33,"x_max":784,"o":"m 485 0 l 333 0 l 333 848 l 33 848 l 33 979 l 784 979 l 784 848 l 485 848 l 485 0 z "},"Υ":{"ha":877,"x_min":18,"x_max":859,"o":"m 514 0 l 362 0 l 362 401 l 18 979 l 187 979 l 437 547 l 441 547 l 691 979 l 859 979 l 514 401 l 514 0 z "},"Φ":{"ha":1143,"x_min":47,"x_max":1096,"o":"m 943 486 q 864 707 943 625 q 644 795 785 789 l 644 176 q 864 266 785 184 q 943 486 943 347 m 199 486 q 279 266 199 347 q 498 176 358 184 l 498 795 q 279 707 358 789 q 199 486 199 625 m 644 -51 l 498 -51 l 498 48 q 170 177 293 58 q 47 486 47 296 q 170 795 47 676 q 498 924 293 915 l 498 1025 l 644 1025 l 644 924 q 973 795 850 915 q 1096 486 1096 676 q 973 177 1096 296 q 644 48 850 58 l 644 -51 z "},"Χ":{"ha":907,"x_min":30,"x_max":877,"o":"m 30 0 l 355 490 l 355 495 l 33 979 l 214 979 l 456 600 l 461 600 l 705 979 l 877 979 l 545 490 l 545 486 l 871 0 l 693 0 l 450 373 l 445 373 l 198 0 l 30 0 z "},"Ψ":{"ha":1096,"x_min":77,"x_max":1019,"o":"m 622 0 l 474 0 l 474 222 q 185 330 293 224 q 77 610 77 435 l 77 979 l 224 979 l 224 612 q 289 426 224 492 q 474 355 353 359 l 474 979 l 622 979 l 622 355 q 807 426 743 359 q 871 612 871 492 l 871 979 l 1019 979 l 1019 610 q 970 407 1019 495 q 831 271 922 319 q 622 222 741 223 l 622 0 z "},"Ω":{"ha":1046,"x_min":66,"x_max":980,"o":"m 825 536 q 744 774 825 686 q 523 861 663 861 q 302 774 383 861 q 220 536 220 686 q 273 320 220 412 q 435 157 325 229 l 435 0 l 66 0 l 66 129 l 272 129 l 272 134 q 120 305 174 198 q 66 544 66 412 q 192 870 66 745 q 523 995 319 995 q 853 870 727 995 q 980 544 980 745 q 926 305 980 412 q 774 134 871 198 l 774 129 l 980 129 l 980 0 l 610 0 l 610 157 q 773 320 720 229 q 825 536 825 412 z "},"Ϊ":{"ha":332,"x_min":-45,"x_max":377,"o":"m 242 0 l 90 0 l 90 979 l 242 979 l 242 0 m 36 1080 q -21 1103 2 1080 q -45 1159 -45 1126 q -21 1215 -45 1192 q 36 1238 2 1238 q 93 1215 69 1238 q 116 1159 116 1192 q 93 1103 116 1126 q 36 1080 69 1080 m 297 1080 q 240 1103 263 1080 q 216 1159 216 1126 q 240 1215 216 1192 q 297 1238 263 1238 q 354 1215 330 1238 q 377 1159 377 1192 q 354 1103 377 1126 q 297 1080 330 1080 z "},"Ϋ":{"ha":877,"x_min":18,"x_max":859,"o":"m 514 0 l 362 0 l 362 401 l 18 979 l 187 979 l 437 547 l 441 547 l 691 979 l 859 979 l 514 401 l 514 0 m 308 1080 q 251 1103 274 1080 q 227 1159 227 1126 q 251 1215 227 1192 q 308 1238 274 1238 q 365 1215 341 1238 q 388 1159 388 1192 q 365 1103 388 1126 q 308 1080 341 1080 m 569 1080 q 512 1103 535 1080 q 488 1159 488 1126 q 512 1215 488 1192 q 569 1238 535 1238 q 626 1215 602 1238 q 649 1159 649 1192 q 626 1103 649 1126 q 569 1080 602 1080 z "},"ά":{"ha":835,"x_min":41,"x_max":800,"o":"m 365 113 q 502 180 450 113 q 554 357 554 248 q 502 533 554 465 q 367 602 450 602 q 238 536 286 602 q 191 357 191 469 q 237 178 191 243 q 365 113 283 113 m 339 -12 q 121 89 202 -12 q 41 357 41 189 q 122 626 41 526 q 339 726 203 726 q 467 691 412 726 q 556 595 523 656 l 559 595 l 559 714 l 701 714 l 701 199 q 715 133 701 153 q 762 113 730 113 q 799 118 781 113 l 800 5 q 729 -5 776 -5 q 562 112 589 -5 l 559 118 l 555 118 q 470 24 529 60 q 339 -12 412 -12 m 316 814 l 368 1022 l 536 1022 l 434 814 l 316 814 z "},"έ":{"ha":722,"x_min":47,"x_max":692,"o":"m 347 -14 q 126 43 206 -14 q 47 193 47 99 q 81 295 47 252 q 176 356 115 338 l 176 359 q 90 420 119 380 q 60 516 60 460 q 140 668 60 610 q 359 726 220 726 q 587 662 505 726 q 680 484 669 597 l 535 484 q 482 576 523 546 q 352 606 441 606 q 239 579 277 607 q 202 507 202 552 q 353 416 202 416 l 451 416 l 451 302 l 353 302 q 237 277 278 302 q 197 207 197 251 q 237 133 197 159 q 355 107 277 107 q 544 231 517 107 l 692 231 q 583 53 677 120 q 347 -14 490 -14 m 309 814 l 360 1022 l 529 1022 l 427 814 l 309 814 z "},"ή":{"ha":835,"x_min":49,"x_max":764,"o":"m 764 -236 l 617 -236 l 617 425 q 582 556 617 513 q 463 600 546 600 q 344 549 389 600 q 300 416 300 498 l 300 0 l 153 0 l 153 515 q 137 582 153 562 q 89 602 121 602 q 49 596 66 602 l 49 711 q 129 720 91 720 q 286 625 252 720 q 294 597 292 607 l 297 597 q 513 726 363 726 q 700 656 635 726 q 764 460 764 586 l 764 -236 m 313 814 l 364 1022 l 533 1022 l 431 814 l 313 814 z "},"ί":{"ha":387,"x_min":74,"x_max":357,"o":"m 74 714 l 221 714 l 221 205 q 242 137 221 159 q 308 115 263 115 q 356 119 339 115 l 357 5 q 275 -4 319 -4 q 120 40 166 -4 q 74 189 74 85 l 74 714 m 85 814 l 136 1022 l 305 1022 l 203 814 l 85 814 z "},"ΰ":{"ha":728,"x_min":69,"x_max":675,"o":"m 359 -13 q 143 65 218 -13 q 69 286 69 142 l 69 713 l 212 713 l 212 296 q 359 115 212 115 q 528 369 528 115 q 514 553 528 479 q 465 713 500 627 l 610 713 q 657 564 639 652 q 675 382 675 475 q 593 90 675 192 q 359 -13 512 -13 m 218 845 q 206 833 218 845 q 160 821 194 821 q 102 845 126 821 q 79 902 79 869 q 102 959 79 936 q 160 983 126 983 q 218 959 194 983 q 241 902 241 936 q 218 845 241 869 m 627 845 q 615 833 627 845 q 570 821 604 821 q 512 845 536 821 q 488 902 488 869 q 512 959 488 935 q 570 983 536 983 q 627 959 604 983 q 651 902 651 936 q 627 845 651 869 m 286 817 l 305 1031 l 468 1031 l 391 817 l 286 817 z "},"α":{"ha":835,"x_min":41,"x_max":800,"o":"m 365 112 q 502 180 450 112 q 554 357 554 248 q 502 533 554 464 q 367 602 450 602 q 238 535 286 602 q 191 357 191 469 q 237 177 191 243 q 365 112 283 112 m 339 -12 q 121 88 202 -12 q 41 357 41 188 q 122 625 41 525 q 339 725 203 725 q 467 690 412 725 q 556 595 523 656 l 559 595 l 559 713 l 701 713 l 701 198 q 715 132 701 152 q 762 112 730 112 q 799 117 781 112 l 800 4 q 729 -5 776 -5 q 562 111 589 -5 l 559 117 l 555 117 q 470 24 529 60 q 339 -12 412 -12 z "},"β":{"ha":784,"x_min":73,"x_max":743,"o":"m 317 465 l 317 581 l 370 581 q 493 620 451 581 q 536 730 536 659 q 494 832 536 794 q 382 871 452 871 q 218 661 218 871 l 218 355 q 269 176 218 239 q 418 113 319 113 q 546 160 498 113 q 593 284 593 208 q 537 419 593 373 q 370 465 480 465 l 317 465 m 73 656 q 152 906 73 819 q 379 992 231 992 q 596 926 517 992 q 675 744 675 859 q 637 618 675 673 q 529 536 599 564 l 529 534 q 743 281 743 486 q 663 70 743 151 q 451 -12 582 -12 q 312 21 371 -12 q 222 115 254 54 l 219 115 l 219 -236 l 73 -236 l 73 656 z "},"γ":{"ha":742,"x_min":24,"x_max":684,"o":"m 420 -231 l 276 -231 l 276 -24 l 24 713 l 178 713 l 361 119 l 364 119 q 501 365 457 253 q 545 601 545 477 q 538 713 545 655 l 677 713 q 684 601 684 660 q 653 393 684 494 q 568 199 622 292 q 420 -21 514 106 l 420 -231 z "},"δ":{"ha":749,"x_min":41,"x_max":709,"o":"m 376 -14 q 132 78 224 -14 q 41 323 41 170 q 112 539 41 454 q 301 642 184 624 l 301 645 q 153 817 153 708 q 221 947 153 901 q 406 993 289 993 q 642 947 547 993 l 635 831 q 414 877 517 877 q 302 810 302 877 q 326 762 302 783 q 427 701 351 741 q 645 534 581 620 q 709 330 709 448 q 617 80 709 174 q 376 -14 525 -14 m 372 102 q 508 162 457 102 q 558 327 558 222 q 507 495 558 436 q 374 554 456 554 q 237 490 286 554 q 189 323 189 426 q 238 162 189 222 q 372 102 288 102 z "},"ε":{"ha":722,"x_min":47,"x_max":692,"o":"m 347 -14 q 126 43 206 -14 q 47 193 47 99 q 81 295 47 252 q 176 356 115 338 l 176 359 q 90 420 119 380 q 60 516 60 460 q 140 668 60 610 q 359 726 220 726 q 587 662 505 726 q 680 484 669 597 l 535 484 q 482 576 523 546 q 352 606 441 606 q 239 579 277 607 q 202 507 202 552 q 353 416 202 416 l 451 416 l 451 302 l 353 302 q 237 277 278 302 q 197 207 197 251 q 237 133 197 159 q 355 107 277 107 q 544 231 517 107 l 692 231 q 583 53 677 120 q 347 -14 490 -14 z "},"ζ":{"ha":606,"x_min":39,"x_max":610,"o":"m 551 -240 l 434 -214 q 471 -96 471 -149 q 443 -27 471 -53 q 330 25 414 -2 q 106 154 172 77 q 39 361 39 231 q 128 622 39 496 q 377 852 216 747 l 377 855 l 93 855 l 93 978 l 594 978 l 594 865 q 288 623 387 740 q 189 376 189 507 q 232 238 189 287 q 391 150 276 189 q 563 59 515 108 q 610 -69 610 11 q 596 -151 610 -112 q 551 -240 583 -191 z "},"η":{"ha":833,"x_min":49,"x_max":764,"o":"m 764 -236 l 617 -236 l 617 425 q 582 556 617 513 q 463 600 546 600 q 344 549 389 600 q 300 416 300 498 l 300 0 l 153 0 l 153 515 q 137 582 153 562 q 89 602 121 602 q 49 596 66 602 l 49 711 q 129 720 91 720 q 286 625 252 720 q 294 597 292 607 l 297 597 q 513 726 363 726 q 700 656 635 726 q 764 460 764 586 l 764 -236 z "},"θ":{"ha":798,"x_min":58,"x_max":741,"o":"m 399 -14 q 144 115 230 -14 q 58 492 58 243 q 145 865 58 738 q 399 992 233 992 q 653 864 566 992 q 741 490 741 736 q 653 115 741 243 q 399 -14 566 -14 m 399 106 q 542 185 495 106 q 593 437 589 264 l 205 437 q 256 185 210 264 q 399 106 303 106 m 205 555 l 592 555 q 399 873 581 873 q 260 795 308 873 q 205 555 212 717 z "},"ι":{"ha":387,"x_min":74,"x_max":357,"o":"m 74 713 l 221 713 l 221 204 q 242 136 221 158 q 308 115 263 115 q 356 118 339 115 l 357 5 q 275 -5 319 -5 q 120 40 166 -5 q 74 188 74 84 l 74 713 z "},"κ":{"ha":762,"x_min":78,"x_max":728,"o":"m 78 0 l 78 713 l 222 713 l 222 354 l 224 354 l 432 595 q 533 691 492 666 q 630 715 573 715 q 703 707 670 715 l 703 592 q 654 597 686 597 q 599 582 623 597 q 532 515 574 566 l 450 422 l 728 0 l 568 0 l 356 329 l 222 183 l 222 0 l 78 0 z "},"λ":{"ha":753,"x_min":22,"x_max":741,"o":"m 22 0 l 302 670 l 273 752 q 247 814 257 793 q 221 848 236 836 q 192 864 207 861 q 150 867 178 867 q 104 861 124 867 l 104 976 q 177 985 141 985 q 256 977 225 985 q 314 944 287 968 q 361 880 340 920 q 405 773 381 840 l 610 189 q 645 128 626 144 q 698 112 663 112 q 734 118 716 112 l 741 3 q 666 -5 709 -5 q 553 25 593 -5 q 484 142 513 56 l 363 496 l 360 496 l 169 0 l 22 0 z "},"ν":{"ha":731,"x_min":24,"x_max":673,"o":"m 268 0 l 24 713 l 178 713 l 361 119 l 364 119 q 494 361 454 249 q 534 601 534 473 q 528 713 534 654 l 667 713 q 673 601 673 657 q 620 312 673 447 q 436 0 566 177 l 268 0 z "},"ξ":{"ha":630,"x_min":41,"x_max":612,"o":"m 553 -240 l 436 -214 q 474 -94 474 -151 q 444 -26 474 -52 q 323 29 414 0 q 152 104 214 64 q 65 189 89 145 q 41 292 41 233 q 90 426 41 372 q 233 501 140 481 l 233 503 q 118 574 155 531 q 81 684 81 616 q 235 853 81 813 l 235 855 l 84 855 l 84 978 l 593 978 l 593 869 l 519 861 q 291 805 360 843 q 222 694 222 767 q 275 605 222 632 q 441 578 328 578 l 545 578 l 545 458 l 437 458 q 189 317 189 458 q 233 225 189 262 q 395 149 276 189 q 564 60 516 109 q 612 -69 612 12 q 599 -152 612 -113 q 553 -240 585 -191 z "},"ο":{"ha":753,"x_min":41,"x_max":713,"o":"m 622 87 q 576 37 622 87 q 376 -14 530 -14 q 132 87 222 -14 q 41 357 41 187 q 131 627 41 528 q 376 726 221 726 q 622 627 532 726 q 713 357 713 528 q 622 87 713 187 m 239 174 q 263 142 239 174 q 376 109 288 109 q 514 174 465 109 q 562 357 562 239 q 513 538 562 473 q 376 604 464 604 q 240 538 289 604 q 191 357 191 473 q 239 174 191 239 z "},"π":{"ha":913,"x_min":43,"x_max":859,"o":"m 184 0 l 184 593 l 43 593 l 43 713 l 859 713 l 859 593 l 715 593 l 715 193 q 730 131 715 150 q 779 112 746 112 q 819 118 802 112 l 820 4 q 745 -5 795 -5 q 614 36 654 -5 q 574 174 574 77 l 574 593 l 324 593 l 324 0 l 184 0 z "},"ρ":{"ha":777,"x_min":65,"x_max":737,"o":"m 397 113 q 536 178 485 113 q 587 358 587 243 q 536 539 587 474 q 397 604 486 604 q 260 539 310 604 q 211 359 211 474 q 264 176 211 239 q 397 113 318 113 m 65 -236 l 65 351 q 155 625 65 524 q 398 726 245 726 q 644 627 551 726 q 737 359 737 527 q 655 88 737 189 q 434 -12 574 -12 q 302 21 360 -12 q 215 112 243 54 l 212 112 l 212 -236 l 65 -236 z "},"ς":{"ha":707,"x_min":41,"x_max":675,"o":"m 612 -68 q 599 -152 612 -112 q 553 -240 585 -191 l 436 -214 q 474 -96 474 -149 q 446 -27 474 -53 q 334 25 418 -2 q 107 157 173 77 q 41 376 41 237 q 129 631 41 536 q 367 726 217 726 q 580 660 501 726 q 675 468 659 593 l 534 468 q 479 569 521 533 q 372 605 437 605 q 237 545 286 605 q 189 382 189 484 q 233 239 189 290 q 393 150 277 189 q 566 59 519 108 q 612 -68 612 11 z "},"σ":{"ha":851,"x_min":41,"x_max":808,"o":"m 375 -14 q 132 85 223 -14 q 41 346 41 183 q 139 613 41 513 q 403 713 238 713 l 808 713 l 808 593 l 605 593 l 605 590 q 679 488 652 554 q 706 347 706 422 q 616 85 706 184 q 375 -14 526 -14 m 374 108 q 512 173 462 108 q 563 349 563 237 q 515 524 563 459 q 385 588 467 588 q 243 523 296 588 q 191 347 191 457 q 240 172 191 237 q 374 108 290 108 z "},"τ":{"ha":692,"x_min":37,"x_max":639,"o":"m 454 -5 q 298 41 343 -5 q 252 193 252 87 l 252 593 l 37 593 l 37 713 l 639 713 l 639 593 l 399 593 l 399 206 q 420 137 399 160 q 488 115 440 115 q 538 118 518 115 l 538 4 q 454 -5 506 -5 z "},"υ":{"ha":728,"x_min":69,"x_max":675,"o":"m 359 -13 q 143 65 218 -13 q 69 286 69 142 l 69 713 l 212 713 l 212 296 q 359 115 212 115 q 528 369 528 115 q 514 553 528 479 q 465 713 500 627 l 610 713 q 657 564 639 652 q 675 382 675 475 q 593 90 675 192 q 359 -13 512 -13 z "},"φ":{"ha":977,"x_min":37,"x_max":940,"o":"m 420 -236 l 420 -12 q 142 96 247 -4 q 37 357 37 196 q 141 621 37 520 q 420 726 245 721 l 420 882 l 556 882 l 556 726 q 836 620 731 721 q 940 357 940 519 q 835 96 940 196 q 556 -12 730 -4 l 556 -236 l 420 -236 m 555 105 q 732 181 667 114 q 796 357 796 248 q 733 535 796 467 q 555 608 669 603 l 555 105 m 421 105 l 421 608 q 243 535 307 603 q 180 357 180 467 q 245 181 180 248 q 421 105 309 114 z "},"χ":{"ha":776,"x_min":36,"x_max":753,"o":"m 57 -236 l 322 237 l 178 523 q 134 583 155 568 q 75 597 113 597 q 36 592 55 597 l 36 707 q 111 715 78 715 q 218 689 180 715 q 295 586 256 662 l 408 361 l 410 361 l 593 713 l 743 713 l 473 232 l 615 -45 q 657 -106 638 -91 q 709 -121 676 -121 q 747 -115 731 -121 l 753 -230 q 684 -239 720 -239 q 575 -215 611 -239 q 502 -119 539 -191 l 388 107 l 386 107 l 207 -236 l 57 -236 z "},"ψ":{"ha":962,"x_min":69,"x_max":909,"o":"m 408 -236 l 408 -12 q 158 69 246 -9 q 69 288 69 147 l 69 713 l 212 713 l 212 312 q 260 165 212 213 q 408 116 309 117 l 408 882 l 547 882 l 547 116 q 707 182 650 117 q 763 369 763 247 q 749 553 763 479 q 699 713 735 627 l 845 713 q 892 565 874 652 q 909 385 909 477 q 814 94 909 198 q 547 -12 719 -10 l 547 -236 l 408 -236 z "},"ω":{"ha":1026,"x_min":52,"x_max":973,"o":"m 718 -14 q 515 148 574 -14 l 511 148 q 307 -14 451 -14 q 117 77 182 -14 q 52 336 52 168 q 80 538 52 435 q 155 713 108 641 l 307 713 q 198 335 198 533 q 229 168 198 222 q 323 114 259 114 q 411 160 378 114 q 443 283 443 206 l 443 509 l 582 509 l 582 283 q 614 160 582 206 q 703 114 647 114 q 797 168 766 114 q 827 335 827 222 q 719 713 827 533 l 871 713 q 945 539 918 642 q 973 336 973 436 q 908 77 973 167 q 718 -14 844 -14 z "},"ϊ":{"ha":387,"x_min":-49,"x_max":373,"o":"m 74 713 l 221 713 l 221 204 q 242 136 221 158 q 308 115 263 115 q 356 118 339 115 l 357 5 q 275 -5 319 -5 q 120 40 166 -5 q 74 188 74 84 l 74 713 m 32 823 q -25 846 -2 823 q -49 902 -49 869 q -25 958 -49 935 q 32 981 -2 981 q 89 958 65 981 q 112 902 112 935 q 89 846 112 869 q 32 823 65 823 m 293 823 q 236 846 259 823 q 212 902 212 869 q 236 958 212 935 q 293 981 259 981 q 350 958 326 981 q 373 902 373 935 q 350 846 373 869 q 293 823 326 823 z "},"ϋ":{"ha":728,"x_min":69,"x_max":675,"o":"m 359 -13 q 143 65 218 -13 q 69 286 69 142 l 69 713 l 212 713 l 212 296 q 359 115 212 115 q 528 369 528 115 q 514 553 528 479 q 465 713 500 627 l 610 713 q 657 564 639 652 q 675 382 675 475 q 593 90 675 192 q 359 -13 512 -13 m 238 823 q 181 846 204 823 q 157 902 157 869 q 181 958 157 935 q 238 981 204 981 q 295 958 271 981 q 318 902 318 935 q 295 846 318 869 q 238 823 271 823 m 499 823 q 442 846 465 823 q 418 902 418 869 q 442 958 418 935 q 499 981 465 981 q 556 958 532 981 q 579 902 579 935 q 556 846 579 869 q 499 823 532 823 z "},"ό":{"ha":753,"x_min":41,"x_max":713,"o":"m 622 87 q 576 37 622 87 q 376 -14 530 -14 q 132 87 222 -14 q 41 357 41 187 q 131 627 41 528 q 376 726 221 726 q 622 627 532 726 q 713 357 713 528 q 622 87 713 187 m 239 174 q 263 142 239 174 q 376 109 288 109 q 514 174 465 109 q 562 357 562 239 q 513 538 562 473 q 376 604 464 604 q 240 538 289 604 q 191 357 191 473 q 239 174 191 239 m 323 814 l 374 1022 l 543 1022 l 441 814 l 323 814 z "},"ύ":{"ha":728,"x_min":69,"x_max":675,"o":"m 359 -13 q 143 65 218 -13 q 69 286 69 142 l 69 713 l 212 713 l 212 296 q 359 115 212 115 q 528 369 528 115 q 514 553 528 479 q 465 713 500 627 l 610 713 q 657 564 639 652 q 675 382 675 475 q 593 90 675 192 q 359 -13 512 -13 m 287 814 l 338 1022 l 507 1022 l 405 814 l 287 814 z "},"ώ":{"ha":1026,"x_min":52,"x_max":973,"o":"m 718 -14 q 515 148 574 -14 l 511 148 q 307 -14 451 -14 q 117 77 182 -14 q 52 336 52 168 q 80 538 52 435 q 155 713 108 641 l 307 713 q 198 335 198 533 q 229 168 198 222 q 323 114 259 114 q 411 160 378 114 q 443 283 443 206 l 443 509 l 582 509 l 582 283 q 614 160 582 206 q 703 114 647 114 q 797 168 766 114 q 827 335 827 222 q 719 713 827 533 l 871 713 q 945 539 918 642 q 973 336 973 436 q 908 77 973 167 q 718 -14 844 -14 m 455 814 l 507 1022 l 675 1022 l 573 814 l 455 814 z "},"Ѐ":{"ha":791,"x_min":97,"x_max":718,"o":"m 718 132 l 718 0 l 97 0 l 97 979 l 718 979 l 718 848 l 249 848 l 249 562 l 693 562 l 693 435 l 249 435 l 249 132 l 718 132 m 340 1059 l 161 1259 l 312 1259 l 463 1059 l 340 1059 z "},"Ё":{"ha":791,"x_min":97,"x_max":718,"o":"m 718 132 l 718 0 l 97 0 l 97 979 l 718 979 l 718 848 l 249 848 l 249 562 l 693 562 l 693 435 l 249 435 l 249 132 l 718 132 m 277 1080 q 220 1103 243 1080 q 197 1159 197 1126 q 220 1215 197 1192 q 277 1238 243 1238 q 334 1215 311 1238 q 357 1159 357 1192 q 334 1103 357 1126 q 277 1080 311 1080 m 538 1080 q 481 1103 505 1080 q 458 1159 458 1126 q 481 1215 458 1192 q 538 1238 505 1238 q 595 1215 572 1238 q 618 1159 618 1192 q 595 1103 618 1126 q 538 1080 572 1080 z "},"Ђ":{"ha":1151,"x_min":40,"x_max":1076,"o":"m 760 -23 q 667 -12 696 -23 l 667 117 q 752 106 694 106 q 878 156 832 106 q 924 292 924 205 q 870 430 924 378 q 727 482 817 482 q 589 445 654 482 q 497 351 524 408 l 497 0 l 345 0 l 345 848 l 40 848 l 40 979 l 802 979 l 802 848 l 497 848 l 497 522 l 503 522 q 746 615 592 615 q 986 527 897 615 q 1076 296 1076 439 q 990 64 1076 151 q 760 -23 905 -23 z "},"Ѓ":{"ha":739,"x_min":97,"x_max":695,"o":"m 250 0 l 97 0 l 97 979 l 695 979 l 695 846 l 250 846 l 250 0 m 471 1054 l 349 1054 l 499 1254 l 650 1254 l 471 1054 z "},"Є":{"ha":977,"x_min":62,"x_max":923,"o":"m 923 290 q 783 63 891 144 q 510 -18 675 -18 q 183 119 304 -18 q 62 490 62 256 q 183 860 62 722 q 510 997 305 997 q 785 907 671 997 q 923 671 899 817 l 770 671 q 676 810 747 758 q 510 862 605 862 q 312 781 391 862 q 221 563 233 700 l 637 563 l 637 435 l 219 435 q 306 203 226 289 q 511 117 386 117 q 676 162 608 117 q 770 290 745 208 l 923 290 z "}}}
